<svg xmlns="http://www.w3.org/2000/svg" xmlns:xlink="http://www.w3.org/1999/xlink" version="1.1" width="720pt" height="405.04pt" viewBox="0 0 720 405.04">
<defs>
<clipPath id="clip_53">
<path transform="matrix(1,0,0,-1,0,405.04)" d="M0 .000061035H720V405.04008H0Z" fill-rule="evenodd"/>
</clipPath>
<clipPath id="clip_54">
<path transform="matrix(1,0,0,-1,0,405.04)" d="M.000010729 .000030518H720V405.04005H.000010729Z" fill-rule="evenodd"/>
</clipPath>
<clipPath id="clip_55">
<path transform="matrix(1,0,0,-1,0,405.04)" d="M.000010729 .000030518H720V405.04005H.000010729Z" fill-rule="evenodd"/>
</clipPath>
<clipPath id="clip_56">
<path transform="matrix(1,0,0,-1,0,405.04)" d="M.000010729 .000030518H720V405.04005H.000010729Z" fill-rule="evenodd"/>
</clipPath>
<clipPath id="clip_57">
<path transform="matrix(1,0,0,-1,0,405.04)" d="M.000010729 .000030518H720V405.04005H.000010729Z" fill-rule="evenodd"/>
</clipPath>
<clipPath id="clip_58">
<path transform="matrix(1,0,0,-1,0,405.04)" d="M.000010729 .000030518H720V405.04005H.000010729Z" fill-rule="evenodd"/>
</clipPath>
<clipPath id="clip_59">
<path transform="matrix(1,0,0,-1,0,405.04)" d="M.000010729 .000030518H720V405.04005H.000010729Z" fill-rule="evenodd"/>
</clipPath>
<clipPath id="clip_60">
<path transform="matrix(1,0,0,-1,0,405.04)" d="M.000010729 .000030518H720V405.04005H.000010729Z" fill-rule="evenodd"/>
</clipPath>
<clipPath id="clip_61">
<path transform="matrix(1,0,0,-1,0,405.04)" d="M.000010729 .000030518H720V405.04005H.000010729Z" fill-rule="evenodd"/>
</clipPath>
<clipPath id="clip_62">
<path transform="matrix(1,0,0,-1,0,405.04)" d="M.000010729 .000030518H720V405.04005H.000010729Z" fill-rule="evenodd"/>
</clipPath>
<clipPath id="clip_63">
<path transform="matrix(1,0,0,-1,0,405.04)" d="M.000010729 .000030518H720V405.04005H.000010729Z" fill-rule="evenodd"/>
</clipPath>
<clipPath id="clip_64">
<path transform="matrix(1,0,0,-1,0,405.04)" d="M.000010729 .000030518H720V405.04005H.000010729Z" fill-rule="evenodd"/>
</clipPath>
<clipPath id="clip_65">
<path transform="matrix(1,0,0,-1,0,405.04)" d="M.000010729 .000030518H720V405.04005H.000010729Z" fill-rule="evenodd"/>
</clipPath>
<clipPath id="clip_66">
<path transform="matrix(1,0,0,-1,0,405.04)" d="M.000010729 .000030518H720V405.04005H.000010729Z" fill-rule="evenodd"/>
</clipPath>
<clipPath id="clip_67">
<path transform="matrix(1,0,0,-1,0,405.04)" d="M.000010729 .000030518H720V405.04005H.000010729Z" fill-rule="evenodd"/>
</clipPath>
<clipPath id="clip_68">
<path transform="matrix(1,0,0,-1,0,405.04)" d="M.000010729 .000030518H720V405.04005H.000010729Z" fill-rule="evenodd"/>
</clipPath>
<clipPath id="clip_69">
<path transform="matrix(1,0,0,-1,0,405.04)" d="M.000010729 .000030518H720V405.04005H.000010729Z" fill-rule="evenodd"/>
</clipPath>
<clipPath id="clip_70">
<path transform="matrix(1,0,0,-1,0,405.04)" d="M.000010729 .000030518H720V405.04005H.000010729Z" fill-rule="evenodd"/>
</clipPath>
<clipPath id="clip_71">
<path transform="matrix(1,0,0,-1,0,405.04)" d="M.000010729 .000030518H720V405.04005H.000010729Z" fill-rule="evenodd"/>
</clipPath>
<clipPath id="clip_72">
<path transform="matrix(1,0,0,-1,0,405.04)" d="M.000010729 .000030518H720V405.04005H.000010729Z" fill-rule="evenodd"/>
</clipPath>
<clipPath id="clip_73">
<path transform="matrix(1,0,0,-1,0,405.04)" d="M.000010729 .000030518H720V405.04005H.000010729Z" fill-rule="evenodd"/>
</clipPath>
<clipPath id="clip_74">
<path transform="matrix(1,0,0,-1,0,405.04)" d="M.000010729 .000030518H720V405.04005H.000010729Z" fill-rule="evenodd"/>
</clipPath>
<clipPath id="clip_75">
<path transform="matrix(1,0,0,-1,0,405.04)" d="M.000010729 .000030518H720V405.04005H.000010729Z" fill-rule="evenodd"/>
</clipPath>
</defs>
<g>
<g clip-path="url(#clip_53)">
<path transform="matrix(1,0,0,-1,0,405.04)" d="M0 .000030518H720V405.04005H0Z" fill="#ffffff" fill-rule="evenodd"/>
</g>
<path transform="matrix(1,0,0,-1,0,405.04)" d="M0 319.92H5.3202V379.151H0Z" fill="#4285f4" fill-rule="evenodd"/>
<g clip-path="url(#clip_54)">
<text fill="#4285f4" xml:space="preserve" transform="matrix(1 0 -0 1 0 405.04)" font-size="13.833" font-family="Calibri"><tspan y="-202.64" x="40.788 47.884328 54.621 59.57321 70.57045 77.29329 82.618999 89.341838 92.52342 99.26009 106.35643 113.07927 120.175609 123.71686">Permasalahan: </tspan></text>
</g>
<g clip-path="url(#clip_55)">
<text fill="#5f6368" xml:space="preserve" transform="matrix(1 0 -0 1 0 405.04)" font-size="12.083" font-family="Open Sans"><tspan y="-179.94" x="40.788 47.880723 54.62304 57.80087 64.51902 71.97423 78.70446 85.43469 92.15284 99.60805 102.08506 108.80321 113.068508 119.78665 127.253948 130.09345 135.77246 142.51477 148.19379 154.9361 162.36714 167.29701 174.06349 181.48246 188.23686">Pelanggan atau seseorang </tspan></text>
</g>
<g clip-path="url(#clip_56)">
<text fill="#5f6368" xml:space="preserve" transform="matrix(1 0 -0 1 0 405.04)" font-size="12.083" font-family="Open Sans"><tspan y="-179.94" x="191.24 197.26943 203.98758 211.4428 218.17304 220.65006 224.91536 228.0811 235.51215 242.2303 248.62221 251.46172 262.79557 269.53788 280.8717 284.04954 287.22737 290.40519 296.77293 299.61244">yang tidak memiliki </tspan></text>
</g>
<g clip-path="url(#clip_57)">
<text fill="#5f6368" xml:space="preserve" transform="matrix(1 0 -0 1 0 405.04)" font-size="12.083" font-family="Open Sans"><tspan y="-158.28" x="40.788 50.007329 56.725477 63.117383 67.38268 74.80164 77.66531 84.38346 88.64876 95.366909 102.8342 105.6737 112.041439 118.78375 130.11762 136.83577 148.1938 155.62485 163.04381 169.79822 177.21718 179.38004 186.799 194.26628 198.53159 205.95055 212.34246">waktu atau kemampuan untuk </tspan></text>
</g>
<g clip-path="url(#clip_58)">
<text fill="#5f6368" xml:space="preserve" transform="matrix(1 0 -0 1 0 405.04)" font-size="12.083" font-family="Open Sans"><tspan y="-158.28" x="215.36 226.69387 233.43618 244.77004 251.51235 257.19136 263.9095 271.36473 273.84175 280.20948 287.62846 294.407">memesan kue </tspan></text>
</g>
<g clip-path="url(#clip_59)">
<text fill="#5f6368" xml:space="preserve" transform="matrix(1 0 -0 1 0 405.04)" font-size="12.083" font-family="Open Sans"><tspan y="-136.62" x="40.788 48.206964 55.674257 59.939558 67.35852 73.75043 76.58993 83.308078 88.99917 95.717319 100.69551 107.41366 110.27733 115.95634 123.38738 130.12969 135.8087 138.98653 145.70468 148.90668 151.3837 157.06272 163.80503 169.48404 176.2022 181.18039 187.89855 191.10054 194.27837 200.99652 208.45174 215.18198 220.861 228.27996 235.74724 242.47748 244.9545 252.38555 259.1037 263.369 270.08714 277.55445 284.28468 286.7617 293.12944 299.87174">untuk acara spesial secara langsung datang ke </tspan></text>
</g>
<g clip-path="url(#clip_60)">
<text fill="#5f6368" xml:space="preserve" transform="matrix(1 0 -0 1 0 405.04)" font-size="12.059" font-family="Open Sans"><tspan y="-115.32" x="40.788 45.044828 52.485235 58.852388 66.29279 68.77695 76.21735 79.400928 85.76808 92.472888 97.46532 104.230419 111.63464 118.375629 124.74278 131.44759 138.9121">toko dikarenakan </tspan></text>
</g>
<g clip-path="url(#clip_61)">
<text fill="#5f6368" xml:space="preserve" transform="matrix(1 0 -0 1 0 405.04)" font-size="12.059" font-family="Open Sans"><tspan y="-115.32" x="141.21 147.57717 154.34227 159.98587 163.16945 170.60985 178.05025 184.4174 191.12221 198.58672 206.02712 212.05663">kesibukannya</tspan></text>
</g>
<g clip-path="url(#clip_62)">
<text fill="#5f6368" xml:space="preserve" transform="matrix(1 0 -0 1 0 405.04)" font-size="12.059" font-family="Open Sans"><tspan y="-115.32" x="218.91">.</tspan></text>
</g>
<g clip-path="url(#clip_63)">
<text fill="#5f6368" xml:space="preserve" transform="matrix(1 0 -0 1 0 405.04)" font-size="24.142" font-family="Open Sans"><tspan y="-333.8" x="40.788 47.523618 60.27059 75.14207 83.66419 89.67555 101.02229 114.445247 124.41589 130.45139 145.32286 155.22107 169.80284 181.82556 195.36923">Ikhtisar proyek</tspan></text>
</g>
<path transform="matrix(1,0,0,-1,0,405.04)" d="M40.788 263.88C40.788 275.05 49.84 284.1 61.005 284.1 72.17 284.1 81.222 275.05 81.222 263.88 81.222 252.72 72.17 243.67 61.005 243.67 49.84 243.67 40.788 252.72 40.788 263.88Z" fill="#4285f4" fill-rule="evenodd"/>
<g clip-path="url(#clip_64)">
<text fill="#4285f4" xml:space="preserve" transform="matrix(1 0 -0 1 0 405.04)" font-size="13.833" font-family="Calibri"><tspan y="-202.64" x="360.17 366.90669 374.00303 377.19847 384.2948 391.01765 398.11399 401.65525">Tujuan: </tspan></text>
</g>
<g clip-path="url(#clip_65)">
<text fill="#5f6368" xml:space="preserve" transform="matrix(1 0 -0 1 0 405.04)" font-size="12.083" font-family="Open Sans"><tspan y="-179.94" x="360.17 369.02687 375.76918 381.44816 388.1663 391.3683 398.78727 401.6509 408.36906 415.82429 419.0021 422.17994 428.54768 435.2658 440.95689 444.1347 446.2613 453.68028 461.14759 465.41288 472.83186 479.22377">Desain aplikasi untuk </tspan></text>
</g>
<g clip-path="url(#clip_66)">
<text fill="#5f6368" xml:space="preserve" transform="matrix(1 0 -0 1 0 405.04)" font-size="12.083" font-family="Open Sans"><tspan y="-179.94" x="482.25 490.07978 496.7979 501.72779 505.99308 512.0829 514.88619 522.71597 529.4341 534.36398 539.35427 545.38369">Berty Berry </tspan></text>
</g>
<g clip-path="url(#clip_67)">
<text fill="#5f6368" xml:space="preserve" transform="matrix(1 0 -0 1 0 405.04)" font-size="12.083" font-family="Open Sans"><tspan y="-179.94" x="548.24 554.2694 560.98757 568.44277 575.173">yang </tspan></text>
</g>
<g clip-path="url(#clip_68)">
<text fill="#5f6368" xml:space="preserve" transform="matrix(1 0 -0 1 0 405.04)" font-size="12.083" font-family="Open Sans"><tspan y="-158.28" x="360.17 371.50386 378.24617 389.58 396.99897 404.46629 411.1965 417.56425 420.74208 428.16105 434.56504 440.94486 448.36384 450.52668 457.95774 464.70005 472.11903 478.8734 485.60365 493.0226 500.48994 507.20808 509.70924 517.1282 524.59548 528.8608 536.2797 542.67166 545.51119 556.84506 563.58737 574.9212 581.6635 587.3425 594.06069">memungkinkan pengguna untuk memesan</tspan></text>
</g>
<g clip-path="url(#clip_69)">
<text fill="#5f6368" xml:space="preserve" transform="matrix(1 0 -0 1 0 405.04)" font-size="12.083" font-family="Open Sans"><tspan y="-158.28" x="601.82 604.65737">, </tspan></text>
</g>
<g clip-path="url(#clip_70)">
<text fill="#5f6368" xml:space="preserve" transform="matrix(1 0 -0 1 0 405.04)" font-size="12.083" font-family="Open Sans"><tspan y="-136.62" x="360.17 371.50386 378.24617 385.66514 392.41954 399.13768 410.49568 417.92674 421.10456">mengambil</tspan></text>
</g>
<g clip-path="url(#clip_71)">
<text fill="#5f6368" xml:space="preserve" transform="matrix(1 0 -0 1 0 405.04)" font-size="12.083" font-family="Open Sans"><tspan y="-136.62" x="426.18 432.89814 437.16343 443.88157 451.34889 454.1884 465.52223 472.26454 479.6835 487.15083 494.5698 501.3242 508.0544 515.4734 517.9867 524.35446 531.7734 538.55197 541.3794 547.0584 553.77658 565.1346 572.5656 579.28378 582.4858">atau menunggu kue sampai </tspan></text>
</g>
<g clip-path="url(#clip_72)">
<text fill="#5f6368" xml:space="preserve" transform="matrix(1 0 -0 1 0 405.04)" font-size="12.059" font-family="Open Sans"><tspan y="-115.32" x="360.17 367.61045 370.79405 375.75028 383.19068 394.52613 401.23094">dirumah</tspan></text>
</g>
<g clip-path="url(#clip_73)">
<text fill="#5f6368" xml:space="preserve" transform="matrix(1 0 -0 1 0 405.04)" font-size="12.059" font-family="Open Sans"><tspan y="-115.32" x="410.91 418.35044 425.11555 432.51979 439.26078 445.96559 453.4301 456.26399 461.94377 468.70887 471.86833 478.57313 489.94477 496.64958 500.9064 503.42674 510.86714 518.30758 522.5644 530.0048 536.372 539.2059 550.5413 557.3064 568.61776 575.3828 580.30288 583.4985 590.2033 597.66787 604.03506 610.73989 618.2044">dengan selamat untuk memeriahkan </tspan></text>
</g>
<g clip-path="url(#clip_74)">
<text fill="#5f6368" xml:space="preserve" transform="matrix(1 0 -0 1 0 405.04)" font-size="12.059" font-family="Open Sans"><tspan y="-93.659" x="360.17 366.87483 372.6149 379.3197 384.27595 390.98075 393.8508 399.53059 406.971 413.7361 419.37974 422.56333 429.26814 432.48789 434.97206 441.00154 447.70634 455.17088 461.89979 464.73365 468.99049 475.75559 478.90299 485.6078 493.07234 495.9062 503.34663 506.5302 511.48646 518.2515 525.65579 531.34768 538.0525 545.517 552.22189 558.6252 565.33">acara spesial yang telah direncanakan</tspan></text>
</g>
<g clip-path="url(#clip_75)">
<text fill="#5f6368" xml:space="preserve" transform="matrix(1 0 -0 1 0 405.04)" font-size="12.059" font-family="Open Sans"><tspan y="-93.659" x="573.07">.</tspan></text>
</g>
<path transform="matrix(1,0,0,-1,0,405.04)" d="M360 263.88C360 275.05 369.05 284.1 380.22 284.1 391.38 284.1 400.43 275.05 400.43 263.88 400.43 252.72 391.38 243.67 380.22 243.67 369.05 243.67 360 252.72 360 263.88Z" fill="#4285f4" fill-rule="evenodd"/>
<path transform="matrix(1,0,0,-1,0,405.04)" d="M380.21 257.49 387.2 253.26 385.35 261.24 391.54 266.64 383.4 267.32 380.21 274.88 377.01 267.32 368.87 266.64 375.06 261.24 373.21 253.26 380.21 257.49" fill="#ffffff" fill-rule="evenodd"/>
<path transform="matrix(1,0,0,-1,0,405.04)" d="M62.075 269.29V263.01H59.935V269.29ZM62.075 260.92V258.82H59.935V260.92ZM60.998 274.52 60.459 274.51 59.92 274.47 59.382 274.4 58.857 274.31 58.347 274.19 57.836 274.05 57.34 273.88 56.858 273.7 56.39 273.49 55.936 273.25 55.483 273 55.057 272.74 54.632 272.44 54.235 272.14 53.852 271.8 53.484 271.46 53.129 271.09 52.789 270.72 52.477 270.31 52.179 269.91 51.91 269.49 51.655 269.04 51.414 268.6 51.201 268.14 51.003 267.65 50.847 267.18 50.705 266.67 50.577 266.17 50.492 265.66 50.421 265.13 50.379 264.6 50.365 264.05 50.379 263.52 50.421 262.99 50.492 262.46 50.577 261.95 50.705 261.45 50.847 260.94 51.003 260.46 51.201 259.98 51.414 259.52 51.655 259.08 51.91 258.63 52.179 258.21 52.477 257.79 52.789 257.4 53.129 257.03 53.484 256.66 53.852 256.31 54.235 255.98 54.632 255.67 55.057 255.38 55.483 255.12 55.936 254.86 56.39 254.63 56.858 254.42 57.34 254.22 57.836 254.07 58.347 253.93 58.857 253.81 59.382 253.72 59.92 253.65 60.459 253.61 60.998 253.6 61.551 253.61 62.09 253.65 62.628 253.72 63.153 253.81 63.663 253.93 64.174 254.07 64.656 254.22 65.152 254.42 65.62 254.63 66.073 254.86 66.527 255.12 66.953 255.38 67.364 255.67 67.775 255.98 68.158 256.31 68.526 256.66 68.881 257.03 69.221 257.4 69.533 257.79 69.831 258.21 70.1 258.63 70.355 259.08 70.596 259.52 70.809 259.98 70.993 260.46 71.163 260.94 71.305 261.45 71.433 261.95 71.518 262.46 71.589 262.99 71.631 263.52 71.645 264.05 71.631 264.6 71.589 265.13 71.518 265.66 71.433 266.17 71.305 266.67 71.163 267.18 70.993 267.65 70.809 268.14 70.596 268.6 70.355 269.04 70.1 269.49 69.831 269.91 69.533 270.31 69.221 270.72 68.881 271.09 68.526 271.46 68.158 271.8 67.775 272.14 67.364 272.44 66.953 272.74 66.527 273 66.073 273.25 65.62 273.49 65.152 273.7 64.656 273.88 64.174 274.05 63.663 274.19 63.153 274.31 62.628 274.4 62.09 274.47 61.551 274.51 60.998 274.52Z" fill="#ffffff" fill-rule="evenodd"/>
</g>
</svg>
