<svg xmlns="http://www.w3.org/2000/svg" xmlns:xlink="http://www.w3.org/1999/xlink" version="1.1" width="720pt" height="405.04pt" viewBox="0 0 720 405.04">
<defs>
<clipPath id="clip_356">
<path transform="matrix(1,0,0,-1,0,405.04)" d="M0 .000061035H720V405.04008H0Z" fill-rule="evenodd"/>
</clipPath>
<clipPath id="clip_357">
<path transform="matrix(1,0,0,-1,0,405.04)" d="M.000010729 .000030518H720V405.04005H.000010729Z" fill-rule="evenodd"/>
</clipPath>
<clipPath id="clip_358">
<path transform="matrix(1,0,0,-1,0,405.04)" d="M.000010729 .000030518H720V405.04005H.000010729Z" fill-rule="evenodd"/>
</clipPath>
<clipPath id="clip_359">
<path transform="matrix(1,0,0,-1,0,405.04)" d="M.000010729 .000030518H720V405.04005H.000010729Z" fill-rule="evenodd"/>
</clipPath>
<clipPath id="clip_360">
<path transform="matrix(1,0,0,-1,0,405.04)" d="M.000010729 .000030518H720V405.04005H.000010729Z" fill-rule="evenodd"/>
</clipPath>
<clipPath id="clip_361">
<path transform="matrix(1,0,0,-1,0,405.04)" d="M.000010729 .000030518H720V405.04005H.000010729Z" fill-rule="evenodd"/>
</clipPath>
<clipPath id="clip_362">
<path transform="matrix(1,0,0,-1,0,405.04)" d="M.000010729 .000030518H720V405.04005H.000010729Z" fill-rule="evenodd"/>
</clipPath>
<clipPath id="clip_363">
<path transform="matrix(1,0,0,-1,0,405.04)" d="M.000010729 .000030518H720V405.04005H.000010729Z" fill-rule="evenodd"/>
</clipPath>
<clipPath id="clip_364">
<path transform="matrix(1,0,0,-1,0,405.04)" d="M.000010729 .000030518H720V405.04005H.000010729Z" fill-rule="evenodd"/>
</clipPath>
<clipPath id="clip_365">
<path transform="matrix(1,0,0,-1,0,405.04)" d="M.000010729 .000030518H720V405.04005H.000010729Z" fill-rule="evenodd"/>
</clipPath>
<clipPath id="clip_366">
<path transform="matrix(1,0,0,-1,0,405.04)" d="M.000010729 .000030518H720V405.04005H.000010729Z" fill-rule="evenodd"/>
</clipPath>
<clipPath id="clip_367">
<path transform="matrix(1,0,0,-1,0,405.04)" d="M.000010729 .000030518H720V405.04005H.000010729Z" fill-rule="evenodd"/>
</clipPath>
</defs>
<g>
<g clip-path="url(#clip_356)">
<path transform="matrix(1,0,0,-1,0,405.04)" d="M0 .000030518H720V405.04005H0Z" fill="#34a853" fill-rule="evenodd"/>
</g>
<g clip-path="url(#clip_357)">
<text fill="#ffffff" xml:space="preserve" transform="matrix(1 0 -0 1 0 405.04)" font-size="13.833" font-family="ArialMT"><tspan y="-217.58" x="311.36">&#x25cf;</tspan></text>
</g>
<g clip-path="url(#clip_358)">
<text fill="#ffffff" xml:space="preserve" transform="matrix(1 0 -0 1 0 405.04)" font-size="13.833" font-family="Open Sans"><tspan y="-217.58" x="336.54 348.9482 356.7362 363.83256 371.62055">Maket</tspan></text>
</g>
<g clip-path="url(#clip_359)">
<text fill="#ffffff" xml:space="preserve" transform="matrix(1 0 -0 1 0 405.04)" font-size="13.833" font-family="ArialMT"><tspan y="-192.38" x="311.36">&#x25cf;</tspan></text>
</g>
<g clip-path="url(#clip_360)">
<text fill="#ffffff" xml:space="preserve" transform="matrix(1 0 -0 1 0 405.04)" font-size="13.833" font-family="Open Sans"><tspan y="-192.38" x="336.54 344.70149 350.34535 358.8803 363.83253 372.326 377.2782 380.80564 389.28529 397.10093">Prototipe </tspan></text>
</g>
<g clip-path="url(#clip_361)">
<text fill="#ffffff" xml:space="preserve" transform="matrix(1 0 -0 1 0 405.04)" font-size="13.833" font-family="Open Sans,Italic" font-style="italic"><tspan y="-192.38" x="401.5 409.6476 412.84306 419.5797">high</tspan></text>
</g>
<g clip-path="url(#clip_362)">
<text fill="#ffffff" xml:space="preserve" transform="matrix(1 0 -0 1 0 405.04)" font-size="13.833" font-family="Open Sans,Italic" font-style="italic"><tspan y="-192.38" x="427.39">-</tspan></text>
</g>
<g clip-path="url(#clip_363)">
<text fill="#ffffff" xml:space="preserve" transform="matrix(1 0 -0 1 0 405.04)" font-size="13.833" font-family="Open Sans,Italic" font-style="italic"><tspan y="-192.38" x="431.65 435.91059 439.10603 446.54817 452.939 456.13444 459.648 464.28208 470.6729">fidelity.</tspan></text>
</g>
<g clip-path="url(#clip_364)">
<text fill="#ffffff" xml:space="preserve" transform="matrix(1 0 -0 1 0 405.04)" font-size="13.833" font-family="ArialMT"><tspan y="-167.17" x="311.36">&#x25cf;</tspan></text>
</g>
<g clip-path="url(#clip_365)">
<text fill="#ffffff" xml:space="preserve" transform="matrix(1 0 -0 1 0 405.04)" font-size="13.833" font-family="Open Sans"><tspan y="-167.17" x="336.54 345.39314 352.48948 359.2123 367.0003 373.72315 377.25059 385.73023 389.29914 392.82658 396.354 401.3062 409.0942">Aksesibilitas</tspan></text>
</g>
<g clip-path="url(#clip_366)">
<text fill="#ffffff" xml:space="preserve" transform="matrix(1 0 -0 1 0 405.04)" font-size="24.142" font-family="Open Sans"><tspan y="-208.88" x="40.528 62.159235 75.702899 90.526088 102.597087 116.14075 138.42382 153.29529 168.16675 178.06496 192.93643 206.35939 219.15465 232.5776 247.49736">Menyempurnakan </tspan></text>
</g>
<g clip-path="url(#clip_367)">
<text fill="#ffffff" xml:space="preserve" transform="matrix(1 0 -0 1 0 405.04)" font-size="24.142" font-family="Open Sans"><tspan y="-175.87" x="173.6 188.47148 202.01514 213.28945 226.7124 232.82033">desain</tspan></text>
</g>
<path transform="matrix(1,0,0,-1,0,405.04)" stroke-width="1.5" stroke-linecap="butt" stroke-linejoin="round" fill="none" stroke="#ffffff" d="M272.39 323.82 275.28 81.366"/>
</g>
</svg>
