<svg xmlns="http://www.w3.org/2000/svg" xmlns:xlink="http://www.w3.org/1999/xlink" version="1.1" width="720pt" height="405.04pt" viewBox="0 0 720 405.04">
<defs>
<clipPath id="clip_113">
<path transform="matrix(1,0,0,-1,0,405.04)" d="M0 .000061035H720V405.04008H0Z" fill-rule="evenodd"/>
</clipPath>
<clipPath id="clip_114">
<path transform="matrix(1,0,0,-1,0,405.04)" d="M.000010729 .000030518H720V405.04005H.000010729Z" fill-rule="evenodd"/>
</clipPath>
<clipPath id="clip_115">
<path transform="matrix(1,0,0,-1,0,405.04)" d="M.000010729 .000030518H720V405.04005H.000010729Z" fill-rule="evenodd"/>
</clipPath>
<clipPath id="clip_116">
<path transform="matrix(1,0,0,-1,0,405.04)" d="M.000010729 .000030518H720V405.04005H.000010729Z" fill-rule="evenodd"/>
</clipPath>
<clipPath id="clip_117">
<path transform="matrix(1,0,0,-1,0,405.04)" d="M.000010729 .000030518H720V405.04005H.000010729Z" fill-rule="evenodd"/>
</clipPath>
<clipPath id="clip_118">
<path transform="matrix(1,0,0,-1,0,405.04)" d="M.000010729 .000030518H720V405.04005H.000010729Z" fill-rule="evenodd"/>
</clipPath>
<clipPath id="clip_119">
<path transform="matrix(1,0,0,-1,0,405.04)" d="M.000010729 .000030518H720V405.04005H.000010729Z" fill-rule="evenodd"/>
</clipPath>
<clipPath id="clip_120">
<path transform="matrix(1,0,0,-1,0,405.04)" d="M.000010729 .000030518H720V405.04005H.000010729Z" fill-rule="evenodd"/>
</clipPath>
<clipPath id="clip_121">
<path transform="matrix(1,0,0,-1,0,405.04)" d="M.000010729 .000030518H720V405.04005H.000010729Z" fill-rule="evenodd"/>
</clipPath>
<clipPath id="clip_122">
<path transform="matrix(1,0,0,-1,0,405.04)" d="M.000010729 .000030518H720V405.04005H.000010729Z" fill-rule="evenodd"/>
</clipPath>
<clipPath id="clip_123">
<path transform="matrix(1,0,0,-1,0,405.04)" d="M.000010729 .000030518H720V405.04005H.000010729Z" fill-rule="evenodd"/>
</clipPath>
<clipPath id="clip_124">
<path transform="matrix(1,0,0,-1,0,405.04)" d="M.000010729 .000030518H720V405.04005H.000010729Z" fill-rule="evenodd"/>
</clipPath>
</defs>
<g>
<g clip-path="url(#clip_113)">
<path transform="matrix(1,0,0,-1,0,405.04)" d="M0 .000030518H720V405.04005H0Z" fill="#ea4335" fill-rule="evenodd"/>
</g>
<g clip-path="url(#clip_114)">
<text fill="#ffffff" xml:space="preserve" transform="matrix(1 0 -0 1 0 405.04)" font-size="24.142" font-family="Open Sans"><tspan y="-208.88" x="120.47 142.10124 155.6449 177.92797 191.35092 206.27068 219.69364 242.14569 248.1329">Memahami </tspan></text>
</g>
<g clip-path="url(#clip_115)">
<text fill="#ffffff" xml:space="preserve" transform="matrix(1 0 -0 1 0 405.04)" font-size="24.142" font-family="Open Sans"><tspan y="-175.87" x="135.37 150.26561 163.80927 178.63245 191.86226 204.97136 219.86699 234.76262">pengguna</tspan></text>
</g>
<g clip-path="url(#clip_116)">
<text fill="#ffffff" xml:space="preserve" transform="matrix(1 0 -0 1 0 405.04)" font-size="13.856" font-family="ArialMT"><tspan y="-230.33" x="310.65">&#x25cf;</tspan></text>
</g>
<g clip-path="url(#clip_117)">
<text fill="#ffffff" xml:space="preserve" transform="matrix(1 0 -0 1 0 405.04)" font-size="13.856" font-family="Open Sans"><tspan y="-230.33" x="335.86 344.36759 347.87315 354.63487 362.40809 367.39625 370.9434 379.43714 387.23808 395.74568 403.2002 410.65473 419.16233 427.66993">Riset pengguna</tspan></text>
</g>
<g clip-path="url(#clip_118)">
<text fill="#ffffff" xml:space="preserve" transform="matrix(1 0 -0 1 0 405.04)" font-size="13.856" font-family="ArialMT"><tspan y="-205.12" x="310.65">&#x25cf;</tspan></text>
</g>
<g clip-path="url(#clip_119)">
<text fill="#ffffff" xml:space="preserve" transform="matrix(1 0 -0 1 0 405.04)" font-size="13.856" font-family="Open Sans"><tspan y="-205.12" x="335.86 344.02119 351.7944 357.48924 364.20939 372.7031 381.2107">Persona</tspan></text>
</g>
<g clip-path="url(#clip_120)">
<text fill="#ffffff" xml:space="preserve" transform="matrix(1 0 -0 1 0 405.04)" font-size="13.856" font-family="ArialMT"><tspan y="-179.92" x="310.65">&#x25cf;</tspan></text>
</g>
<g clip-path="url(#clip_121)">
<text fill="#ffffff" xml:space="preserve" transform="matrix(1 0 -0 1 0 405.04)" font-size="13.856" font-family="Open Sans"><tspan y="-179.92" x="335.86 344.02119 351.7944 357.48924 365.99684 373.07725 380.86433 385.8109 393.598 401.38508 409.89268 413.78623 426.56147 434.34855 441.0687 448.85578 452.36134 460.18998">Pernyataan masalah</tspan></text>
</g>
<g clip-path="url(#clip_122)">
<text fill="#ffffff" xml:space="preserve" transform="matrix(1 0 -0 1 0 405.04)" font-size="13.856" font-family="ArialMT"><tspan y="-154.71" x="310.65">&#x25cf;</tspan></text>
</g>
<g clip-path="url(#clip_123)">
<text fill="#ffffff" xml:space="preserve" transform="matrix(1 0 -0 1 0 405.04)" font-size="13.856" font-family="Open Sans"><tspan y="-154.71" x="335.86 344.02119 351.7944 356.78257 364.56965">Peta </tspan></text>
</g>
<g clip-path="url(#clip_124)">
<text fill="#ffffff" xml:space="preserve" transform="matrix(1 0 -0 1 0 405.04)" font-size="13.856" font-family="Open Sans,Italic" font-style="italic"><tspan y="-154.71" x="368.49 376.65116 382.3321 388.73356 393.694 395.82783 399.34724 406.84333 414.67198 419.286 426.7544 433.15586">user journey</tspan></text>
</g>
<path transform="matrix(1,0,0,-1,0,405.04)" stroke-width="1.5" stroke-linecap="butt" stroke-linejoin="round" fill="none" stroke="#ffffff" d="M272.39 323.82 275.28 81.366"/>
</g>
</svg>
