<svg xmlns="http://www.w3.org/2000/svg" xmlns:xlink="http://www.w3.org/1999/xlink" version="1.1" width="720pt" height="405.04pt" viewBox="0 0 720 405.04">
<defs>
<clipPath id="clip_76">
<path transform="matrix(1,0,0,-1,0,405.04)" d="M0 .000061035H720V405.04008H0Z" fill-rule="evenodd"/>
</clipPath>
<clipPath id="clip_77">
<path transform="matrix(1,0,0,-1,0,405.04)" d="M.000010729 .000030518H720V405.04005H.000010729Z" fill-rule="evenodd"/>
</clipPath>
<clipPath id="clip_78">
<path transform="matrix(1,0,0,-1,0,405.04)" d="M.000010729 .000030518H720V405.04005H.000010729Z" fill-rule="evenodd"/>
</clipPath>
<clipPath id="clip_79">
<path transform="matrix(1,0,0,-1,0,405.04)" d="M.000010729 .000030518H720V405.04005H.000010729Z" fill-rule="evenodd"/>
</clipPath>
<clipPath id="clip_80">
<path transform="matrix(1,0,0,-1,0,405.04)" d="M.000010729 .000030518H720V405.04005H.000010729Z" fill-rule="evenodd"/>
</clipPath>
<clipPath id="clip_81">
<path transform="matrix(1,0,0,-1,0,405.04)" d="M.000010729 .000030518H720V405.04005H.000010729Z" fill-rule="evenodd"/>
</clipPath>
<clipPath id="clip_82">
<path transform="matrix(1,0,0,-1,0,405.04)" d="M.000010729 .000030518H720V405.04005H.000010729Z" fill-rule="evenodd"/>
</clipPath>
<clipPath id="clip_83">
<path transform="matrix(1,0,0,-1,0,405.04)" d="M.000010729 .000030518H720V405.04005H.000010729Z" fill-rule="evenodd"/>
</clipPath>
<clipPath id="clip_84">
<path transform="matrix(1,0,0,-1,0,405.04)" d="M.000010729 .000030518H720V405.04005H.000010729Z" fill-rule="evenodd"/>
</clipPath>
<clipPath id="clip_85">
<path transform="matrix(1,0,0,-1,0,405.04)" d="M.000010729 .000030518H720V405.04005H.000010729Z" fill-rule="evenodd"/>
</clipPath>
<clipPath id="clip_86">
<path transform="matrix(1,0,0,-1,0,405.04)" d="M.000010729 .000030518H720V405.04005H.000010729Z" fill-rule="evenodd"/>
</clipPath>
<clipPath id="clip_87">
<path transform="matrix(1,0,0,-1,0,405.04)" d="M.000010729 .000030518H720V405.04005H.000010729Z" fill-rule="evenodd"/>
</clipPath>
<clipPath id="clip_88">
<path transform="matrix(1,0,0,-1,0,405.04)" d="M.000010729 .000030518H720V405.04005H.000010729Z" fill-rule="evenodd"/>
</clipPath>
<clipPath id="clip_89">
<path transform="matrix(1,0,0,-1,0,405.04)" d="M.000010729 .000030518H720V405.04005H.000010729Z" fill-rule="evenodd"/>
</clipPath>
<clipPath id="clip_90">
<path transform="matrix(1,0,0,-1,0,405.04)" d="M.000010729 .000030518H720V405.04005H.000010729Z" fill-rule="evenodd"/>
</clipPath>
<clipPath id="clip_91">
<path transform="matrix(1,0,0,-1,0,405.04)" d="M.000010729 .000030518H720V405.04005H.000010729Z" fill-rule="evenodd"/>
</clipPath>
<clipPath id="clip_92">
<path transform="matrix(1,0,0,-1,0,405.04)" d="M.000010729 .000030518H720V405.04005H.000010729Z" fill-rule="evenodd"/>
</clipPath>
<clipPath id="clip_93">
<path transform="matrix(1,0,0,-1,0,405.04)" d="M.000010729 .000030518H720V405.04005H.000010729Z" fill-rule="evenodd"/>
</clipPath>
<clipPath id="clip_94">
<path transform="matrix(1,0,0,-1,0,405.04)" d="M.000010729 .000030518H720V405.04005H.000010729Z" fill-rule="evenodd"/>
</clipPath>
<clipPath id="clip_95">
<path transform="matrix(1,0,0,-1,0,405.04)" d="M.000010729 .000030518H720V405.04005H.000010729Z" fill-rule="evenodd"/>
</clipPath>
<clipPath id="clip_96">
<path transform="matrix(1,0,0,-1,0,405.04)" d="M.000010729 .000030518H720V405.04005H.000010729Z" fill-rule="evenodd"/>
</clipPath>
<clipPath id="clip_97">
<path transform="matrix(1,0,0,-1,0,405.04)" d="M.000010729 .000030518H720V405.04005H.000010729Z" fill-rule="evenodd"/>
</clipPath>
<clipPath id="clip_98">
<path transform="matrix(1,0,0,-1,0,405.04)" d="M.000010729 .000030518H720V405.04005H.000010729Z" fill-rule="evenodd"/>
</clipPath>
<clipPath id="clip_99">
<path transform="matrix(1,0,0,-1,0,405.04)" d="M.000010729 .000030518H720V405.04005H.000010729Z" fill-rule="evenodd"/>
</clipPath>
<clipPath id="clip_100">
<path transform="matrix(1,0,0,-1,0,405.04)" d="M.000010729 .000030518H720V405.04005H.000010729Z" fill-rule="evenodd"/>
</clipPath>
<clipPath id="clip_101">
<path transform="matrix(1,0,0,-1,0,405.04)" d="M.000010729 .000030518H720V405.04005H.000010729Z" fill-rule="evenodd"/>
</clipPath>
<clipPath id="clip_102">
<path transform="matrix(1,0,0,-1,0,405.04)" d="M.000010729 .000030518H720V405.04005H.000010729Z" fill-rule="evenodd"/>
</clipPath>
<clipPath id="clip_103">
<path transform="matrix(1,0,0,-1,0,405.04)" d="M.000010729 .000030518H720V405.04005H.000010729Z" fill-rule="evenodd"/>
</clipPath>
<clipPath id="clip_104">
<path transform="matrix(1,0,0,-1,0,405.04)" d="M.000010729 .000030518H720V405.04005H.000010729Z" fill-rule="evenodd"/>
</clipPath>
<clipPath id="clip_105">
<path transform="matrix(1,0,0,-1,0,405.04)" d="M.000010729 .000030518H720V405.04005H.000010729Z" fill-rule="evenodd"/>
</clipPath>
<clipPath id="clip_106">
<path transform="matrix(1,0,0,-1,0,405.04)" d="M.000010729 .000030518H720V405.04005H.000010729Z" fill-rule="evenodd"/>
</clipPath>
<clipPath id="clip_107">
<path transform="matrix(1,0,0,-1,0,405.04)" d="M.000010729 .000030518H720V405.04005H.000010729Z" fill-rule="evenodd"/>
</clipPath>
<clipPath id="clip_108">
<path transform="matrix(1,0,0,-1,0,405.04)" d="M.000010729 .000030518H720V405.04005H.000010729Z" fill-rule="evenodd"/>
</clipPath>
<clipPath id="clip_109">
<path transform="matrix(1,0,0,-1,0,405.04)" d="M.000010729 .000030518H720V405.04005H.000010729Z" fill-rule="evenodd"/>
</clipPath>
<clipPath id="clip_110">
<path transform="matrix(1,0,0,-1,0,405.04)" d="M.000010729 .000030518H720V405.04005H.000010729Z" fill-rule="evenodd"/>
</clipPath>
<clipPath id="clip_111">
<path transform="matrix(1,0,0,-1,0,405.04)" d="M.000010729 .000030518H720V405.04005H.000010729Z" fill-rule="evenodd"/>
</clipPath>
<clipPath id="clip_112">
<path transform="matrix(1,0,0,-1,0,405.04)" d="M.000010729 .000030518H720V405.04005H.000010729Z" fill-rule="evenodd"/>
</clipPath>
</defs>
<g>
<g clip-path="url(#clip_76)">
<path transform="matrix(1,0,0,-1,0,405.04)" d="M0 .000030518H720V405.04005H0Z" fill="#ffffff" fill-rule="evenodd"/>
</g>
<path transform="matrix(1,0,0,-1,0,405.04)" d="M0 319.92H5.3202V379.151H0Z" fill="#4285f4" fill-rule="evenodd"/>
<g clip-path="url(#clip_77)">
<text fill="#4285f4" xml:space="preserve" transform="matrix(1 0 -0 1 0 405.04)" font-size="13.833" font-family="Calibri"><tspan y="-202.64" x="40.788 47.884328 54.621 59.57321 66.29605 73.39239 77.279468 82.60517 89.32801 95.705028 102.427867 105.96912">Peran saya: </tspan></text>
</g>
<g clip-path="url(#clip_78)">
<text fill="#5f6368" xml:space="preserve" transform="matrix(1 0 -0 1 0 405.04)" font-size="12.083" font-family="Open Sans"><tspan y="-179.94" x="40.788 49.644838 56.387155 62.066167 68.78432 71.98631 79.40527 86.18384 91.1137 93.62696 102.4838 109.564449 112.403949 118.43336 125.151508 132.60672 139.33696 142.17647 153.51033 160.25264 165.18251 171.94899 179.36795 185.07114 191.78929 199.2445 205.97475 208.45177 215.16992 222.62512 225.80297 228.98079 235.34854 242.0667 247.7578 250.93563 253.06224 260.4812 267.94853 272.2138 279.63279 286.0247">Desainer UX yang merancang aplikasi untuk </tspan></text>
</g>
<g clip-path="url(#clip_79)">
<text fill="#5f6368" xml:space="preserve" transform="matrix(1 0 -0 1 0 405.04)" font-size="12.083" font-family="Open Sans"><tspan y="-158.28" x="40.788 48.219045 54.96136 59.891225 64.156528">berty</tspan></text>
</g>
<g clip-path="url(#clip_80)">
<text fill="#5f6368" xml:space="preserve" transform="matrix(1 0 -0 1 0 405.04)" font-size="12.083" font-family="Open Sans"><tspan y="-158.28" x="73.064 80.89378 87.67235 92.60221 97.56832 103.59774">Berry </tspan></text>
</g>
<g clip-path="url(#clip_81)">
<text fill="#5f6368" xml:space="preserve" transform="matrix(1 0 -0 1 0 405.04)" font-size="12.083" font-family="Open Sans"><tspan y="-158.28" x="106.43 117.763858 125.182819 128.39688 135.11504 138.31702 140.79404 148.22509 154.94324 159.92144 163.09926 165.57628 173.00733 179.74964 187.1686 193.25843 200.67739 206.3564 213.77536 221.24265 227.9608 235.41602 238.25553 244.62328 252.05432 259.4733 265.17646 271.91877">mulai dari penyusunan konsep</tspan></text>
</g>
<g clip-path="url(#clip_82)">
<text fill="#5f6368" xml:space="preserve" transform="matrix(1 0 -0 1 0 405.04)" font-size="12.083" font-family="Open Sans"><tspan y="-158.28" x="279.61 282.44734">, </tspan></text>
</g>
<g clip-path="url(#clip_83)">
<text fill="#5f6368" xml:space="preserve" transform="matrix(1 0 -0 1 0 405.04)" font-size="12.083" font-family="Open Sans"><tspan y="-136.62" x="40.788 45.71786 48.93194 54.61095 61.353269 65.61857 68.44599 75.87704 82.619358 90.038318 96.79271 103.52294 110.9419 118.409198">riset pengguna</tspan></text>
</g>
<g clip-path="url(#clip_84)">
<text fill="#5f6368" xml:space="preserve" transform="matrix(1 0 -0 1 0 405.04)" font-size="12.083" font-family="Open Sans"><tspan y="-136.62" x="125.23"> </tspan></text>
</g>
<g clip-path="url(#clip_85)">
<text fill="#5f6368" xml:space="preserve" transform="matrix(1 0 -0 1 0 405.04)" font-size="12.083" font-family="Open Sans"><tspan y="-136.62" x="127.71 135.16522 138.36722 145.82244 152.57685 159.33126 166.08567">hingga </tspan></text>
</g>
<g clip-path="url(#clip_86)">
<text fill="#5f6368" xml:space="preserve" transform="matrix(1 0 -0 1 0 405.04)" font-size="12.083" font-family="Open Sans"><tspan y="-136.62" x="168.52 172.78531 179.51555 184.44542 191.9127 198.65502 206.07398 210.33928 217.7945 224.16225 231.5812 237.67104 244.38919 246.86621 254.29726 261.03956 266.71855 273.43669 276.63868 284.05766">terbentuknya desain </tspan></text>
</g>
<g clip-path="url(#clip_87)">
<text fill="#5f6368" xml:space="preserve" transform="matrix(1 0 -0 1 0 405.04)" font-size="12.059" font-family="Open Sans"><tspan y="-115.32" x="40.788 47.4928 53.89613 61.336534 64.52011">akhir</tspan></text>
</g>
<g clip-path="url(#clip_88)">
<text fill="#5f6368" xml:space="preserve" transform="matrix(1 0 -0 1 0 405.04)" font-size="12.059" font-family="Open Sans"><tspan y="-115.32" x="69.517">.</tspan></text>
</g>
<g clip-path="url(#clip_89)">
<text fill="#5f6368" xml:space="preserve" transform="matrix(1 0 -0 1 0 405.04)" font-size="24.142" font-family="Open Sans"><tspan y="-333.8" x="40.788 47.523618 60.27059 75.14207 83.66419 89.67555 101.02229 114.445247 124.41589 130.45139 145.32286 155.22107 169.80284 181.82556 195.36923">Ikhtisar proyek</tspan></text>
</g>
<path transform="matrix(1,0,0,-1,0,405.04)" d="M40.788 263.88C40.788 275.05 49.84 284.1 61.005 284.1 72.17 284.1 81.222 275.05 81.222 263.88 81.222 252.72 72.17 243.67 61.005 243.67 49.84 243.67 40.788 252.72 40.788 263.88Z" fill="#4285f4" fill-rule="evenodd"/>
<g clip-path="url(#clip_90)">
<text fill="#4285f4" xml:space="preserve" transform="matrix(1 0 -0 1 0 405.04)" font-size="13.833" font-family="Calibri"><tspan y="-202.64" x="360.17 366.90669 373.62953 380.72587 387.1167 393.50755 400.60389 407.70024 414.09107 419.04328 422.2387 428.96156 438.85215 445.6165">Tanggung jawab</tspan></text>
</g>
<g clip-path="url(#clip_91)">
<text fill="#1967d2" xml:space="preserve" transform="matrix(1 0 -0 1 0 405.04)" font-size="13.833" font-family="Calibri"><tspan y="-202.64" x="452.78 456.32725">: </tspan></text>
</g>
<g clip-path="url(#clip_92)">
<text fill="#5f6368" xml:space="preserve" transform="matrix(1 0 -0 1 0 405.04)" font-size="12.083" font-family="Open Sans"><tspan y="-179.94" x="360.17 371.15348 377.89579 381.0736 387.79176 394.18367 401.60264 408.00663 414.72477 422.18 424.30659 429.23646 432.45054 438.12953 444.87184 449.13713 451.96455 459.3956 466.1379 473.5569 480.31129 487.0415 494.46049 501.9278">Melakukan riset pengguna</tspan></text>
</g>
<g clip-path="url(#clip_93)">
<text fill="#5f6368" xml:space="preserve" transform="matrix(1 0 -0 1 0 405.04)" font-size="12.083" font-family="Open Sans"><tspan y="-179.94" x="508.85 511.6895 514.52908 521.2472 528.7024 536.1334 539.3113 543.5766 546.05368 552.4214 559.8525 571.18637 578.6174 585.3597 589.625 592.7908 597.0561 600.22189 604.463">, audit kompetitif,</tspan></text>
</g>
<g clip-path="url(#clip_94)">
<text fill="#5f6368" xml:space="preserve" transform="matrix(1 0 -0 1 0 405.04)" font-size="12.083" font-family="Open Sans"><tspan y="-179.94" x="607.5"> </tspan></text>
</g>
<g clip-path="url(#clip_95)">
<text fill="#5f6368" xml:space="preserve" transform="matrix(1 0 -0 1 0 405.04)" font-size="12.083" font-family="Open Sans"><tspan y="-158.28" x="360.17 369.38935 376.10749 385.35099 392.06913 399.52436 405.20335 411.92149 416.8997 423.61784 426.4815">wawancara, </tspan></text>
</g>
<g clip-path="url(#clip_96)">
<text fill="#5f6368" xml:space="preserve" transform="matrix(1 0 -0 1 0 405.04)" font-size="12.083" font-family="Open Sans,Italic" font-style="italic"><tspan y="-158.28" x="429.73 438.24855 441.42637 446.04209 452.05943 455.61183 459.51466 465.54408 475.1259 477.6029 483.98274">wireframing</tspan></text>
</g>
<g clip-path="url(#clip_97)">
<text fill="#5f6368" xml:space="preserve" transform="matrix(1 0 -0 1 0 405.04)" font-size="12.083" font-family="Open Sans"><tspan y="-158.28" x="490.05"> </tspan></text>
</g>
<g clip-path="url(#clip_98)">
<text fill="#5f6368" xml:space="preserve" transform="matrix(1 0 -0 1 0 405.04)" font-size="12.083" font-family="Open Sans"><tspan y="-158.28" x="492.53 498.89775 505.64006 510.56993 514.8352 521.5896 527.2686 530.10818 537.5392 544.2573 551.7125 554.55209 561.9831 565.16098 571.8912 575.06906 579.33438 586.0525 589.24246 592.0819">kertas dan digital, </tspan></text>
</g>
<g clip-path="url(#clip_99)">
<text fill="#5f6368" xml:space="preserve" transform="matrix(1 0 -0 1 0 405.04)" font-size="12.083" font-family="Open Sans"><tspan y="-136.62" x="360.17 371.50386 378.24617 389.58 397.01106 404.43003 411.18443 415.4497 417.92674 425.3578 430.28767 437.75495 442.02024 449.45127 453.71656 456.8823 464.31336 471.05567">membuat prototipe </tspan></text>
</g>
<g clip-path="url(#clip_100)">
<text fill="#5f6368" xml:space="preserve" transform="matrix(1 0 -0 1 0 405.04)" font-size="12.083" font-family="Open Sans,Italic" font-style="italic"><tspan y="-136.62" x="473.36 476.56199 483.34056">low</tspan></text>
</g>
<g clip-path="url(#clip_101)">
<text fill="#5f6368" xml:space="preserve" transform="matrix(1 0 -0 1 0 405.04)" font-size="12.083" font-family="Open Sans,Italic" font-style="italic"><tspan y="-136.62" x="491.82">-</tspan></text>
</g>
<g clip-path="url(#clip_102)">
<text fill="#5f6368" xml:space="preserve" transform="matrix(1 0 -0 1 0 405.04)" font-size="12.083" font-family="Open Sans,Italic" font-style="italic"><tspan y="-136.62" x="495.72 499.2724 501.74943 508.12925 513.8083 516.6478 519.48739 523.4023">fidelity</tspan></text>
</g>
<g clip-path="url(#clip_103)">
<text fill="#5f6368" xml:space="preserve" transform="matrix(1 0 -0 1 0 405.04)" font-size="12.083" font-family="Open Sans"><tspan y="-136.62" x="528.73"> </tspan></text>
</g>
<g clip-path="url(#clip_104)">
<text fill="#5f6368" xml:space="preserve" transform="matrix(1 0 -0 1 0 405.04)" font-size="12.083" font-family="Open Sans"><tspan y="-136.62" x="530.86 538.291 545.00918 552.46438">dan </tspan></text>
</g>
<g clip-path="url(#clip_105)">
<text fill="#5f6368" xml:space="preserve" transform="matrix(1 0 -0 1 0 405.04)" font-size="12.083" font-family="Open Sans,Italic" font-style="italic"><tspan y="-136.62" x="555.33 562.41067 565.2502 570.9292">high</tspan></text>
</g>
<g clip-path="url(#clip_106)">
<text fill="#5f6368" xml:space="preserve" transform="matrix(1 0 -0 1 0 405.04)" font-size="12.083" font-family="Open Sans,Italic" font-style="italic"><tspan y="-136.62" x="577.7">-</tspan></text>
</g>
<g clip-path="url(#clip_107)">
<text fill="#5f6368" xml:space="preserve" transform="matrix(1 0 -0 1 0 405.04)" font-size="12.083" font-family="Open Sans,Italic" font-style="italic"><tspan y="-136.62" x="581.25 584.8024 587.2795 593.6593 599.3383 602.17788 605.0174 608.9323">fidelity</tspan></text>
</g>
<g clip-path="url(#clip_108)">
<text fill="#5f6368" xml:space="preserve" transform="matrix(1 0 -0 1 0 405.04)" font-size="12.083" font-family="Open Sans"><tspan y="-136.62" x="614.23 617.0673">, </tspan></text>
</g>
<g clip-path="url(#clip_109)">
<text fill="#5f6368" xml:space="preserve" transform="matrix(1 0 -0 1 0 405.04)" font-size="12.059" font-family="Open Sans"><tspan y="-115.32" x="360.17 371.50547 378.27058 381.43003 388.13484 394.53816 401.97856 408.34568 415.05049 422.515 424.6374 430.31718 434.574 442.0144 449.45484 452.63844">melakukan studi </tspan></text>
</g>
<g clip-path="url(#clip_110)">
<text fill="#5f6368" xml:space="preserve" transform="matrix(1 0 -0 1 0 405.04)" font-size="12.059" font-family="Open Sans,Italic" font-style="italic"><tspan y="-115.32" x="455.62 462.36097 467.32929 473.35877 479.73799 482.57185 485.056 487.88987 491.79698">usability</tspan></text>
</g>
<g clip-path="url(#clip_111)">
<text fill="#5f6368" xml:space="preserve" transform="matrix(1 0 -0 1 0 405.04)" font-size="12.059" font-family="Open Sans"><tspan y="-115.32" x="497.14 499.9739 502.45808 513.7935 520.5586 531.86996 539.3103 546.0754 550.9954 558.4479 561.6314 565.88827 573.3287 580.7691 587.49807 593.5276 600.2324 607.69699">, memperhitungkan </tspan></text>
</g>
<g clip-path="url(#clip_112)">
<text fill="#5f6368" xml:space="preserve" transform="matrix(1 0 -0 1 0 405.04)" font-size="12.059" font-family="Open Sans"><tspan y="-93.659" x="360.17 366.87483 373.27815 378.95793 385.72303 391.36665 394.55024 401.99067 405.17427 408.35786 411.54145 415.79829 422.50309 428.20698 431.04087 433.52503 440.96546 447.67027 455.1348 457.96867 469.3041 476.0692 479.22868 485.93348 492.3368 499.7772 506.14433 512.8491 520.31369 522.0863 525.26986 529.5267 536.29177 541.2118 547.9528 553.6326 556.81619 559.65 567.0904 573.85549 579.4991 586.2039 589.42367 596.8641">aksesibilitas, dan melakukan iterasi desain.</tspan></text>
</g>
<path transform="matrix(1,0,0,-1,0,405.04)" d="M360 263.88C360 275.05 369.05 284.1 380.22 284.1 391.38 284.1 400.43 275.05 400.43 263.88 400.43 252.72 391.38 243.67 380.22 243.67 369.05 243.67 360 252.72 360 263.88Z" fill="#4285f4" fill-rule="evenodd"/>
<path transform="matrix(1,0,0,-1,0,405.04)" d="M60.944 264.07C63.821 264.07 66.069 266.36 66.069 269.11 66.069 271.95 63.749 274.17 60.944 274.17 58.165 274.17 55.844 271.88 55.844 269.11 55.771 266.36 58.092 264.07 60.944 264.07ZM60.944 261.56C57.536 261.56 50.719 259.89 50.719 256.55V253.97H71.266V256.55C71.194 259.82 64.353 261.56 60.944 261.56Z" fill="#ffffff" fill-rule="evenodd"/>
<path transform="matrix(1,0,0,-1,0,405.04)" d="M368.87 262.81H371.4V265.26H368.87V262.81ZM368.87 257.88H371.4V260.33H368.87V257.88ZM368.87 267.79H371.4V270.27H368.87V267.79ZM373.91 262.81H391.54V265.26H373.91V262.81ZM373.91 257.88H391.54V260.33H373.91V257.88ZM373.91 270.27V267.79H391.54V270.27H373.91Z" fill="#ffffff" fill-rule="evenodd"/>
</g>
</svg>
