<svg xmlns="http://www.w3.org/2000/svg" xmlns:xlink="http://www.w3.org/1999/xlink" version="1.1" width="720pt" height="405.04pt" viewBox="0 0 720 405.04">
<defs>
<clipPath id="clip_156">
<path transform="matrix(1,0,0,-1,0,405.04)" d="M0 .000061035H720V405.04008H0Z" fill-rule="evenodd"/>
</clipPath>
<clipPath id="clip_157">
<path transform="matrix(1,0,0,-1,0,405.04)" d="M.000010729 .000030518H720V405.04005H.000010729Z" fill-rule="evenodd"/>
</clipPath>
<clipPath id="clip_158">
<path transform="matrix(1,0,0,-1,0,405.04)" d="M.000010729 .000030518H720V405.04005H.000010729Z" fill-rule="evenodd"/>
</clipPath>
<clipPath id="clip_159">
<path transform="matrix(1,0,0,-1,0,405.04)" d="M.000010729 .000030518H720V405.04005H.000010729Z" fill-rule="evenodd"/>
</clipPath>
<clipPath id="clip_160">
<path transform="matrix(1,0,0,-1,0,405.04)" d="M.000010729 .000030518H720V405.04005H.000010729Z" fill-rule="evenodd"/>
</clipPath>
<clipPath id="clip_161">
<path transform="matrix(1,0,0,-1,0,405.04)" d="M.000010729 .000030518H720V405.04005H.000010729Z" fill-rule="evenodd"/>
</clipPath>
<clipPath id="clip_162">
<path transform="matrix(1,0,0,-1,0,405.04)" d="M.000010729 .000030518H720V405.04005H.000010729Z" fill-rule="evenodd"/>
</clipPath>
<clipPath id="clip_163">
<path transform="matrix(1,0,0,-1,0,405.04)" d="M.000010729 .000030518H720V405.04005H.000010729Z" fill-rule="evenodd"/>
</clipPath>
<clipPath id="clip_164">
<path transform="matrix(1,0,0,-1,0,405.04)" d="M.000010729 .000030518H720V405.04005H.000010729Z" fill-rule="evenodd"/>
</clipPath>
<clipPath id="clip_165">
<path transform="matrix(1,0,0,-1,0,405.04)" d="M.000010729 .000030518H720V405.04005H.000010729Z" fill-rule="evenodd"/>
</clipPath>
<clipPath id="clip_166">
<path transform="matrix(1,0,0,-1,0,405.04)" d="M.000010729 .000030518H720V405.04005H.000010729Z" fill-rule="evenodd"/>
</clipPath>
<clipPath id="clip_167">
<path transform="matrix(1,0,0,-1,0,405.04)" d="M.000010729 .000030518H720V405.04005H.000010729Z" fill-rule="evenodd"/>
</clipPath>
<clipPath id="clip_168">
<path transform="matrix(1,0,0,-1,0,405.04)" d="M.000010729 .000030518H720V405.04005H.000010729Z" fill-rule="evenodd"/>
</clipPath>
<clipPath id="clip_169">
<path transform="matrix(1,0,0,-1,0,405.04)" d="M.000010729 .000030518H720V405.04005H.000010729Z" fill-rule="evenodd"/>
</clipPath>
<clipPath id="clip_170">
<path transform="matrix(1,0,0,-1,0,405.04)" d="M.000010729 .000030518H720V405.04005H.000010729Z" fill-rule="evenodd"/>
</clipPath>
<clipPath id="clip_171">
<path transform="matrix(1,0,0,-1,0,405.04)" d="M.000010729 .000030518H720V405.04005H.000010729Z" fill-rule="evenodd"/>
</clipPath>
<clipPath id="clip_172">
<path transform="matrix(1,0,0,-1,0,405.04)" d="M.000010729 .000030518H720V405.04005H.000010729Z" fill-rule="evenodd"/>
</clipPath>
<clipPath id="clip_173">
<path transform="matrix(1,0,0,-1,0,405.04)" d="M.000010729 .000030518H720V405.04005H.000010729Z" fill-rule="evenodd"/>
</clipPath>
<clipPath id="clip_174">
<path transform="matrix(1,0,0,-1,0,405.04)" d="M.000010729 .000030518H720V405.04005H.000010729Z" fill-rule="evenodd"/>
</clipPath>
<clipPath id="clip_175">
<path transform="matrix(1,0,0,-1,0,405.04)" d="M.000010729 .000030518H720V405.04005H.000010729Z" fill-rule="evenodd"/>
</clipPath>
<clipPath id="clip_176">
<path transform="matrix(1,0,0,-1,0,405.04)" d="M.000010729 .000030518H720V405.04005H.000010729Z" fill-rule="evenodd"/>
</clipPath>
<clipPath id="clip_177">
<path transform="matrix(1,0,0,-1,0,405.04)" d="M.000010729 .000030518H720V405.04005H.000010729Z" fill-rule="evenodd"/>
</clipPath>
<clipPath id="clip_178">
<path transform="matrix(1,0,0,-1,0,405.04)" d="M.000010729 .000030518H720V405.04005H.000010729Z" fill-rule="evenodd"/>
</clipPath>
<clipPath id="clip_179">
<path transform="matrix(1,0,0,-1,0,405.04)" d="M.000010729 .000030518H720V405.04005H.000010729Z" fill-rule="evenodd"/>
</clipPath>
<clipPath id="clip_180">
<path transform="matrix(1,0,0,-1,0,405.04)" d="M.000010729 .000030518H720V405.04005H.000010729Z" fill-rule="evenodd"/>
</clipPath>
<clipPath id="clip_181">
<path transform="matrix(1,0,0,-1,0,405.04)" d="M.000010729 .000030518H720V405.04005H.000010729Z" fill-rule="evenodd"/>
</clipPath>
<clipPath id="clip_182">
<path transform="matrix(1,0,0,-1,0,405.04)" d="M.000010729 .000030518H720V405.04005H.000010729Z" fill-rule="evenodd"/>
</clipPath>
<clipPath id="clip_183">
<path transform="matrix(1,0,0,-1,0,405.04)" d="M.000010729 .000030518H720V405.04005H.000010729Z" fill-rule="evenodd"/>
</clipPath>
<clipPath id="clip_184">
<path transform="matrix(1,0,0,-1,0,405.04)" d="M.000010729 .000030518H720V405.04005H.000010729Z" fill-rule="evenodd"/>
</clipPath>
<clipPath id="clip_185">
<path transform="matrix(1,0,0,-1,0,405.04)" d="M.000010729 .000030518H720V405.04005H.000010729Z" fill-rule="evenodd"/>
</clipPath>
<clipPath id="clip_186">
<path transform="matrix(1,0,0,-1,0,405.04)" d="M.000010729 .000030518H720V405.04005H.000010729Z" fill-rule="evenodd"/>
</clipPath>
<clipPath id="clip_187">
<path transform="matrix(1,0,0,-1,0,405.04)" d="M.000010729 .000030518H720V405.04005H.000010729Z" fill-rule="evenodd"/>
</clipPath>
</defs>
<g>
<g clip-path="url(#clip_156)">
<path transform="matrix(1,0,0,-1,0,405.04)" d="M0 .000030518H720V405.04005H0Z" fill="#ffffff" fill-rule="evenodd"/>
</g>
<path transform="matrix(1,0,0,-1,0,405.04)" d="M0 319.92H5.3202V379.151H0Z" fill="#ea4335" fill-rule="evenodd"/>
<g clip-path="url(#clip_157)">
<text fill="#5f6368" xml:space="preserve" transform="matrix(1 0 -0 1 0 405.04)" font-size="24.142" font-family="Open Sans"><tspan y="-333.8" x="40.788 55.707757 61.719114 73.06586 86.60952 95.05922 101.40856 116.28004 129.8237 144.64688 157.78012 170.91336 185.78482 200.65628 214.07924 220.501 226.19852 241.06999 255.65177 261.639">Riset pengguna: poin</tspan></text>
</g>
<g clip-path="url(#clip_158)">
<text fill="#5f6368" xml:space="preserve" transform="matrix(1 0 -0 1 0 405.04)" font-size="24.142" font-family="Open Sans"><tspan y="-333.8" x="276.74">-</tspan></text>
</g>
<g clip-path="url(#clip_159)">
<text fill="#5f6368" xml:space="preserve" transform="matrix(1 0 -0 1 0 405.04)" font-size="24.142" font-family="Open Sans"><tspan y="-333.8" x="284.57 299.44148 314.02323 320.01048 334.88194 343.74205 352.26417 358.29969 366.8218 372.8332 385.58018 391.25355 413.60905 427.03199 438.42704 451.84999 457.95793 471.38087">poin/titik masalah</tspan></text>
</g>
<g clip-path="url(#clip_160)">
<text fill="#ea4335" xml:space="preserve" transform="matrix(1 0 -0 1 0 405.04)" font-size="13.833" font-family="Calibri"><tspan y="-220.71" x="93.092 105.486377 112.20921 118.58623">Wakt</tspan></text>
</g>
<g clip-path="url(#clip_161)">
<text fill="#ea4335" xml:space="preserve" transform="matrix(1 0 -0 1 0 405.04)" font-size="13.833" font-family="Calibri"><tspan y="-220.71" x="123.26">u</tspan></text>
</g>
<g clip-path="url(#clip_162)">
<text fill="#5f6368" xml:space="preserve" transform="matrix(1 0 -0 1 0 405.04)" font-size="12.059" font-family="Open Sans"><tspan y="-186.61" x="35.894 43.708234 50.437154 57.877557 64.642658 69.56273 76.30371 83.74411 90.44891 92.969249 100.40965 105.365909 112.07071 119.53523 126.26415">Beberapa orang </tspan></text>
</g>
<g clip-path="url(#clip_163)">
<text fill="#5f6368" xml:space="preserve" transform="matrix(1 0 -0 1 0 405.04)" font-size="12.059" font-family="Open Sans"><tspan y="-186.61" x="129.22 133.47682 136.6604 144.1008 150.8056 157.20894 159.6931 167.1335 174.5739 182.0143 188.04381 194.74861">tidak punya </tspan></text>
</g>
<g clip-path="url(#clip_164)">
<text fill="#5f6368" xml:space="preserve" transform="matrix(1 0 -0 1 0 405.04)" font-size="12.083" font-family="Open Sans"><tspan y="-169.94" x="65.71 74.92933 81.64748 88.03938 92.30468 99.72364">waktu </tspan></text>
</g>
<g clip-path="url(#clip_165)">
<text fill="#5f6368" xml:space="preserve" transform="matrix(1 0 -0 1 0 405.04)" font-size="12.083" font-family="Open Sans"><tspan y="-169.94" x="102.6 113.93385 120.67617 123.854 130.57215 136.96405 144.38301 150.787 157.50516 164.96038">melakukan </tspan></text>
</g>
<g clip-path="url(#clip_166)">
<text fill="#5f6368" xml:space="preserve" transform="matrix(1 0 -0 1 0 405.04)" font-size="12.059" font-family="Open Sans"><tspan y="-153.6" x="40.15 47.590406 54.355504 65.66685 72.431949 78.07556 84.780368 92.24489 98.94969 106.414218 108.89837 115.265529 122.70593 129.47104 132.28079 139.72119 147.16159 151.41841 158.85881 165.22597 168.05985 175.50025 182.20505 187.19748 190.38106">pemesanan kue untuk hari </tspan></text>
</g>
<g clip-path="url(#clip_167)">
<text fill="#5f6368" xml:space="preserve" transform="matrix(1 0 -0 1 0 405.04)" font-size="12.083" font-family="Open Sans"><tspan y="-136.93" x="53.628 59.30701 66.73805 73.48037 79.15938 82.337207 89.05535 92.25735 95.09685 106.4307 113.17302 118.10288 124.88145 131.24919 137.96735 140.46854 146.14756 152.88986 158.56888 165.28704 170.26523 176.98339">spesial mereka secara </tspan></text>
</g>
<g clip-path="url(#clip_168)">
<text fill="#5f6368" xml:space="preserve" transform="matrix(1 0 -0 1 0 405.04)" font-size="12.083" font-family="Open Sans"><tspan y="-120.24" x="53.273 56.45083 63.168977 70.62418 77.354419 83.033428 90.452388 97.91968 104.64991 107.12692 114.55796 117.73579 124.10352 130.82167 135.79987 142.54218 149.96114 156.71555 163.0833 169.80146 177.25667">langsung dikarenakan </tspan></text>
</g>
<g clip-path="url(#clip_169)">
<text fill="#5f6368" xml:space="preserve" transform="matrix(1 0 -0 1 0 405.04)" font-size="12.059" font-family="Open Sans"><tspan y="-103.9" x="76.705 83.07216 89.83726 95.48087 98.66445 106.10485 113.54526 119.912418 126.61722 134.08173 141.52213 147.55162">kesibukannya</tspan></text>
</g>
<g clip-path="url(#clip_170)">
<text fill="#5f6368" xml:space="preserve" transform="matrix(1 0 -0 1 0 405.04)" font-size="12.059" font-family="Open Sans"><tspan y="-186.61" x="280.39 286.75715 294.19755 299.15379 305.85859 313.32313 320.05204 322.5362 325.7198 332.4849 335.64436 342.34916 348.05305 355.49345 361.52293 368.22773 370.74806 378.18849 381.37208 384.55567 387.73927 395.17967 401.88447 409.349">kurang jelasnya pilihan </tspan></text>
</g>
<g clip-path="url(#clip_171)">
<text fill="#5f6368" xml:space="preserve" transform="matrix(1 0 -0 1 0 405.04)" font-size="12.083" font-family="Open Sans"><tspan y="-169.94" x="271.16 282.49385 289.23616 293.50144 300.93247 308.36354 315.10585 317.58287 325.01393 331.75624 343.09007 350.52113 357.23927 363.29286 370.011 374.9892 381.70735 389.16258 391.6396 397.669 404.38716 411.84239 418.5726">metode pembayaran yang </tspan></text>
</g>
<g clip-path="url(#clip_172)">
<text fill="#5f6368" xml:space="preserve" transform="matrix(1 0 -0 1 0 405.04)" font-size="12.059" font-family="Open Sans"><tspan y="-153.6" x="298.12 305.56044 312.26524 319.72978 326.43458 330.6914 333.56147 341.0019 344.1855 347.36909 354.07389 360.4772 367.9176 374.28474 380.98954">dapat dilakukan</tspan></text>
</g>
<g clip-path="url(#clip_173)">
<text fill="#5f6368" xml:space="preserve" transform="matrix(1 0 -0 1 0 405.04)" font-size="12.059" font-family="Open Sans"><tspan y="-153.6" x="388.61">.</tspan></text>
</g>
<g clip-path="url(#clip_174)">
<text fill="#ea4335" xml:space="preserve" transform="matrix(1 0 -0 1 0 405.04)" font-size="13.833" font-family="Calibri"><tspan y="-220.71" x="520.27 526.6194 531.2534 537.9901 542.62417 549.6928">Status</tspan></text>
</g>
<g clip-path="url(#clip_175)">
<text fill="#ea4335" xml:space="preserve" transform="matrix(1 0 -0 1 0 405.04)" font-size="13.833" font-family="Calibri"><tspan y="-220.71" x="558.95 565.6867 572.4234 577.3756 583.7526 586.9342 594.0444">Terkini</tspan></text>
</g>
<g clip-path="url(#clip_176)">
<text fill="#ea4335" xml:space="preserve" transform="matrix(1 0 -0 1 0 405.04)" font-size="13.833" font-family="Calibri"><tspan y="-220.71" x="601.16 608.31167 615.0345 620.36019 627.1107 634.23477">Pesana</tspan></text>
</g>
<g clip-path="url(#clip_177)">
<text fill="#ea4335" xml:space="preserve" transform="matrix(1 0 -0 1 0 405.04)" font-size="13.833" font-family="Calibri"><tspan y="-220.71" x="640.91">n</tspan></text>
</g>
<g clip-path="url(#clip_178)">
<text fill="#5f6368" xml:space="preserve" transform="matrix(1 0 -0 1 0 405.04)" font-size="12.059" font-family="Open Sans"><tspan y="-186.61" x="506.34 513.7804 520.5455 527.9497 534.6907 541.4196 548.86007 556.3005 563.0053 565.52566 569.7825 572.966 580.4064 587.1112 593.5145 595.99868 603.439 606.62258 612.30239 619.0072 621.8772 633.21267 639.9777 643.13717 649.842 655.5821 662.2869 668.66616">pengguna tidak bisa melacak </tspan></text>
</g>
<g clip-path="url(#clip_179)">
<text fill="#5f6368" xml:space="preserve" transform="matrix(1 0 -0 1 0 405.04)" font-size="12.083" font-family="Open Sans"><tspan y="-169.94" x="489.67 497.10108 503.84339 509.52238 516.24057 523.69577 530.4139 537.8691 540.7086 552.0425 558.7848 563.71469 570.4932 576.86099 583.5791 586.44277 589.2823 594.9613 601.7036 609.12258 612.3367 619.7556 626.51 633.24026 639.9584 642.4596 653.79348 660.53579 665.46566 672.2442 678.61196 685.3301">pesanan mereka, sehingga mereka </tspan></text>
</g>
<g clip-path="url(#clip_180)">
<text fill="#5f6368" xml:space="preserve" transform="matrix(1 0 -0 1 0 405.04)" font-size="12.059" font-family="Open Sans"><tspan y="-153.6" x="495.35 502.7904 509.4952 514.4876 521.92807 527.60787 530.4417 536.1215 542.8866 546.046 552.75088 560.2154 563.04928 574.3847 581.1498 588.554 595.29507 602.7355 608.765 615.46987 621.87319 628.578 636.04257 638.1649 644.5321 651.2972 658.68936 665.4424 672.88278 679.5876">harus selau menanyakan kepada </tspan></text>
</g>
<g clip-path="url(#clip_181)">
<text fill="#5f6368" xml:space="preserve" transform="matrix(1 0 -0 1 0 405.04)" font-size="12.083" font-family="Open Sans"><tspan y="-136.93" x="499.25 506.68107 513.42337 520.8423 524.0564 531.47537 538.22976 541.4076 543.88467 555.2185 561.9608 569.37979 576.13418 582.87649 590.2954 597.0498 600.22769 602.3543 608.0333 612.29867 619.0168 623.2821 630.70108 636.40426 639.5821 643.8474 650.57766 655.5075 661.9115 665.08938 672.5083 675.7224">penjual mengenai status terkini </tspan></text>
</g>
<g clip-path="url(#clip_182)">
<text fill="#5f6368" xml:space="preserve" transform="matrix(1 0 -0 1 0 405.04)" font-size="12.083" font-family="Open Sans"><tspan y="-120.24" x="539 546.431 553.17337 558.85238 565.5705 573.0257 579.74386 587.19906 590.0386 601.37246 608.11477 613.0446 619.8232 626.1909">pesanan mereka</tspan></text>
</g>
<g clip-path="url(#clip_183)">
<text fill="#5f6368" xml:space="preserve" transform="matrix(1 0 -0 1 0 405.04)" font-size="12.083" font-family="Open Sans"><tspan y="-120.24" x="633.01">.</tspan></text>
</g>
<path transform="matrix(1,0,0,-1,0,405.04)" d="M95.054 275.94C95.054 287.11 104.11 296.16 115.27 296.16 126.44 296.16 135.49 287.11 135.49 275.94 135.49 264.78 126.44 255.72 115.27 255.72 104.11 255.72 95.054 264.78 95.054 275.94Z" fill="#ea4335" fill-rule="evenodd"/>
<g clip-path="url(#clip_184)">
<text fill="#ffffff" xml:space="preserve" transform="matrix(1 0 -0 1 0 405.04)" font-size="22.014" font-family="1"><tspan y="-268.87" x="110.73">1</tspan></text>
</g>
<path transform="matrix(1,0,0,-1,0,405.04)" d="M335.17 275.94C335.17 287.11 344.22 296.16 355.39 296.16 366.55 296.16 375.61 287.11 375.61 275.94 375.61 264.78 366.55 255.72 355.39 255.72 344.22 255.72 335.17 264.78 335.17 275.94Z" fill="#ea4335" fill-rule="evenodd"/>
<g clip-path="url(#clip_185)">
<text fill="#ffffff" xml:space="preserve" transform="matrix(1 0 -0 1 0 405.04)" font-size="22.014" font-family="1"><tspan y="-268.87" x="349.55">2</tspan></text>
</g>
<path transform="matrix(1,0,0,-1,0,405.04)" d="M566.42 275.94C566.42 287.11 575.47 296.16 586.64 296.16 597.81 296.16 606.86 287.11 606.86 275.94 606.86 264.78 597.81 255.72 586.64 255.72 575.47 255.72 566.42 264.78 566.42 275.94Z" fill="#ea4335" fill-rule="evenodd"/>
<g clip-path="url(#clip_186)">
<text fill="#ffffff" xml:space="preserve" transform="matrix(1 0 -0 1 0 405.04)" font-size="22.014" font-family="1"><tspan y="-268.87" x="580.75">3</tspan></text>
</g>
<g clip-path="url(#clip_187)">
<text fill="#ea4335" xml:space="preserve" transform="matrix(1 0 -0 1 0 405.04)" font-size="13.833" font-family="Calibri"><tspan y="-221.27" x="269.77 276.86634 280.0479 283.2295 286.41108 293.53507 300.2579 307.35426 311.2413 322.944 329.68067 334.31474 341.72923 348.82557 355.56224 359.80897 366.9053 373.64198 384.63923 391.73558 398.4584 404.83543 411.55827 416.5105 423.23335">Pilihan Metode Pembayaran</tspan></text>
</g>
</g>
</svg>
