<svg xmlns="http://www.w3.org/2000/svg" xmlns:xlink="http://www.w3.org/1999/xlink" version="1.1" width="720pt" height="405.04pt" viewBox="0 0 720 405.04">
<defs>
<clipPath id="clip_533">
<path transform="matrix(1,0,0,-1,0,405.04)" d="M0 .000061035H720V405.04008H0Z" fill-rule="evenodd"/>
</clipPath>
<clipPath id="clip_534">
<path transform="matrix(1,0,0,-1,0,405.04)" d="M.000010729 .000030518H720V405.04005H.000010729Z" fill-rule="evenodd"/>
</clipPath>
<clipPath id="clip_535">
<path transform="matrix(1,0,0,-1,0,405.04)" d="M.000010729 .000030518H720V405.04005H.000010729Z" fill-rule="evenodd"/>
</clipPath>
<clipPath id="clip_536">
<path transform="matrix(1,0,0,-1,0,405.04)" d="M.000010729 .000030518H720V405.04005H.000010729Z" fill-rule="evenodd"/>
</clipPath>
<clipPath id="clip_537">
<path transform="matrix(1,0,0,-1,0,405.04)" d="M.000010729 .000030518H720V405.04005H.000010729Z" fill-rule="evenodd"/>
</clipPath>
<clipPath id="clip_538">
<path transform="matrix(1,0,0,-1,0,405.04)" d="M.000010729 .000030518H720V405.04005H.000010729Z" fill-rule="evenodd"/>
</clipPath>
<clipPath id="clip_539">
<path transform="matrix(1,0,0,-1,0,405.04)" d="M.000010729 .000030518H720V405.04005H.000010729Z" fill-rule="evenodd"/>
</clipPath>
<clipPath id="clip_540">
<path transform="matrix(1,0,0,-1,0,405.04)" d="M.000010729 .000030518H720V405.04005H.000010729Z" fill-rule="evenodd"/>
</clipPath>
</defs>
<g>
<g clip-path="url(#clip_533)">
<path transform="matrix(1,0,0,-1,0,405.04)" d="M0 .000030518H720V405.04005H0Z" fill="#ffffff" fill-rule="evenodd"/>
</g>
<path transform="matrix(1,0,0,-1,0,405.04)" d="M0 319.92H5.3202V379.151H0Z" fill="#9aa0a6" fill-rule="evenodd"/>
<g clip-path="url(#clip_534)">
<text fill="#5f6368" xml:space="preserve" transform="matrix(1 0 -0 1 0 405.04)" font-size="24.142" font-family="Open Sans"><tspan y="-333.8" x="40.788 62.41923 75.842189 85.812839 91.848339 97.88384 106.40597 119.877208 129.77542 144.64688 159.51834 174.38982 189.26129 204.13275 217.26599">Mari terhubung.</tspan></text>
</g>
<path transform="matrix(1,0,0,-1,0,405.04)" d="M40.788 63.133H665.73806V260.693H40.788Z" fill="#f8f9fa" fill-rule="evenodd"/>
<g clip-path="url(#clip_535)">
<text fill="#5f6368" xml:space="preserve" transform="matrix(1 0 -0 1 0 405.04)" font-size="12.083" font-family="Open Sans"><tspan y="-191.41" x="77.415 84.14523 90.88755 95.81741 99.031497 110.36535 117.083499 119.58468 125.952419 132.67057 138.36167 141.5395 148.95847 151.47174 158.1899 162.4552 169.17336 174.87654 178.05438 187.27371 193.99187 200.38378 204.64908 212.06804 214.93172 222.72525 230.14421 237.6115 244.32965 247.19333 258.52717 265.26948 272.68846 275.90254 283.3215 286.53559 293.25373 300.70896 302.83555 310.2666 317.0089 323.37666 330.11897 335.04884 338.2629 344.98106 351.72337 359.14234 361.30519 366.98417 373.7023 379.7559 386.47404 389.67604 397.095 404.56233 408.8276 416.24659 422.6385 425.478 432.19615 439.65138 442.8292 446.00703 452.37477 459.0929 464.78398 467.9618">Terima kasih atas waktu Anda meninjau pekerjaan saya untuk aplikasi </tspan></text>
</g>
<g clip-path="url(#clip_536)">
<text fill="#5f6368" xml:space="preserve" transform="matrix(1 0 -0 1 0 405.04)" font-size="12.083" font-family="Open Sans"><tspan y="-191.41" x="470.59 478.41978 485.1379 490.06779 494.33308 500.4229 503.22618 511.05595 517.77407 522.7039 527.6942">Berty Berry</tspan></text>
</g>
<g clip-path="url(#clip_537)">
<text fill="#5f6368" xml:space="preserve" transform="matrix(1 0 -0 1 0 405.04)" font-size="12.083" font-family="Open Sans"><tspan y="-191.41" x="533.75 536.97616 539.7794 543.00558 546.14718 552.5149 559.23306 562.09677 569.8903 577.30929 584.77658 591.4947 594.3584 597.53628 604.9552 611.7096 614.88748 622.3064">! Jika Anda ingin </tspan></text>
</g>
<g clip-path="url(#clip_538)">
<text fill="#5f6368" xml:space="preserve" transform="matrix(1 0 -0 1 0 405.04)" font-size="12.059" font-family="Open Sans"><tspan y="-174.72" x="107.21 118.56957 125.33467 128.5062 131.68978 139.15428 145.90732 150.16414 152.6483 155.83188 162.59699 170.04944 173.23302 180.69753 183.18169 186.36527 193.1183 200.58281 203.76639 211.2309 215.48772 217.97188 224.72492 228.98174 235.73477 243.19928 246.03316 257.39274 264.15785 271.61033 278.36338 285.8279 293.29246 300.757 308.22154 315.68608 322.43913 325.6227 327.7451 334.13636 340.8894 352.249 355.4326 358.26649 360.75065 363.93424 371.39878 375.64356 383.10807 388.0643 399.4239 406.17695 411.85673 415.0403 417.1627 423.55397 431.01847 438.483 442.73985 449.4929 455.88417 458.36833 465.83287 469.01646 474.69624 481.46134 488.91383 492.0974 498.85047 505.24174 511.99479 519.4593 521.58169 529.04617 532.2297 535.06356 542.528 549.28109 558.53036 565.2834 572.7479 575.5818 578.7653 586.22988 589.4134">melihat lebih lanjut atau menghubungi kami, informasi kontak disediakan di bawah ini.</tspan></text>
</g>
<g clip-path="url(#clip_539)">
<text fill="#5f6368" xml:space="preserve" transform="matrix(1 0 -0 1 0 405.04)" font-size="12.083" font-family="Open Sans"><tspan y="-141.71" x="267.26 273.97816 285.33616 292.0543 295.2563 298.4341 301.6482">Email: </tspan></text>
</g>
<g clip-path="url(#clip_540)">
<text fill="#4285f4" xml:space="preserve" transform="matrix(1 0 -0 1 0 405.04)" font-size="12.083" font-family="Open Sans"><tspan y="-141.71" x="304.15 308.41529 315.83427 320.81248 327.55479 334.2971 339.97608 343.1539 349.87205 356.62644 363.36875 374.37635 381.10658 392.46458 399.1827 402.3847 405.2242 408.4383 414.09315 421.52418">threecia22@gmail.com</tspan></text>
</g>
<path transform="matrix(1,0,0,-1,0,405.04)" d="M304.01 140.16H432.40003V140.86936H304.01Z" fill="#4285f4" fill-rule="evenodd"/>
<path transform="matrix(1,0,0,-1,0,405.04)" d="M333.04 258.56C333.04 269.73 342.1 278.78 353.26 278.78 364.43 278.78 373.48 269.73 373.48 258.56 373.48 247.4 364.43 238.34 353.26 238.34 342.1 238.34 333.04 247.4 333.04 258.56Z" fill="#5f6368" fill-rule="evenodd"/>
<path transform="matrix(1,0,0,-1,0,405.04)" d="M359.28 260.38 354.91 264.66 343.33 253.3V249.01H347.7L359.28 260.38ZM362.7 263.75C363.17 264.21 363.17 264.9 362.7 265.35L359.96 268.05C359.5 268.49 358.8 268.49 358.33 268.05L356.06 265.82 360.43 261.52 362.7 263.75Z" fill="#ffffff" fill-rule="evenodd"/>
</g>
</svg>
