<svg xmlns="http://www.w3.org/2000/svg" xmlns:xlink="http://www.w3.org/1999/xlink" version="1.1" width="720pt" height="405.04pt" viewBox="0 0 720 405.04">
<defs>
<clipPath id="clip_487">
<path transform="matrix(1,0,0,-1,0,405.04)" d="M0 .000061035H720V405.04008H0Z" fill-rule="evenodd"/>
</clipPath>
<clipPath id="clip_488">
<path transform="matrix(1,0,0,-1,0,405.04)" d="M.000010729 .000030518H720V405.04005H.000010729Z" fill-rule="evenodd"/>
</clipPath>
<clipPath id="clip_489">
<path transform="matrix(1,0,0,-1,0,405.04)" d="M.000010729 .000030518H720V405.04005H.000010729Z" fill-rule="evenodd"/>
</clipPath>
<clipPath id="clip_490">
<path transform="matrix(1,0,0,-1,0,405.04)" d="M.000010729 .000030518H720V405.04005H.000010729Z" fill-rule="evenodd"/>
</clipPath>
<clipPath id="clip_491">
<path transform="matrix(1,0,0,-1,0,405.04)" d="M.000010729 .000030518H720V405.04005H.000010729Z" fill-rule="evenodd"/>
</clipPath>
<clipPath id="clip_492">
<path transform="matrix(1,0,0,-1,0,405.04)" d="M.000010729 .000030518H720V405.04005H.000010729Z" fill-rule="evenodd"/>
</clipPath>
<clipPath id="clip_493">
<path transform="matrix(1,0,0,-1,0,405.04)" d="M.000010729 .000030518H720V405.04005H.000010729Z" fill-rule="evenodd"/>
</clipPath>
<clipPath id="clip_494">
<path transform="matrix(1,0,0,-1,0,405.04)" d="M.000010729 .000030518H720V405.04005H.000010729Z" fill-rule="evenodd"/>
</clipPath>
<clipPath id="clip_495">
<path transform="matrix(1,0,0,-1,0,405.04)" d="M.000010729 .000030518H720V405.04005H.000010729Z" fill-rule="evenodd"/>
</clipPath>
<clipPath id="clip_496">
<path transform="matrix(1,0,0,-1,0,405.04)" d="M.000010729 .000030518H720V405.04005H.000010729Z" fill-rule="evenodd"/>
</clipPath>
<clipPath id="clip_497">
<path transform="matrix(1,0,0,-1,0,405.04)" d="M.000010729 .000030518H720V405.04005H.000010729Z" fill-rule="evenodd"/>
</clipPath>
<clipPath id="clip_498">
<path transform="matrix(1,0,0,-1,0,405.04)" d="M.000010729 .000030518H720V405.04005H.000010729Z" fill-rule="evenodd"/>
</clipPath>
<clipPath id="clip_499">
<path transform="matrix(1,0,0,-1,0,405.04)" d="M.000010729 .000030518H720V405.04005H.000010729Z" fill-rule="evenodd"/>
</clipPath>
<clipPath id="clip_500">
<path transform="matrix(1,0,0,-1,0,405.04)" d="M.000010729 .000030518H720V405.04005H.000010729Z" fill-rule="evenodd"/>
</clipPath>
<clipPath id="clip_501">
<path transform="matrix(1,0,0,-1,0,405.04)" d="M.000010729 .000030518H720V405.04005H.000010729Z" fill-rule="evenodd"/>
</clipPath>
<clipPath id="clip_502">
<path transform="matrix(1,0,0,-1,0,405.04)" d="M.000010729 .000030518H720V405.04005H.000010729Z" fill-rule="evenodd"/>
</clipPath>
<clipPath id="clip_503">
<path transform="matrix(1,0,0,-1,0,405.04)" d="M.000010729 .000030518H720V405.04005H.000010729Z" fill-rule="evenodd"/>
</clipPath>
<clipPath id="clip_504">
<path transform="matrix(1,0,0,-1,0,405.04)" d="M.000010729 .000030518H720V405.04005H.000010729Z" fill-rule="evenodd"/>
</clipPath>
<clipPath id="clip_505">
<path transform="matrix(1,0,0,-1,0,405.04)" d="M.000010729 .000030518H720V405.04005H.000010729Z" fill-rule="evenodd"/>
</clipPath>
<clipPath id="clip_506">
<path transform="matrix(1,0,0,-1,0,405.04)" d="M.000010729 .000030518H720V405.04005H.000010729Z" fill-rule="evenodd"/>
</clipPath>
<clipPath id="clip_507">
<path transform="matrix(1,0,0,-1,0,405.04)" d="M.000010729 .000030518H720V405.04005H.000010729Z" fill-rule="evenodd"/>
</clipPath>
<clipPath id="clip_508">
<path transform="matrix(1,0,0,-1,0,405.04)" d="M.000010729 .000030518H720V405.04005H.000010729Z" fill-rule="evenodd"/>
</clipPath>
<clipPath id="clip_509">
<path transform="matrix(1,0,0,-1,0,405.04)" d="M.000010729 .000030518H720V405.04005H.000010729Z" fill-rule="evenodd"/>
</clipPath>
<clipPath id="clip_510">
<path transform="matrix(1,0,0,-1,0,405.04)" d="M.000010729 .000030518H720V405.04005H.000010729Z" fill-rule="evenodd"/>
</clipPath>
<clipPath id="clip_511">
<path transform="matrix(1,0,0,-1,0,405.04)" d="M.000010729 .000030518H720V405.04005H.000010729Z" fill-rule="evenodd"/>
</clipPath>
</defs>
<g>
<g clip-path="url(#clip_487)">
<path transform="matrix(1,0,0,-1,0,405.04)" d="M0 .000030518H720V405.04005H0Z" fill="#ffffff" fill-rule="evenodd"/>
</g>
<path transform="matrix(1,0,0,-1,0,405.04)" d="M0 319.92H5.3202V379.151H0Z" fill="#9aa0a6" fill-rule="evenodd"/>
<g clip-path="url(#clip_488)">
<text fill="#5f6368" xml:space="preserve" transform="matrix(1 0 -0 1 0 405.04)" font-size="24.142" font-family="Open Sans"><tspan y="-333.8" x="40.788 55.321485 68.86514 74.82822 88.25117 94.35909 107.78204 117.728549 131.1515 146.07128 151.74465 166.27814 179.82181 194.64499 203.16712 209.27504 224.09824">Pelajaran Penting</tspan></text>
</g>
<g clip-path="url(#clip_489)">
<text fill="#5f6368" xml:space="preserve" transform="matrix(1 0 -0 1 0 405.04)" font-size="13.833" font-family="Calibri"><tspan y="-202.64" x="42.514 51.021295 57.757966 68.7552 75.85154 82.57438 88.95139 92.492649">Dampak: </tspan></text>
</g>
<g clip-path="url(#clip_490)">
<text fill="#5f6368" xml:space="preserve" transform="matrix(1 0 -0 1 0 405.04)" font-size="12.083" font-family="Open Sans"><tspan y="-179.94" x="42.514 49.244234 55.96238 62.015966 68.734119 71.597789 79.02883 85.77115 90.70101 98.168308 104.88645 109.86465 116.582798 124.038 126.515018 133.94606 140.68837 146.36739 153.08554 156.28754 163.7065 166.57018 172.24919 178.96735 185.02092 191.73908 194.60276 202.0338 208.75196 216.20716 222.92531 227.19062 230.0422 241.37607 248.11838 259.4522 266.19453 273.6135 281.0808 288.4998 291.71388">Saya berharap desain saya dapat memenuhi </tspan></text>
</g>
<g clip-path="url(#clip_491)">
<text fill="#5f6368" xml:space="preserve" transform="matrix(1 0 -0 1 0 405.04)" font-size="12.083" font-family="Open Sans"><tspan y="-158.28" x="42.514 48.88174 55.624059 63.055105 70.47407 74.739368 82.19457 89.61353 96.36793 103.78689 106.30015 113.73119 120.47351 127.89247 134.64688 141.37712 148.79608 156.26337">kebutuhan pengguna</tspan></text>
</g>
<g clip-path="url(#clip_492)">
<text fill="#1967d2" xml:space="preserve" transform="matrix(1 0 -0 1 0 405.04)" font-size="12.083" font-family="Open Sans,Bold" font-weight="bold"><tspan y="-158.28" x="163.15">.</tspan></text>
</g>
<g clip-path="url(#clip_493)">
<text fill="#919191" xml:space="preserve" transform="matrix(1 0 -0 1 0 405.04)" font-size="12.083" font-family="Open Sans"><tspan y="-136.62" x="42.514 49.244234 55.96238 60.22768 67.67081 70.51031 76.878047 84.297008 88.5623 91.7643 99.195339 105.91348">Satu kutipan</tspan></text>
</g>
<g clip-path="url(#clip_494)">
<text fill="#919191" xml:space="preserve" transform="matrix(1 0 -0 1 0 405.04)" font-size="12.083" font-family="Open Sans"><tspan y="-136.62" x="115.96 123.37896 134.74907 142.18012 148.89827">umpan</tspan></text>
</g>
<g clip-path="url(#clip_495)">
<text fill="#919191" xml:space="preserve" transform="matrix(1 0 -0 1 0 405.04)" font-size="12.083" font-family="Open Sans"><tspan y="-136.62" x="158.9 166.33104 173.0492 176.25119 179.42903">balik</tspan></text>
</g>
<g clip-path="url(#clip_496)">
<text fill="#919191" xml:space="preserve" transform="matrix(1 0 -0 1 0 405.04)" font-size="12.083" font-family="Open Sans"><tspan y="-136.62" x="188.36 195.79105 202.5092 207.4874">dari</tspan></text>
</g>
<g clip-path="url(#clip_497)">
<text fill="#919191" xml:space="preserve" transform="matrix(1 0 -0 1 0 405.04)" font-size="12.083" font-family="Open Sans"><tspan y="-136.62" x="213.19 218.86902 225.58718 228.78916 235.50731">salah</tspan></text>
</g>
<g clip-path="url(#clip_498)">
<text fill="#919191" xml:space="preserve" transform="matrix(1 0 -0 1 0 405.04)" font-size="12.083" font-family="Open Sans"><tspan y="-136.62" x="245.84 251.51902 258.23716 262.50245 269.9456">satu </tspan></text>
</g>
<g clip-path="url(#clip_499)">
<text fill="#919191" xml:space="preserve" transform="matrix(1 0 -0 1 0 405.04)" font-size="12.059" font-family="Open Sans"><tspan y="-115.32" x="42.514 49.954404 56.7195 62.363115 69.12821 74.04829 78.305118 85.0461 87.87996 97.105098 103.8099 113.07121 119.77602 127.24054 132.92034 139.62514 144.61757 151.32238 154.53006 157.7257 161.94635 168.71146 175.47657 181.12018 187.82498 192.81742 199.52222 202.04256 208.40972 215.17482 220.81842 227.58353 230.743 238.1834 243.13965 250.58005 258.02046 264.72526 272.1898 274.67396 280.35374 287.05854 293.13627 299.84107">peserta wawancara: &#x201c;Secara keseluruhan saya </tspan></text>
</g>
<g clip-path="url(#clip_500)">
<text fill="#919191" xml:space="preserve" transform="matrix(1 0 -0 1 0 405.04)" font-size="12.059" font-family="Open Sans"><tspan y="-93.659" x="42.514 48.19379 55.634195 62.001348 68.706157 71.576198 74.759769 81.46457 87.867908 94.57271 102.03723 104.521389 108.77821 115.54331 119.80014 126.504947 133.94535 137.12892 139.9628 146.6676 154.13213 160.83693 163.70697 171.14737 177.91248 185.30464 192.06975 197.026 203.7308 211.19533 217.90013 220.42047 226.10025 232.80506 237.79749 244.50229 251.9668 254.80068 262.24107 269.68147 273.9383 281.3787 287.74583">suka, akan tetapi ada beberapa saran untuk </tspan></text>
</g>
<g clip-path="url(#clip_501)">
<text fill="#919191" xml:space="preserve" transform="matrix(1 0 -0 1 0 405.04)" font-size="12.059" font-family="Open Sans"><tspan y="-72" x="42.514 49.954404 56.7195 64.123729 71.57619 78.341289 82.598117 89.30292 92.486499 95.670078 102.37488">pendetailan</tspan></text>
</g>
<g clip-path="url(#clip_502)">
<text fill="#919191" xml:space="preserve" transform="matrix(1 0 -0 1 0 405.04)" font-size="12.059" font-family="Open Sans"><tspan y="-72" x="112.06 116.30476 119.48834 123.74517 131.18558 136.14183 139.34952 142.17133 149.96144 157.40184 160.58542 163.769 170.13616 176.84096 182.54486 185.72844 187.85083 191.03441 198.47481 201.65839 204.14255 209.82233 216.52713 223.99164 230.72057 237.42537 241.68219">fitur. Aplikasi ini sangat </tspan></text>
</g>
<g clip-path="url(#clip_503)">
<text fill="#919191" xml:space="preserve" transform="matrix(1 0 -0 1 0 405.04)" font-size="12.083" font-family="Open Sans"><tspan y="-50.365" x="42.514 53.847856 60.59017 71.92403 79.355068 86.07321 93.52842 97.79372 105.21268 107.71386 115.144908 121.88722 125.06505 131.7832 139.23842 145.96866 152.6989 159.41706 166.87227 168.99889 176.42993 183.14809 186.35007 193.06822 204.42626 206.90328 218.23714 224.97945 236.31331 243.05562 248.73464 255.45279 262.90803 265.38505 271.75279 279.17176 285.95033">membantu pelanggan dalam memesan kue </tspan></text>
</g>
<g clip-path="url(#clip_504)">
<text fill="#919191" xml:space="preserve" transform="matrix(1 0 -0 1 0 405.04)" font-size="12.083" font-family="Open Sans"><tspan y="-28.705" x="42.514 48.193014 54.93533 60.614339 67.33249 72.310688 79.02883 81.8925 93.22636 100.64532 108.11262 114.830768 122.28597 126.51502">secara mudah&#x201d;.</tspan></text>
</g>
<path transform="matrix(1,0,0,-1,0,405.04)" d="M42.562 263.88C42.562 275.05 51.613 284.1 62.778 284.1 73.944 284.1 82.995 275.05 82.995 263.88 82.995 252.72 73.944 243.67 62.778 243.67 51.613 243.67 42.562 252.72 42.562 263.88Z" fill="#5f6368" fill-rule="evenodd"/>
<g clip-path="url(#clip_505)">
<text fill="#5f6368" xml:space="preserve" transform="matrix(1 0 -0 1 0 405.04)" font-size="13.833" font-family="Calibri"><tspan y="-202.64" x="354.16 362.30766 369.404 376.12684 379.65425 386.03126 392.7541 399.85044 406.24128 409.76869 415.09437 421.8172 428.1942 434.91706 438.09864 445.19499 451.93165 455.11323 461.84989 465.04533 471.76817 476.7204 479.90199">Apa yang saya pelajari:</tspan></text>
</g>
<g clip-path="url(#clip_506)">
<text fill="#5f6368" xml:space="preserve" transform="matrix(1 0 -0 1 0 405.04)" font-size="12.083" font-family="Open Sans"><tspan y="-179.94" x="354.16">S</tspan></text>
</g>
<g clip-path="url(#clip_507)">
<text fill="#5f6368" xml:space="preserve" transform="matrix(1 0 -0 1 0 405.04)" font-size="12.083" font-family="Open Sans"><tspan y="-179.94" x="360.9 367.6544 373.70799 380.46238 383.30189 390.7571 397.53569 400.7256 407.47999 410.68199 417.43638 422.41459 424.54118 431.9964 438.7508 446.20603 455.44953 462.20393 465.4059 468.6079 476.06315 482.8417 485.66914 493.12437 499.90293 504.86906 509.13435 515.9008 527.25888 534.01327 536.4903 543.9455 551.4007 555.666 563.1454 569.5373 572.37686 579.1312 586.5864 589.78848 592.9905 599.3824 606.1368 611.83999 615.042">aya belajar bahwa ide pertama untuk aplikasi </tspan></text>
</g>
<g clip-path="url(#clip_508)">
<text fill="#5f6368" xml:space="preserve" transform="matrix(1 0 -0 1 0 405.04)" font-size="12.083" font-family="Open Sans"><tspan y="-158.28" x="354.16 357.33784 364.7568 367.9709 370.8104 378.22938 384.98377 392.40275 398.49259 405.21073 408.37648 415.0946 422.54985 424.67643 431.39457 440.63807 447.3562 450.5582 453.3977 460.82878 467.5469 472.52513 475.70295 478.54246 485.9735 490.90339 498.37068 504.04966 510.79197 516.47097 519.685 522.50039 529.2306 533.4959 540.91488 548.37008 551.5479">ini hanyalah awal dari proses. Studi </tspan></text>
</g>
<g clip-path="url(#clip_509)">
<text fill="#5f6368" xml:space="preserve" transform="matrix(1 0 -0 1 0 405.04)" font-size="12.083" font-family="Open Sans,Italic" font-style="italic"><tspan y="-158.28" x="554.65 561.39236 566.35848 572.3879 578.4173 581.25686 584.0964 586.9359 590.8508">usability</tspan></text>
</g>
<g clip-path="url(#clip_510)">
<text fill="#5f6368" xml:space="preserve" transform="matrix(1 0 -0 1 0 405.04)" font-size="12.083" font-family="Open Sans"><tspan y="-136.62" x="354.16 361.59107 368.3092 375.76445 378.60395 386.02293 397.41719 404.84825 411.56639 419.0216 421.49864 428.9297 435.64784 438.84983 442.02766 448.3954 450.8724 456.5514 463.2937 466.47154 473.18968 482.43318 489.1513 493.4166 496.2682 507.6262 514.36849 525.7265 533.15756 539.89987 547.3188 554.0732 560.7913 565.76956 573.1885 580.65579 583.8336">dan umpan balik sejawat mempengaruhi </tspan></text>
</g>
<g clip-path="url(#clip_511)">
<text fill="#5f6368" xml:space="preserve" transform="matrix(1 0 -0 1 0 405.04)" font-size="12.059" font-family="Open Sans"><tspan y="-115.32" x="354.16 359.83979 366.6049 370.86174 374.00914 380.71394 388.17848 391.01234 394.19593 398.45277 405.21788 410.13795 416.8789 422.5587 425.74229 428.22645 435.66688 442.43199 448.0756 454.7804 458.00016 465.44056 468.2744 475.7148 483.1552 487.41206 494.85246 501.21958 504.05345 510.75825 518.2227 521.40628 524.5898 530.957 537.6618 543.3657 546.54928">setiap iterasi desain untuk aplikasi.</tspan></text>
</g>
<path transform="matrix(1,0,0,-1,0,405.04)" d="M353.97 263.88C353.97 275.05 363.02 284.1 374.19 284.1 385.35 284.1 394.4 275.05 394.4 263.88 394.4 252.72 385.35 243.67 374.19 243.67 363.02 243.67 353.97 252.72 353.97 263.88Z" fill="#5f6368" fill-rule="evenodd"/>
<path transform="matrix(1,0,0,-1,0,405.04)" d="M69.883 272.14H65.63C65.179 273.3 64.062 274.17 62.749 274.17 61.416 274.17 60.319 273.3 59.868 272.14H55.615C54.497 272.14 53.557 271.21 53.557 270.12V255.98C53.557 254.88 54.497 253.97 55.615 253.97H69.942C71.04 253.97 71.98 254.88 71.98 255.98V270.12C71.922 271.21 70.981 272.14 69.883 272.14ZM62.69 272.14C63.239 272.14 63.748 271.71 63.748 271.11 63.748 270.55 63.298 270.07 62.69 270.07 62.083 270.07 61.632 270.51 61.632 271.11 61.691 271.71 62.141 272.14 62.69 272.14ZM60.652 257.99 56.555 262.04 57.986 263.47 60.652 260.84 67.394 267.49 68.825 266.08 60.652 257.99Z" fill="#ffffff" fill-rule="evenodd"/>
<path transform="matrix(1,0,0,-1,0,405.04)" d="M380.04 270.97H380.52L380.99 270.94 381.47 270.9 381.94 270.85 382.17 270.81 382.41 270.77 382.64 270.74 382.87 270.68 383.09 270.63 383.32 270.57 383.55 270.51 383.77 270.44V258.2L383.55 258.27 383.32 258.33 383.09 258.39 382.87 258.45 382.64 258.49 382.41 258.54 382.17 258.58 381.94 258.61 381.47 258.67 380.99 258.71 380.52 258.73 380.04 258.74 379.69 258.73 379.33 258.71 378.95 258.67 378.56 258.62 378.17 258.55 377.77 258.47 377.38 258.38 376.98 258.28 376.58 258.17 376.2 258.04 375.82 257.91 375.45 257.77 375.11 257.63 374.78 257.47 374.47 257.31 374.19 257.15V269.38L374.47 269.55 374.78 269.71 375.11 269.86 375.45 270.01 375.82 270.15 376.2 270.28 376.58 270.41 376.98 270.52 377.38 270.62 377.77 270.71 378.17 270.79 378.56 270.86 378.95 270.9 379.33 270.94 379.69 270.97H380.04ZM368.33 273.1H367.94L367.55 273.08 367.16 273.06 366.76 273.02 366.37 272.97 365.98 272.91 365.59 272.84 365.21 272.74 364.84 272.64 364.46 272.53 364.11 272.4 363.93 272.33 363.76 272.25 363.59 272.18 363.42 272.09 363.25 272.01 363.09 271.92 362.94 271.82 362.78 271.72 362.63 271.62 362.48 271.51V255.92 255.87L362.49 255.82 362.51 255.77 362.53 255.72 362.55 255.67 362.58 255.64 362.64 255.55 362.73 255.48 362.77 255.46 362.82 255.43 362.87 255.41 362.91 255.4 362.97 255.39 363.01 255.38 363.05 255.39 363.09 255.4 363.15 255.41 363.21 255.43 363.24 255.44H363.28L363.56 255.57 363.85 255.69 364.15 255.8 364.46 255.91 364.77 256.02 365.1 256.11 365.43 256.2 365.76 256.29 366.1 256.36 366.44 256.43 366.77 256.48 367.1 256.52 367.42 256.56 367.73 256.59 368.04 256.6 368.33 256.61 368.72 256.6 369.12 256.59 369.51 256.56 369.91 256.52 370.3 256.48 370.69 256.41 371.08 256.34 371.46 256.25 371.83 256.15 372.2 256.03 372.56 255.9 372.74 255.83 372.91 255.76 373.08 255.68 373.25 255.6 373.41 255.51 373.57 255.42 373.73 255.32 373.89 255.22 374.04 255.12 374.19 255.01 374.47 255.18 374.78 255.34 375.11 255.5 375.45 255.64 375.82 255.78 376.2 255.92 376.58 256.04 376.98 256.15 377.38 256.26 377.77 256.34 378.17 256.43 378.56 256.49 378.95 256.54 379.33 256.58 379.69 256.6 380.04 256.61H380.37L380.7 256.59 381.03 256.58 381.36 256.55 381.69 256.51 382.02 256.46 382.34 256.41 382.66 256.35 382.99 256.28 383.3 256.2 383.62 256.1 383.92 256 384.23 255.89 384.52 255.77 384.81 255.64 385.09 255.49 385.16 255.46 385.22 255.44H385.29 385.36 385.41L385.46 255.45 385.51 255.47 385.55 255.48 385.6 255.51 385.65 255.54 385.73 255.61 385.79 255.69 385.82 255.73 385.85 255.77 385.87 255.83 385.88 255.87 385.89 255.92V255.97 271.51L385.65 271.68 385.4 271.84 385.15 271.98 384.89 272.12 384.62 272.25 384.34 272.36 384.06 272.47 383.77 272.57 383.54 272.64 383.32 272.7 383.09 272.76 382.86 272.81 382.63 272.86 382.4 272.9 381.93 272.98 381.45 273.03 380.98 273.07 380.51 273.1H380.04 379.65L379.25 273.08 378.86 273.06 378.46 273.02 378.07 272.97 377.68 272.91 377.3 272.84 376.92 272.74 376.54 272.64 376.17 272.53 375.81 272.4 375.64 272.33 375.46 272.25 375.29 272.18 375.12 272.09 374.96 272.01 374.8 271.92 374.64 271.82 374.49 271.72 374.33 271.62 374.19 271.51 374.04 271.62 373.89 271.72 373.73 271.82 373.57 271.92 373.41 272.01 373.25 272.09 373.08 272.18 372.91 272.25 372.74 272.33 372.56 272.4 372.2 272.53 371.83 272.64 371.46 272.74 371.08 272.84 370.69 272.91 370.3 272.97 369.91 273.02 369.51 273.06 369.12 273.08 368.72 273.1H368.33Z" fill="#ffffff" fill-rule="evenodd"/>
<path transform="matrix(1,0,0,-1,0,405.04)" d="M379.7 268.14 379.37 268.12 379.04 268.11 378.71 268.09 378.39 268.06 378.08 268.02 377.77 267.98 377.47 267.93 377.17 267.87 376.88 267.81 376.59 267.74 376.31 267.67 376.03 267.59 375.76 267.5 375.5 267.41 375.25 267.31V265.66L375.48 265.77 375.72 265.88 375.97 265.98 376.24 266.08 376.51 266.17 376.79 266.25 377.08 266.32 377.37 266.39 377.68 266.45 377.99 266.5 378.32 266.54 378.65 266.58 378.99 266.61 379.33 266.63 379.68 266.64H380.39L380.73 266.63 381.08 266.61 381.41 266.58 381.74 266.54 382.07 266.5 382.39 266.44 382.7 266.38V267.9L382.38 267.95 382.06 268 381.73 268.04 381.4 268.08 381.06 268.1 380.72 268.12 380.38 268.14Z" fill="#ffffff" fill-rule="evenodd"/>
<path transform="matrix(1,0,0,-1,0,405.04)" d="M379.7 265.3 379.37 265.29 379.04 265.27 378.71 265.24 378.39 265.21 378.08 265.18 377.77 265.14 377.47 265.09 377.17 265.03 376.88 264.97 376.59 264.9 376.31 264.83 376.03 264.75 375.76 264.66 375.5 264.57 375.25 264.48V262.82L375.48 262.94 375.72 263.05 375.97 263.15 376.24 263.24 376.51 263.33 376.79 263.41 377.08 263.49 377.37 263.55 377.68 263.61 377.99 263.66 378.32 263.71 378.65 263.74 378.99 263.77 379.33 263.79 379.68 263.8 380.04 263.81 380.39 263.8 380.73 263.79 381.08 263.77 381.41 263.74 381.74 263.7 382.07 263.66 382.39 263.61 382.7 263.55V265.06L382.38 265.11 382.06 265.16 381.73 265.2 381.4 265.24 381.06 265.26 380.72 265.29H380.38L380.04 265.3Z" fill="#ffffff" fill-rule="evenodd"/>
<path transform="matrix(1,0,0,-1,0,405.04)" d="M379.7 262.82 379.37 262.8 379.04 262.78 378.71 262.76 378.39 262.73 378.08 262.69 377.77 262.64 377.47 262.58 377.17 262.51 376.88 262.45 376.59 262.37 376.31 262.28 376.03 262.19 375.76 262.09 375.5 261.99 375.25 261.87V259.98L375.48 260.11 375.72 260.24 375.97 260.35 376.24 260.47 376.51 260.56 376.79 260.65 377.08 260.74 377.37 260.82 377.68 260.89 377.99 260.94 378.32 260.99 378.65 261.03 378.99 261.07 379.33 261.09 379.68 261.11H380.04L380.39 261.1 380.73 261.09 381.08 261.07 381.41 261.03 381.74 260.99 382.07 260.94 382.39 260.88 382.7 260.81V262.55L382.38 262.61 382.06 262.67 381.73 262.71 381.4 262.75 381.06 262.78 380.72 262.8 380.38 262.82Z" fill="#ffffff" fill-rule="evenodd"/>
</g>
</svg>
