<svg xmlns="http://www.w3.org/2000/svg" xmlns:xlink="http://www.w3.org/1999/xlink" version="1.1" width="720pt" height="405.04pt" viewBox="0 0 720 405.04">
<defs>
<clipPath id="clip_463">
<path transform="matrix(1,0,0,-1,0,405.04)" d="M0 .000061035H720V405.04008H0Z" fill-rule="evenodd"/>
</clipPath>
<clipPath id="clip_464">
<path transform="matrix(1,0,0,-1,0,405.04)" d="M.000010729 .000030518H720V405.04005H.000010729Z" fill-rule="evenodd"/>
</clipPath>
<clipPath id="clip_465">
<path transform="matrix(1,0,0,-1,0,405.04)" d="M.000010729 .000030518H720V405.04005H.000010729Z" fill-rule="evenodd"/>
</clipPath>
<clipPath id="clip_466">
<path transform="matrix(1,0,0,-1,0,405.04)" d="M.000010729 .000030518H720V405.04005H.000010729Z" fill-rule="evenodd"/>
</clipPath>
<clipPath id="clip_467">
<path transform="matrix(1,0,0,-1,0,405.04)" d="M.000010729 .000030518H720V405.04005H.000010729Z" fill-rule="evenodd"/>
</clipPath>
<clipPath id="clip_468">
<path transform="matrix(1,0,0,-1,0,405.04)" d="M.000010729 .000030518H720V405.04005H.000010729Z" fill-rule="evenodd"/>
</clipPath>
<clipPath id="clip_469">
<path transform="matrix(1,0,0,-1,0,405.04)" d="M.000010729 .000030518H720V405.04005H.000010729Z" fill-rule="evenodd"/>
</clipPath>
<clipPath id="clip_470">
<path transform="matrix(1,0,0,-1,0,405.04)" d="M.000010729 .000030518H720V405.04005H.000010729Z" fill-rule="evenodd"/>
</clipPath>
<clipPath id="clip_471">
<path transform="matrix(1,0,0,-1,0,405.04)" d="M.000010729 .000030518H720V405.04005H.000010729Z" fill-rule="evenodd"/>
</clipPath>
<clipPath id="clip_472">
<path transform="matrix(1,0,0,-1,0,405.04)" d="M.000010729 .000030518H720V405.04005H.000010729Z" fill-rule="evenodd"/>
</clipPath>
<clipPath id="clip_473">
<path transform="matrix(1,0,0,-1,0,405.04)" d="M.000010729 .000030518H720V405.04005H.000010729Z" fill-rule="evenodd"/>
</clipPath>
<clipPath id="clip_474">
<path transform="matrix(1,0,0,-1,0,405.04)" d="M.000010729 .000030518H720V405.04005H.000010729Z" fill-rule="evenodd"/>
</clipPath>
<clipPath id="clip_475">
<path transform="matrix(1,0,0,-1,0,405.04)" d="M.000010729 .000030518H720V405.04005H.000010729Z" fill-rule="evenodd"/>
</clipPath>
<clipPath id="clip_476">
<path transform="matrix(1,0,0,-1,0,405.04)" d="M.000010729 .000030518H720V405.04005H.000010729Z" fill-rule="evenodd"/>
</clipPath>
<clipPath id="clip_477">
<path transform="matrix(1,0,0,-1,0,405.04)" d="M.000010729 .000030518H720V405.04005H.000010729Z" fill-rule="evenodd"/>
</clipPath>
<clipPath id="clip_478">
<path transform="matrix(1,0,0,-1,0,405.04)" d="M.000010729 .000030518H720V405.04005H.000010729Z" fill-rule="evenodd"/>
</clipPath>
<clipPath id="clip_479">
<path transform="matrix(1,0,0,-1,0,405.04)" d="M.000010729 .000030518H720V405.04005H.000010729Z" fill-rule="evenodd"/>
</clipPath>
<clipPath id="clip_480">
<path transform="matrix(1,0,0,-1,0,405.04)" d="M.000010729 .000030518H720V405.04005H.000010729Z" fill-rule="evenodd"/>
</clipPath>
</defs>
<g>
<g clip-path="url(#clip_463)">
<path transform="matrix(1,0,0,-1,0,405.04)" d="M0 .000030518H720V405.04005H0Z" fill="#ffffff" fill-rule="evenodd"/>
</g>
<path transform="matrix(1,0,0,-1,0,405.04)" d="M0 319.92H5.3202V379.151H0Z" fill="#34a853" fill-rule="evenodd"/>
<g clip-path="url(#clip_464)">
<text fill="#5f6368" xml:space="preserve" transform="matrix(1 0 -0 1 0 405.04)" font-size="24.142" font-family="Open Sans"><tspan y="-333.8" x="40.788 55.321485 68.86514 78.71508 87.237209 93.34513 115.628208 130.49968 143.92264 158.84239 171.97563 185.39859 200.31835 205.99172 219.41468 232.20993 243.55667 257.10035 268.37467 274.4102 289.28166 295.31718 301.3527 307.3882 315.91035 329.33329">Pertimbangan aksesibilitas</tspan></text>
</g>
<path transform="matrix(1,0,0,-1,0,405.04)" d="M40.788 39.015H232.668V289.065H40.788Z" fill="#f8f9fa" fill-rule="evenodd"/>
<g clip-path="url(#clip_465)">
<text fill="#5f6368" xml:space="preserve" transform="matrix(1 0 -0 1 0 405.04)" font-size="12.083" font-family="Open Sans"><tspan y="-234.28" x="65.048 76.03144 82.77376 90.19272 96.94711 103.677349 111.096309 118.5636 125.281749 131.67365 138.3918 145.84702 147.97364 151.15148 157.51923 164.95027 172.36923 174.8825 182.30147 189.76876 194.03406 201.45302 207.84493">Menggunakan ikon untuk </tspan></text>
</g>
<g clip-path="url(#clip_466)">
<text fill="#5f6368" xml:space="preserve" transform="matrix(1 0 -0 1 0 405.04)" font-size="12.059" font-family="Open Sans"><tspan y="-217.58" x="68.24 79.575458 86.34055 97.65189 105.09229 111.85739 116.777469 128.13706 135.57746 143.01786 149.72266 157.18717 159.30956 166.74996 173.45476 179.49633 182.70403 189.43296 196.13776 201.84166">mempermudah navigasi</tspan></text>
</g>
<path transform="matrix(1,0,0,-1,0,405.04)" d="M250.05 39.015H441.93V289.065H250.05Z" fill="#f8f9fa" fill-rule="evenodd"/>
<g clip-path="url(#clip_467)">
<text fill="#5f6368" xml:space="preserve" transform="matrix(1 0 -0 1 0 405.04)" font-size="12.083" font-family="Open Sans"><tspan y="-234.28" x="282.56 293.5676 300.3099 307.72889 314.48329 321.2135 328.63249 336.0998 342.81794 349.20985 355.92799 363.3832 365.5098 372.24003 378.95817 390.34034 397.7714 404.48954 409.46775">Menggunakan gambar </tspan></text>
</g>
<g clip-path="url(#clip_468)">
<text fill="#5f6368" xml:space="preserve" transform="matrix(1 0 -0 1 0 405.04)" font-size="12.059" font-family="Open Sans"><tspan y="-217.58" x="298.9 305.26713 312.70753 319.47264 322.28239 329.7228 336.4276 343.89216 346.726 354.16645 359.12269 366.56309 374.0035 380.76863 385.6887 389.94554 393.14118">kue dan properti </tspan></text>
</g>
<g clip-path="url(#clip_469)">
<text fill="#5f6368" xml:space="preserve" transform="matrix(1 0 -0 1 0 405.04)" font-size="12.083" font-family="Open Sans"><tspan y="-201.27" x="279.01 286.44108 293.18339 300.60237 308.06968 315.48866 321.89265 329.3116 336.77894 343.50917 345.98619 353.41725 360.15956 365.83854 370.10383 376.82197 379.67356 387.09254 394.55986 398.82514 406.2441 412.63603">pendukung pesta untuk </tspan></text>
</g>
<g clip-path="url(#clip_470)">
<text fill="#5f6368" xml:space="preserve" transform="matrix(1 0 -0 1 0 405.04)" font-size="12.083" font-family="Open Sans"><tspan y="-184.58" x="281.5 292.83384 299.57615 310.90998 318.34104 325.08335 330.0132 341.3833 348.80229 356.2696 362.98774 370.44297 372.56956 378.24855 384.99085 396.32469 403.74366 410.49806">mempermudah semua </tspan></text>
</g>
<g clip-path="url(#clip_471)">
<text fill="#5f6368" xml:space="preserve" transform="matrix(1 0 -0 1 0 405.04)" font-size="12.059" font-family="Open Sans"><tspan y="-167.88" x="298.55 305.99043 312.75553 320.15977 326.90077 333.62968 341.07008 348.51048 355.21528 357.7356 365.17604 371.88084 375.1006 381.8054 393.17704">pengguna dalam </tspan></text>
</g>
<g clip-path="url(#clip_472)">
<text fill="#5f6368" xml:space="preserve" transform="matrix(1 0 -0 1 0 405.04)" font-size="12.083" font-family="Open Sans"><tspan y="-151.57" x="293.94 305.27384 312.01615 323.34999 330.0681 337.52336 344.2415 355.5995 358.7773 360.9039 368.33497 375.07728 380.75627 387.4744 390.6764">memahami desain</tspan></text>
</g>
<path transform="matrix(1,0,0,-1,0,405.04)" d="M459.31 39.015H651.19V289.065H459.31Z" fill="#f8f9fa" fill-rule="evenodd"/>
<g clip-path="url(#clip_473)">
<text fill="#5f6368" xml:space="preserve" transform="matrix(1 0 -0 1 0 405.04)" font-size="12.083" font-family="Open Sans"><tspan y="-234.28" x="484.47 495.4776 502.2199 509.6389 516.3933 523.12356 530.5425 538.00979 544.7279 551.1198 557.83798 565.29318 567.4198 573.78756 581.2186 592.57669 600.0077 603.18557 610.6045 617.3589 623.0379 626.21578">Menggunakan kombinasi </tspan></text>
</g>
<g clip-path="url(#clip_474)">
<text fill="#5f6368" xml:space="preserve" transform="matrix(1 0 -0 1 0 405.04)" font-size="12.059" font-family="Open Sans"><tspan y="-217.58" x="515 524.22518 530.93 535.92239 543.3628 550.0676 552.9376 560.378 567.14309 574.5473 581.28829 587.9931 595.45767">warna dengan </tspan></text>
</g>
<g clip-path="url(#clip_475)">
<text fill="#5f6368" xml:space="preserve" transform="matrix(1 0 -0 1 0 405.04)" font-size="12.083" font-family="Open Sans"><tspan y="-201.27" x="497.62 508.95384 515.6961 527.02999 534.461 541.2033 546.1332 550.3985 553.6005 564.9344 572.3654 579.08358 586.20046 592.93069 599.2984 605.6782 613.09719">mempertimbangkan </tspan></text>
</g>
<g clip-path="url(#clip_476)">
<text fill="#5f6368" xml:space="preserve" transform="matrix(1 0 -0 1 0 405.04)" font-size="12.083" font-family="Open Sans"><tspan y="-184.58" x="490.85 497.2419 504.6971 512.15237 516.41769 521.40798 528.16238 533.86557 536.3426 543.097 549.8514 556.6058 561.584 564.4235 568.68887 575.4674 579.7327 586.4992 593.9544 596.79397 604.24917 607.4512 613.15438 619.90878">kontras agar tetap bisa </tspan></text>
</g>
<g clip-path="url(#clip_477)">
<text fill="#5f6368" xml:space="preserve" transform="matrix(1 0 -0 1 0 405.04)" font-size="12.059" font-family="Open Sans"><tspan y="-167.88" x="489.79 497.25456 500.43815 507.90269 514.6557 520.3355 527.08859 529.5727 537.0372 543.80227 551.2547 558.00778 564.7608 572.22537 575.0592 582.52377 588.5533 595.30636 606.6659 613.41897">dibaca dengan nyaman</tspan></text>
</g>
<path transform="matrix(1,0,0,-1,0,405.04)" d="M116.33 287.65C116.33 298.81 125.39 307.86 136.55 307.86 147.72 307.86 156.77 298.81 156.77 287.65 156.77 276.48 147.72 267.43 136.55 267.43 125.39 267.43 116.33 276.48 116.33 287.65Z" fill="#34a853" fill-rule="evenodd"/>
<g clip-path="url(#clip_478)">
<text fill="#ffffff" xml:space="preserve" transform="matrix(1 0 -0 1 0 405.04)" font-size="22.014" font-family="1"><tspan y="-280.55" x="132.06">1</tspan></text>
</g>
<path transform="matrix(1,0,0,-1,0,405.04)" d="M325.6 287.65C325.6 298.81 334.65 307.86 345.81 307.86 356.98 307.86 366.03 298.81 366.03 287.65 366.03 276.48 356.98 267.43 345.81 267.43 334.65 267.43 325.6 276.48 325.6 287.65Z" fill="#34a853" fill-rule="evenodd"/>
<g clip-path="url(#clip_479)">
<text fill="#ffffff" xml:space="preserve" transform="matrix(1 0 -0 1 0 405.04)" font-size="22.014" font-family="1"><tspan y="-280.55" x="340.02">2</tspan></text>
</g>
<path transform="matrix(1,0,0,-1,0,405.04)" d="M534.86 287.65C534.86 298.81 543.91 307.86 555.07 307.86 566.24 307.86 575.29 298.81 575.29 287.65 575.29 276.48 566.24 267.43 555.07 267.43 543.91 267.43 534.86 276.48 534.86 287.65Z" fill="#34a853" fill-rule="evenodd"/>
<g clip-path="url(#clip_480)">
<text fill="#ffffff" xml:space="preserve" transform="matrix(1 0 -0 1 0 405.04)" font-size="22.014" font-family="1"><tspan y="-280.55" x="549.38">3</tspan></text>
</g>
</g>
</svg>
