<svg xmlns="http://www.w3.org/2000/svg" xmlns:xlink="http://www.w3.org/1999/xlink" version="1.1" width="720pt" height="405.04pt" viewBox="0 0 720 405.04">
<defs>
<clipPath id="clip_125">
<path transform="matrix(1,0,0,-1,0,405.04)" d="M0 .000061035H720V405.04008H0Z" fill-rule="evenodd"/>
</clipPath>
<clipPath id="clip_126">
<path transform="matrix(1,0,0,-1,0,405.04)" d="M.000010729 .000030518H720V405.04005H.000010729Z" fill-rule="evenodd"/>
</clipPath>
<clipPath id="clip_127">
<path transform="matrix(1,0,0,-1,0,405.04)" d="M.000010729 .000030518H720V405.04005H.000010729Z" fill-rule="evenodd"/>
</clipPath>
<clipPath id="clip_128">
<path transform="matrix(1,0,0,-1,0,405.04)" d="M.000010729 .000030518H720V405.04005H.000010729Z" fill-rule="evenodd"/>
</clipPath>
<clipPath id="clip_129">
<path transform="matrix(1,0,0,-1,0,405.04)" d="M.000010729 .000030518H720V405.04005H.000010729Z" fill-rule="evenodd"/>
</clipPath>
<clipPath id="clip_130">
<path transform="matrix(1,0,0,-1,0,405.04)" d="M.000010729 .000030518H720V405.04005H.000010729Z" fill-rule="evenodd"/>
</clipPath>
<clipPath id="clip_131">
<path transform="matrix(1,0,0,-1,0,405.04)" d="M.000010729 .000030518H720V405.04005H.000010729Z" fill-rule="evenodd"/>
</clipPath>
<clipPath id="clip_132">
<path transform="matrix(1,0,0,-1,0,405.04)" d="M.000010729 .000030518H720V405.04005H.000010729Z" fill-rule="evenodd"/>
</clipPath>
<clipPath id="clip_133">
<path transform="matrix(1,0,0,-1,0,405.04)" d="M.000010729 .000030518H720V405.04005H.000010729Z" fill-rule="evenodd"/>
</clipPath>
<clipPath id="clip_134">
<path transform="matrix(1,0,0,-1,0,405.04)" d="M.000010729 .000030518H720V405.04005H.000010729Z" fill-rule="evenodd"/>
</clipPath>
<clipPath id="clip_135">
<path transform="matrix(1,0,0,-1,0,405.04)" d="M.000010729 .000030518H720V405.04005H.000010729Z" fill-rule="evenodd"/>
</clipPath>
<clipPath id="clip_136">
<path transform="matrix(1,0,0,-1,0,405.04)" d="M.000010729 .000030518H720V405.04005H.000010729Z" fill-rule="evenodd"/>
</clipPath>
<clipPath id="clip_137">
<path transform="matrix(1,0,0,-1,0,405.04)" d="M.000010729 .000030518H720V405.04005H.000010729Z" fill-rule="evenodd"/>
</clipPath>
<clipPath id="clip_138">
<path transform="matrix(1,0,0,-1,0,405.04)" d="M.000010729 .000030518H720V405.04005H.000010729Z" fill-rule="evenodd"/>
</clipPath>
<clipPath id="clip_139">
<path transform="matrix(1,0,0,-1,0,405.04)" d="M.000010729 .000030518H720V405.04005H.000010729Z" fill-rule="evenodd"/>
</clipPath>
<clipPath id="clip_140">
<path transform="matrix(1,0,0,-1,0,405.04)" d="M.000010729 .000030518H720V405.04005H.000010729Z" fill-rule="evenodd"/>
</clipPath>
<clipPath id="clip_141">
<path transform="matrix(1,0,0,-1,0,405.04)" d="M.000010729 .000030518H720V405.04005H.000010729Z" fill-rule="evenodd"/>
</clipPath>
<clipPath id="clip_142">
<path transform="matrix(1,0,0,-1,0,405.04)" d="M.000010729 .000030518H720V405.04005H.000010729Z" fill-rule="evenodd"/>
</clipPath>
<clipPath id="clip_143">
<path transform="matrix(1,0,0,-1,0,405.04)" d="M.000010729 .000030518H720V405.04005H.000010729Z" fill-rule="evenodd"/>
</clipPath>
<clipPath id="clip_144">
<path transform="matrix(1,0,0,-1,0,405.04)" d="M.000010729 .000030518H720V405.04005H.000010729Z" fill-rule="evenodd"/>
</clipPath>
<clipPath id="clip_145">
<path transform="matrix(1,0,0,-1,0,405.04)" d="M.000010729 .000030518H720V405.04005H.000010729Z" fill-rule="evenodd"/>
</clipPath>
<clipPath id="clip_146">
<path transform="matrix(1,0,0,-1,0,405.04)" d="M.000010729 .000030518H720V405.04005H.000010729Z" fill-rule="evenodd"/>
</clipPath>
<clipPath id="clip_147">
<path transform="matrix(1,0,0,-1,0,405.04)" d="M.000010729 .000030518H720V405.04005H.000010729Z" fill-rule="evenodd"/>
</clipPath>
<clipPath id="clip_148">
<path transform="matrix(1,0,0,-1,0,405.04)" d="M.000010729 .000030518H720V405.04005H.000010729Z" fill-rule="evenodd"/>
</clipPath>
<clipPath id="clip_149">
<path transform="matrix(1,0,0,-1,0,405.04)" d="M.000010729 .000030518H720V405.04005H.000010729Z" fill-rule="evenodd"/>
</clipPath>
<clipPath id="clip_150">
<path transform="matrix(1,0,0,-1,0,405.04)" d="M.000010729 .000030518H720V405.04005H.000010729Z" fill-rule="evenodd"/>
</clipPath>
<clipPath id="clip_151">
<path transform="matrix(1,0,0,-1,0,405.04)" d="M.000010729 .000030518H720V405.04005H.000010729Z" fill-rule="evenodd"/>
</clipPath>
<clipPath id="clip_152">
<path transform="matrix(1,0,0,-1,0,405.04)" d="M.000010729 .000030518H720V405.04005H.000010729Z" fill-rule="evenodd"/>
</clipPath>
<clipPath id="clip_153">
<path transform="matrix(1,0,0,-1,0,405.04)" d="M.000010729 .000030518H720V405.04005H.000010729Z" fill-rule="evenodd"/>
</clipPath>
<clipPath id="clip_154">
<path transform="matrix(1,0,0,-1,0,405.04)" d="M.000010729 .000030518H720V405.04005H.000010729Z" fill-rule="evenodd"/>
</clipPath>
<clipPath id="clip_155">
<path transform="matrix(1,0,0,-1,0,405.04)" d="M.000010729 .000030518H720V405.04005H.000010729Z" fill-rule="evenodd"/>
</clipPath>
</defs>
<g>
<g clip-path="url(#clip_125)">
<path transform="matrix(1,0,0,-1,0,405.04)" d="M0 .000030518H720V405.04005H0Z" fill="#ffffff" fill-rule="evenodd"/>
</g>
<path transform="matrix(1,0,0,-1,0,405.04)" d="M0 319.92H5.3202V379.151H0Z" fill="#ea4335" fill-rule="evenodd"/>
<path transform="matrix(1,0,0,-1,0,405.04)" d="M47.527 27.31H672.477V292.97H47.527Z" fill="#f8f9fa" fill-rule="evenodd"/>
<g clip-path="url(#clip_126)">
<text fill="#5f6368" xml:space="preserve" transform="matrix(1 0 -0 1 0 405.04)" font-size="24.142" font-family="Open Sans"><tspan y="-333.8" x="40.788 55.707757 61.719114 73.06586 86.60952 95.05922 101.40856 116.28004 129.8237 144.64688 157.78012 170.91336 185.78482 200.65628 214.07924 220.501 226.19852 236.09673 242.13222 257.0037 270.13697 282.88395 296.3069 307.70195 321.12489">Riset pengguna: ringkasan</tspan></text>
</g>
<g clip-path="url(#clip_127)">
<text fill="#5f6368" xml:space="preserve" transform="matrix(1 0 -0 1 0 405.04)" font-size="12.059" font-family="Open Sans"><tspan y="-236.76" x="106.1 112.82892 119.53372 125.61146 132.31627 135.17426 146.50972 153.27483 156.4343 163.1391 169.54244 176.98284 183.34999 190.0548 197.5193 199.6417 208.86682 215.57163 224.83293 231.53774 239.00225 244.68204 251.38684 256.37928 263.08409 265.95414 273.39457 280.09938 287.5639 290.39778 301.73323 308.49833 319.80967 327.2501 334.6905 341.3953 345.65214 348.17247 355.61289 362.378 366.63484 373.33964 376.18556 382.95066 394.262 401.70243 408.40724 412.66407 415.87178 418.35594 425.79634 433.23674 437.49357 444.93397 451.3011 454.13496 465.4704 472.2355 483.54685 490.25166 497.7162 504.421 515.7926 518.97616 520.7488 528.18917 534.894 539.88638 546.5912 549.4612 556.90158 563.6666 571.07089 577.8118 584.5408 591.9812 599.42166 606.12649">Saya melakukan wawancara dan membuat peta empati untuk memahami para pengguna </tspan></text>
</g>
<g clip-path="url(#clip_128)">
<text fill="#5f6368" xml:space="preserve" transform="matrix(1 0 -0 1 0 405.04)" font-size="12.083" font-family="Open Sans"><tspan y="-220.09" x="84.461 90.49041 97.20856 104.663768 111.394 114.2335 121.66454 128.40685 133.33672 139.7407 146.45886 149.66086 153.92617 160.64432 168.08745 170.21407 177.64511 184.38742 191.80638 198.56079 205.27895 212.73416 215.57367 220.50354 227.27002 234.68898 240.39217 247.11032 254.56554 261.29576 268.0139 275.46913 277.94615 283.62513 290.34327 296.39686 303.115 305.97865 313.4097 320.12785 327.58308 330.42259 336.7903 343.53263 350.96369 358.38267 362.64796 370.10319 377.52217 384.27656 391.69554 394.20878 405.5426 412.2849 417.21479 423.99336 430.36109 437.07923">yang berkaitan dengan rancangan saya dan kebutuhan mereka.</tspan></text>
</g>
<g clip-path="url(#clip_129)">
<text fill="#5f6368" xml:space="preserve" transform="matrix(1 0 -0 1 0 405.04)" font-size="12.083" font-family="Open Sans"><tspan y="-220.09" x="443.56 450.97898 457.75755 460.92329 468.3543 479.68815 487.1192 494.55024 500.91798 503.04457 510.47563 517.2179 524.63687 531.39126 538.12149 545.5404 553.0077 559.7258 562.22708 569.646 573.9113 580.6536 591.9875 598.7056 601.20687 607.23629 613.9544 621.4096 628.13986">Kelompok pengguna utama yang </tspan></text>
</g>
<g clip-path="url(#clip_130)">
<text fill="#5f6368" xml:space="preserve" transform="matrix(1 0 -0 1 0 405.04)" font-size="12.059" font-family="Open Sans"><tspan y="-203.75" x="85.17 92.6104 95.793979 98.977558 106.41795 113.18305 120.58728 124.84411 128.03975 132.28452 135.4681 141.4976 148.20241 153.90631 157.08989 159.21228 170.54775 177.31285 180.47232 187.17713 190.39688 197.83728 201.02086 203.14325 210.58365 217.34876 224.75298 231.51808 234.6896 237.87319 242.13 245.31359 252.01839 259.4829 261.6053 268.3101 275.77464 282.47944 285.6992 292.404 299.86854">diidentifikasi melalui penelitian adalah </tspan></text>
</g>
<g clip-path="url(#clip_131)">
<text fill="#5f6368" xml:space="preserve" transform="matrix(1 0 -0 1 0 405.04)" font-size="12.059" font-family="Open Sans"><tspan y="-203.75" x="302.68 310.1204 315.07664 321.78144 329.24598 335.97489">orang </tspan></text>
</g>
<g clip-path="url(#clip_132)">
<text fill="#5f6368" xml:space="preserve" transform="matrix(1 0 -0 1 0 405.04)" font-size="12.059" font-family="Open Sans"><tspan y="-203.75" x="338.53 344.55949 351.26429 358.72883 365.45774 368.2916 372.54844 375.73204 383.17247 389.87727 396.28059 398.76475 406.20518 413.64558 421.08598 427.11546 433.82026 436.6903 445.91545 452.62025 459.02357 463.2804 470.7208">yang tidak punya waktu </tspan></text>
</g>
<g clip-path="url(#clip_133)">
<text fill="#5f6368" xml:space="preserve" transform="matrix(1 0 -0 1 0 405.04)" font-size="12.059" font-family="Open Sans"><tspan y="-203.75" x="473.71 485.06959 491.8347 495.0062 501.75926 508.1505 515.61508 522.00637 528.7594 536.22396 538.3463 545.8108 552.57589 563.9354 570.7005 576.3682 583.1213 590.5858 597.33889 604.8034 607.28756 613.67886 621.1434 627.90847">melakukan pemesanan kue </tspan></text>
</g>
<g clip-path="url(#clip_134)">
<text fill="#5f6368" xml:space="preserve" transform="matrix(1 0 -0 1 0 405.04)" font-size="12.059" font-family="Open Sans"><tspan y="-187.06" x="94.392 101.832408 109.27281 113.52964 120.97005 127.337207 130.17108 137.61148 144.31629 149.30872 152.4923 154.97646 160.65624 168.09664 174.86174 180.50534 183.68892 190.39373 193.61348 196.44736 207.78282 214.54793 219.468 226.23311 232.60027 239.30507 241.82541 247.50519 254.2703 259.9139 266.6187 271.61116 278.31596 281.5357 284.7193 291.4241 298.88865 305.61756 311.29734 318.73774 326.17814 332.90705 335.02943 342.46986 345.65345 352.02058 358.72538 363.7178 370.4829 377.88716 384.6281 390.99525 397.70005 405.16459">untuk hari spesial mereka secara langsung dikarenakan </tspan></text>
</g>
<g clip-path="url(#clip_135)">
<text fill="#5f6368" xml:space="preserve" transform="matrix(1 0 -0 1 0 405.04)" font-size="12.059" font-family="Open Sans"><tspan y="-187.06" x="407.72 414.08714 420.85224 426.49586 429.67945 437.11988 444.56028 450.9274 457.6322 465.09675 472.53715 478.56663">kesibukannya</tspan></text>
</g>
<g clip-path="url(#clip_136)">
<text fill="#5f6368" xml:space="preserve" transform="matrix(1 0 -0 1 0 405.04)" font-size="12.059" font-family="Open Sans"><tspan y="-187.06" x="487.57 493.2498 500.0149 507.41914 510.61479 518.0552 524.7841 531.51309 538.2179 541.0879 552.42337 559.1884 564.10848 570.87356 577.2407 583.94558 586.4659 593.9063 600.61117 605.6035 613.04397 618.72378">sehingga mereka harus </tspan></text>
</g>
<g clip-path="url(#clip_137)">
<text fill="#5f6368" xml:space="preserve" transform="matrix(1 0 -0 1 0 405.04)" font-size="12.083" font-family="Open Sans"><tspan y="-170.39" x="95.456 106.789859 113.53217 116.71 123.42815 129.82006 137.23902 143.643 150.36116 157.81638 159.943 167.37404 174.11635 185.45021 192.19252 197.87154 204.58969 212.0449 218.76306 226.21828 228.6953 235.06305 242.48201 249.26058 252.088 257.767 264.5093 270.1883 276.90644 281.88465 288.60279 291.80479 299.2358 306.6548 309.86888 313.0467 320.46568 327.24424 330.4583 332.91117 340.33015 347.1087 354.52769 361.9829 368.70106 371.90306 378.6212 381.12236 386.80134 393.51948 400.26179 404.52708 407.3545 418.68833 425.43064 428.60847 435.3266 441.7185 449.13749 455.54148 462.2596 469.71485 471.84144 479.2725 486.0148 497.34864 504.09095 509.76994 516.4881 523.9433 530.66146 538.11666 540.5937 548.0248 555.4437 558.65786 561.8357 569.25466 576.0332 578.51028 585.2284 592.6836 599.40176 602.60379 609.3219 616.7771">melakukan pemesanan kue secara online. Kendala saat melakukan pemesanan online adalah </tspan></text>
</g>
<g clip-path="url(#clip_138)">
<text fill="#5f6368" xml:space="preserve" transform="matrix(1 0 -0 1 0 405.04)" font-size="12.059" font-family="Open Sans"><tspan y="-154.05" x="82.688 90.1284 96.8935 104.29773 111.03871 117.76763 125.20804 132.64844">pengguna</tspan></text>
</g>
<g clip-path="url(#clip_139)">
<text fill="#5f6368" xml:space="preserve" transform="matrix(1 0 -0 1 0 405.04)" font-size="12.059" font-family="Open Sans"><tspan y="-154.05" x="141.94 146.19683 149.3804 156.8208 163.5256">tidak</tspan></text>
</g>
<g clip-path="url(#clip_140)">
<text fill="#5f6368" xml:space="preserve" transform="matrix(1 0 -0 1 0 405.04)" font-size="12.059" font-family="Open Sans"><tspan y="-154.05" x="172.45 179.8904 183.07398 188.75376">bisa</tspan></text>
</g>
<g clip-path="url(#clip_141)">
<text fill="#5f6368" xml:space="preserve" transform="matrix(1 0 -0 1 0 405.04)" font-size="12.059" font-family="Open Sans"><tspan y="-154.05" x="198.36 209.69547 216.46057 219.62004 226.32485 232.06493 238.76973 245.14894 247.6331 255.0735 261.8386 267.4822 274.187 281.65156 288.35636 295.8209 298.65476 309.9902 316.7553 321.67539 328.4405 334.80763 341.51243 344.38249 347.21635 352.89613 359.66123 367.06547 370.2611 377.7015 384.43043 391.15934 397.86415 400.38447 411.7199 418.48503 423.4051 430.1702 436.53733 443.24214 445.76246 453.20286 459.90766 464.9001 472.34049 478.02027 480.85414 486.5339 493.299 496.45848 503.16328 510.6278 513.4617 524.7971 531.5622 538.96646 545.70748 553.1479 559.1774 565.88229 572.2856 578.9904 586.45498 588.57736 594.9445 601.7096 609.10177 615.8548 623.29519 630">melacak pesanan mereka, sehingga mereka harus selau menanyakan kepada </tspan></text>
</g>
<g clip-path="url(#clip_142)">
<text fill="#5f6368" xml:space="preserve" transform="matrix(1 0 -0 1 0 405.04)" font-size="12.083" font-family="Open Sans"><tspan y="-137.38" x="102.2 109.631038 116.37335 123.79231 127.00639 134.42536 141.17977 144.35759 146.83461 158.16847 164.91078 172.32975 179.08415 185.82646 193.24542 199.99983 203.17766 205.30428 210.98329 215.2486 221.96675 226.23206 233.65102 239.3542 242.53205 246.79735 253.52759 258.45747 264.86146 268.03929 275.45826 278.67234 281.14936 288.5804 295.32273 301.0017 307.71986 315.17509 321.89323 329.34846 332.18797 343.5218 350.2641 355.19398 361.97254 368.34028 375.0584 378.2725 380.7495 387.47975 394.22206 397.39988 404.118 407.32 414.73899 417.25224 420.43006 424.69535 432.11433 434.978 438.15583 445.5748 452.3292 463.66304 471.0941 477.81224 482.0775 488.79566 496.26298 498.38957 501.56739 508.28553 511.48753 518.9065 521.4198 527.0988 533.81698 540.55929 544.8246 547.99038 559.3242 566.0665 569.2444 575.9625 582.35446 589.7734 596.17739 602.8955 610.3507">penjual mengenai status terkini pesanan mereka. Selain itu, hambatan lain saat melakukan </tspan></text>
</g>
<g clip-path="url(#clip_143)">
<text fill="#5f6368" xml:space="preserve" transform="matrix(1 0 -0 1 0 405.04)" font-size="12.059" font-family="Open Sans"><tspan y="-120.69" x="95.101 102.5414 109.306499 120.617839 127.382938 133.02654 139.73134 147.19585 153.90065 161.36516 163.84932 171.28972 178.73012 181.9137 185.09728 192.53768 199.30278 201.76282 208.46762 215.93215 222.63695 225.8567 232.56151 240.02602 242.51018 248.87734 256.31773 261.27397 267.97877 275.4433 282.1722 284.65638 287.83998 294.60508 297.76454 304.46934 310.17323 317.61363 323.6431 330.3479 332.86824 340.30867 343.49226 346.67585 349.85945 357.29985 364.00465 371.46919 373.59156 384.927 391.6921 395.94895 403.35316 410.79359 417.5587 420.36845 427.80888 434.57398 445.8853 453.32575 460.03056 466.10829 472.81309 477.7814 484.4862 491.95075 494.07313 500.1026 506.8074 514.2719 521.00088 523.8347 531.2751 537.9799 545.4444 552.14926 556.40609 559.27609 566.71646 569.89999 573.0835 579.7883 586.19168 593.6321 599.99929 606.7041 614.16867 617.37637">pemesanan online adalah kurang jelasnya pilihan metode pembayaran yang dapat dilakukan. </tspan></text>
</g>
<g clip-path="url(#clip_144)">
<text fill="#5f6368" xml:space="preserve" transform="matrix(1 0 -0 1 0 405.04)" font-size="12.059" font-family="Open Sans"><tspan y="-103.99" x="106.1 113.1907 119.955799 127.36002 134.101 140.82993 148.27033 155.71073 162.41553 165.28557 172.72597 179.43077 184.4232 191.8636 197.54338 200.37726 211.71273 218.47783 225.88205 232.62303 240.06343 246.09294 252.79775 259.20109 265.90589">Pengguna harus menanyakan</tspan></text>
</g>
<g clip-path="url(#clip_145)">
<text fill="#5f6368" xml:space="preserve" transform="matrix(1 0 -0 1 0 405.04)" font-size="12.059" font-family="Open Sans"><tspan y="-103.99" x="275.7 287.0596 293.8247 298.08155 305.534 312.99855 319.76365 322.2478 329.71235 336.47746 347.83705 355.30158 362.05464 368.0841 374.83717 379.7934 386.54646">metode pembayaran</tspan></text>
</g>
<g clip-path="url(#clip_146)">
<text fill="#5f6368" xml:space="preserve" transform="matrix(1 0 -0 1 0 405.04)" font-size="12.059" font-family="Open Sans"><tspan y="-103.99" x="396.37 399.5536 406.2584 409.47816">lain</tspan></text>
</g>
<g clip-path="url(#clip_147)">
<text fill="#5f6368" xml:space="preserve" transform="matrix(1 0 -0 1 0 405.04)" font-size="12.059" font-family="Open Sans"><tspan y="-103.99" x="419.42 425.0998 431.8046 438.5697">saat</tspan></text>
</g>
<g clip-path="url(#clip_148)">
<text fill="#5f6368" xml:space="preserve" transform="matrix(1 0 -0 1 0 405.04)" font-size="12.059" font-family="Open Sans"><tspan y="-103.99" x="445.69 457.02546 463.79057 468.0474 475.4516 482.89204">metode</tspan></text>
</g>
<g clip-path="url(#clip_149)">
<text fill="#5f6368" xml:space="preserve" transform="matrix(1 0 -0 1 0 405.04)" font-size="12.059" font-family="Open Sans"><tspan y="-103.99" x="492.53 499.97044 506.73554 518.0469 525.48727 532.1921 538.26986 544.9747 549.94296 556.64779">pembayaran</tspan></text>
</g>
<g clip-path="url(#clip_150)">
<text fill="#5f6368" xml:space="preserve" transform="matrix(1 0 -0 1 0 405.04)" font-size="12.059" font-family="Open Sans"><tspan y="-103.99" x="566.33 572.35958 579.0644 586.52896">yang</tspan></text>
</g>
<g clip-path="url(#clip_151)">
<text fill="#5f6368" xml:space="preserve" transform="matrix(1 0 -0 1 0 405.04)" font-size="12.059" font-family="Open Sans"><tspan y="-103.99" x="596.15 603.5982">di</tspan></text>
</g>
<g clip-path="url(#clip_152)">
<text fill="#5f6368" xml:space="preserve" transform="matrix(1 0 -0 1 0 405.04)" font-size="12.083" font-family="Open Sans"><tspan y="-87.677" x="87.299 91.5643 98.28245 107.51386 114.23201 119.210208 125.57794 132.2961 139.75131 142.22834 148.59609 156.01505 160.99324 167.7114 175.16661">tawarkan kurang</tspan></text>
</g>
<g clip-path="url(#clip_153)">
<text fill="#5f6368" xml:space="preserve" transform="matrix(1 0 -0 1 0 405.04)" font-size="12.083" font-family="Open Sans"><tspan y="-87.677" x="184.88 190.55902 197.30133 202.98035 210.3993 217.15372 220.33156 223.17107 226.01058 232.37833 239.12064 250.4545 257.87348 265.3408 268.51863 275.23677 282.692 285.169 292.60008 299.34239 306.76136 309.97544 317.3944 324.1488 327.32664 329.45323 336.17137 342.56327 349.2814 356.73664 359.57615 370.90998 377.65229 385.07127 391.82566 401.04499 407.76313 412.74134 419.10908 425.8272 433.28245 435.75947 447.0933 453.8356 458.1009 465.53193 472.96299 479.7053 482.1823 485.36015 492.07829 495.28028 502.69926 505.2125 511.2419 517.9601 525.4153 532.1455 534.98507 542.4161 549.1342 556.5894 563.30758 567.5729 570.4245 577.8555 581.0334 584.21127 590.9294 597.3213 604.74026 611.1442 617.86239 625.31759">sesuai, kemudian penjual akan menawarkan metode lain yang dapat dilakukan </tspan></text>
</g>
<g clip-path="url(#clip_154)">
<text fill="#5f6368" xml:space="preserve" transform="matrix(1 0 -0 1 0 405.04)" font-size="12.059" font-family="Open Sans"><tspan y="-70.983" x="104.68 112.1204 118.8855 126.28973 133.0307 139.75963 147.20003 154.64043 161.34523 164.55292 167.04914 173.77806 180.54317 187.94739 191.14304 198.58344 205.31237 212.04129 218.7461 221.26644 225.52326 232.28836 237.20844 244.66089 251.36569 258.83024 265.53504 269.79188 272.3122 278.67933 285.44444 296.75578 304.19618 311.63658 318.36549 324.7326 327.9162 335.3566 342.0614 349.52595 351.64833 359.08876 365.85386 373.2581 379.99909 386.728 394.1684 401.6088 408.3136 410.83393 414.01753 420.72233 423.94209 431.38249 433.86665 438.12348 441.30708 448.7475 455.4523 461.85563 464.33979 475.67524 482.44035 489.84458 496.58558 503.35069 507.6075 514.3123 521.75277 529.1932 532.3767 534.86087 538.0444 544.80947 552.2137 555.4093 561.0891 563.923 575.2584 582.0235 586.28036 593.6846 601.12496 607.89">pengguna. Sehingga terdapat kemungkinan pengguna lain tidak mengetahui jenis metode </tspan></text>
</g>
<g clip-path="url(#clip_155)">
<text fill="#5f6368" xml:space="preserve" transform="matrix(1 0 -0 1 0 405.04)" font-size="12.083" font-family="Open Sans"><tspan y="-54.313" x="217.51 224.94104 231.68335 243.01721 250.44826 257.1664 263.22 269.93815 274.91636 281.6345 289.08973 291.2163 297.93446 305.38969 312.10783 314.97148 320.65046 327.3686 330.5706 337.28874 340.15238 346.1818 352.89994 360.35517 367.0854 369.9249 377.35597 384.0741 391.52934 398.24748 402.51277 405.36436 416.69819 423.4405 428.37037 435.14894 441.51667 448.2348 450.73597 453.9138 460.63194 467.02384 474.4428 480.8468 487.56495 495.02018">pembayaran apa saja yang dapat mereka lakukan </tspan></text>
</g>
<path transform="matrix(1,0,0,-1,0,405.04)" d="M333.04 286.23C333.04 297.39 342.1 306.44 353.26 306.44 364.43 306.44 373.48 297.39 373.48 286.23 373.48 275.06 364.43 266.01 353.26 266.01 342.1 266.01 333.04 275.06 333.04 286.23Z" fill="#ea4335" fill-rule="evenodd"/>
<path transform="matrix(1,0,0,-1,0,405.04)" d="M360.15 295.09H346.36C345.28 295.09 344.39 294.17 344.39 293.08V279.04C344.39 277.95 345.28 277.02 346.36 277.02H360.15C361.2 277.02 362.11 277.95 362.11 279.04V293.08C362.11 294.17 361.2 295.09 360.15 295.09ZM350.3 280.98H348.32V288.04H350.3V280.98ZM354.24 280.98H352.26V291.02H354.24V280.98ZM358.17 280.98H356.2V285H358.17V280.98Z" fill="#ffffff" fill-rule="evenodd"/>
</g>
</svg>
