<svg xmlns="http://www.w3.org/2000/svg" xmlns:xlink="http://www.w3.org/1999/xlink" version="1.1" width="720pt" height="405.04pt" viewBox="0 0 720 405.04">
<defs>
<clipPath id="clip_512">
<path transform="matrix(1,0,0,-1,0,405.04)" d="M0 .000061035H720V405.04008H0Z" fill-rule="evenodd"/>
</clipPath>
<clipPath id="clip_513">
<path transform="matrix(1,0,0,-1,0,405.04)" d="M.000010729 .000030518H720V405.04005H.000010729Z" fill-rule="evenodd"/>
</clipPath>
<clipPath id="clip_514">
<path transform="matrix(1,0,0,-1,0,405.04)" d="M.000010729 .000030518H720V405.04005H.000010729Z" fill-rule="evenodd"/>
</clipPath>
<clipPath id="clip_515">
<path transform="matrix(1,0,0,-1,0,405.04)" d="M.000010729 .000030518H720V405.04005H.000010729Z" fill-rule="evenodd"/>
</clipPath>
<clipPath id="clip_516">
<path transform="matrix(1,0,0,-1,0,405.04)" d="M.000010729 .000030518H720V405.04005H.000010729Z" fill-rule="evenodd"/>
</clipPath>
<clipPath id="clip_517">
<path transform="matrix(1,0,0,-1,0,405.04)" d="M.000010729 .000030518H720V405.04005H.000010729Z" fill-rule="evenodd"/>
</clipPath>
<clipPath id="clip_518">
<path transform="matrix(1,0,0,-1,0,405.04)" d="M.000010729 .000030518H720V405.04005H.000010729Z" fill-rule="evenodd"/>
</clipPath>
<clipPath id="clip_519">
<path transform="matrix(1,0,0,-1,0,405.04)" d="M.000010729 .000030518H720V405.04005H.000010729Z" fill-rule="evenodd"/>
</clipPath>
<clipPath id="clip_520">
<path transform="matrix(1,0,0,-1,0,405.04)" d="M.000010729 .000030518H720V405.04005H.000010729Z" fill-rule="evenodd"/>
</clipPath>
<clipPath id="clip_521">
<path transform="matrix(1,0,0,-1,0,405.04)" d="M.000010729 .000030518H720V405.04005H.000010729Z" fill-rule="evenodd"/>
</clipPath>
<clipPath id="clip_522">
<path transform="matrix(1,0,0,-1,0,405.04)" d="M.000010729 .000030518H720V405.04005H.000010729Z" fill-rule="evenodd"/>
</clipPath>
<clipPath id="clip_523">
<path transform="matrix(1,0,0,-1,0,405.04)" d="M.000010729 .000030518H720V405.04005H.000010729Z" fill-rule="evenodd"/>
</clipPath>
<clipPath id="clip_524">
<path transform="matrix(1,0,0,-1,0,405.04)" d="M.000010729 .000030518H720V405.04005H.000010729Z" fill-rule="evenodd"/>
</clipPath>
<clipPath id="clip_525">
<path transform="matrix(1,0,0,-1,0,405.04)" d="M.000010729 .000030518H720V405.04005H.000010729Z" fill-rule="evenodd"/>
</clipPath>
<clipPath id="clip_526">
<path transform="matrix(1,0,0,-1,0,405.04)" d="M.000010729 .000030518H720V405.04005H.000010729Z" fill-rule="evenodd"/>
</clipPath>
<clipPath id="clip_527">
<path transform="matrix(1,0,0,-1,0,405.04)" d="M.000010729 .000030518H720V405.04005H.000010729Z" fill-rule="evenodd"/>
</clipPath>
<clipPath id="clip_528">
<path transform="matrix(1,0,0,-1,0,405.04)" d="M.000010729 .000030518H720V405.04005H.000010729Z" fill-rule="evenodd"/>
</clipPath>
<clipPath id="clip_529">
<path transform="matrix(1,0,0,-1,0,405.04)" d="M.000010729 .000030518H720V405.04005H.000010729Z" fill-rule="evenodd"/>
</clipPath>
<clipPath id="clip_530">
<path transform="matrix(1,0,0,-1,0,405.04)" d="M.000010729 .000030518H720V405.04005H.000010729Z" fill-rule="evenodd"/>
</clipPath>
<clipPath id="clip_531">
<path transform="matrix(1,0,0,-1,0,405.04)" d="M.000010729 .000030518H720V405.04005H.000010729Z" fill-rule="evenodd"/>
</clipPath>
<clipPath id="clip_532">
<path transform="matrix(1,0,0,-1,0,405.04)" d="M.000010729 .000030518H720V405.04005H.000010729Z" fill-rule="evenodd"/>
</clipPath>
</defs>
<g>
<g clip-path="url(#clip_512)">
<path transform="matrix(1,0,0,-1,0,405.04)" d="M0 .000030518H720V405.04005H0Z" fill="#ffffff" fill-rule="evenodd"/>
</g>
<path transform="matrix(1,0,0,-1,0,405.04)" d="M0 319.92H5.3202V379.151H0Z" fill="#9aa0a6" fill-rule="evenodd"/>
<g clip-path="url(#clip_513)">
<text fill="#5f6368" xml:space="preserve" transform="matrix(1 0 -0 1 0 405.04)" font-size="24.142" font-family="Open Sans"><tspan y="-333.8" x="40.788 53.196989 66.61994 81.539699 94.67295 107.41993 120.84288 135.76265 141.43602 156.3075 169.85117 179.7011 185.80902 198.48357 213.3792 221.90132 236.72452 248.89209">Langkah berikutnya</tspan></text>
</g>
<path transform="matrix(1,0,0,-1,0,405.04)" d="M166.7 41.498H358.58003V291.188H166.7Z" fill="#f8f9fa" fill-rule="evenodd"/>
<g clip-path="url(#clip_514)">
<text fill="#5f6368" xml:space="preserve" transform="matrix(1 0 -0 1 0 405.04)" font-size="12.059" font-family="Open Sans"><tspan y="-236.43" x="192.14 199.5804 206.3455 217.65685 225.09725 231.80205 235.0218 238.20539 240.32778 251.66324 258.42835 261.5878 268.2926 274.69593 282.13633 288.50346 295.20826 302.6728 304.79518 310.47496 314.73179 322.17219 329.6126 332.7962">Kembali melakukan studi </tspan></text>
</g>
<g clip-path="url(#clip_515)">
<text fill="#5f6368" xml:space="preserve" transform="matrix(1 0 -0 1 0 405.04)" font-size="12.083" font-family="Open Sans,Italic" font-style="italic"><tspan y="-219.76" x="224.44 231.18231 236.14842 242.17783 248.55765 251.39714 253.87415 256.71366 260.62855">usability</tspan></text>
</g>
<g clip-path="url(#clip_516)">
<text fill="#5f6368" xml:space="preserve" transform="matrix(1 0 -0 1 0 405.04)" font-size="12.083" font-family="Open Sans"><tspan y="-219.76" x="266.32"> </tspan></text>
</g>
<g clip-path="url(#clip_517)">
<text fill="#5f6368" xml:space="preserve" transform="matrix(1 0 -0 1 0 405.04)" font-size="12.083" font-family="Open Sans"><tspan y="-219.76" x="268.09 275.50898 282.9763 287.24159 294.66056 301.05247">untuk </tspan></text>
</g>
<g clip-path="url(#clip_518)">
<text fill="#5f6368" xml:space="preserve" transform="matrix(1 0 -0 1 0 405.04)" font-size="12.059" font-family="Open Sans"><tspan y="-203.42" x="189.3 200.63547 207.40058 218.71192 224.75348 231.45829 234.66599 237.84957 245.28997 251.99477 257.69868 260.53254 262.6549 269.3597 276.82426 283.52906 289.93238 296.63719 304.1017 306.58589 314.0263 321.4667 324.6503">memvalidasi apakah poin</tspan></text>
</g>
<g clip-path="url(#clip_519)">
<text fill="#5f6368" xml:space="preserve" transform="matrix(1 0 -0 1 0 405.04)" font-size="12.059" font-family="Open Sans"><tspan y="-203.42" x="332.31">-</tspan></text>
</g>
<g clip-path="url(#clip_520)">
<text fill="#5f6368" xml:space="preserve" transform="matrix(1 0 -0 1 0 405.04)" font-size="12.059" font-family="Open Sans"><tspan y="-186.73" x="209.9 217.3404 224.78079 227.96437 235.40477 237.88893 249.2244 255.9292 261.6331 268.3379 271.55766 278.26246 285.727 288.21116 294.24064 300.94544 308.40998 315.1389">poin masalah yang </tspan></text>
</g>
<g clip-path="url(#clip_521)">
<text fill="#5f6368" xml:space="preserve" transform="matrix(1 0 -0 1 0 405.04)" font-size="12.083" font-family="Open Sans"><tspan y="-170.06" x="196.75 204.2052 207.38304 214.13745 217.31529 224.0697 235.42774 238.60558 240.7322 248.1874 254.96596 262.4091 269.16349 275.91789 283.3731 290.82835 297.58274 300.05976 304.32505 311.1036 314.25727 321.01167 328.4669">dialami pengguna telah </tspan></text>
</g>
<g clip-path="url(#clip_522)">
<text fill="#5f6368" xml:space="preserve" transform="matrix(1 0 -0 1 0 405.04)" font-size="12.059" font-family="Open Sans"><tspan y="-153.72" x="195.69 203.1304 206.31398 210.5708 217.2756 224.74011 231.46904 238.17385 245.63835 248.82193 250.94432 256.6241 263.38923 269.03285 275.73765 280.73008 287.43489 290.30494 297.07005 301.2907 308.05583 314.38679 318.64363 321.85133 326.0961">ditangani secara efektif.</tspan></text>
</g>
<path transform="matrix(1,0,0,-1,0,405.04)" d="M375.96 41.498H567.83999V291.188H375.96Z" fill="#f8f9fa" fill-rule="evenodd"/>
<g clip-path="url(#clip_523)">
<text fill="#5f6368" xml:space="preserve" transform="matrix(1 0 -0 1 0 405.04)" font-size="12.059" font-family="Open Sans"><tspan y="-236.43" x="404.33 415.33985 422.10496 425.3006 432.05366 438.44493 445.90946 452.30073 459.05378 466.5183 468.6407 471.8484 478.6135 486.06599 489.27369 496.73823 499.22239 506.68693 513.43997 520.9045 526.98226 533.6871 540.11459">Melakukan lebih banyak </tspan></text>
</g>
<g clip-path="url(#clip_524)">
<text fill="#5f6368" xml:space="preserve" transform="matrix(1 0 -0 1 0 405.04)" font-size="12.083" font-family="Open Sans"><tspan y="-219.76" x="414.29 421.72108 428.46339 435.88236 442.66093 445.82667 449.0045 453.26979 456.43553 463.15367 470.6089 472.73548 480.16654 486.90885 494.32783 501.0822 507.81245 515.2314 522.69869 529.4168">penelitian pengguna </tspan></text>
</g>
<g clip-path="url(#clip_525)">
<text fill="#5f6368" xml:space="preserve" transform="matrix(1 0 -0 1 0 405.04)" font-size="12.059" font-family="Open Sans"><tspan y="-203.42" x="418.19 425.6304 433.0708 437.32765 444.76805 451.13517 453.96903 465.30448 472.06959 479.47383 486.23893 493.64317 497.9 505.3766 511.7437 518.44857 525.9131">untuk menentukan </tspan></text>
</g>
<g clip-path="url(#clip_526)">
<text fill="#5f6368" xml:space="preserve" transform="matrix(1 0 -0 1 0 405.04)" font-size="12.059" font-family="Open Sans"><tspan y="-186.73" x="408.61 414.9771 421.74223 429.1344 436.59895 440.85578 448.29618 455.73658 462.44139 469.9059 472.39009 479.8305 486.5353 493.99986 496.8337 504.2741 510.9789">kebutuhan dan hal</tspan></text>
</g>
<g clip-path="url(#clip_527)">
<text fill="#5f6368" xml:space="preserve" transform="matrix(1 0 -0 1 0 405.04)" font-size="12.059" font-family="Open Sans"><tspan y="-186.73" x="514.36">-</tspan></text>
</g>
<g clip-path="url(#clip_528)">
<text fill="#5f6368" xml:space="preserve" transform="matrix(1 0 -0 1 0 405.04)" font-size="12.059" font-family="Open Sans"><tspan y="-186.73" x="518.26 525.70046 532.4053 535.625">hal </tspan></text>
</g>
<g clip-path="url(#clip_529)">
<text fill="#5f6368" xml:space="preserve" transform="matrix(1 0 -0 1 0 405.04)" font-size="12.083" font-family="Open Sans"><tspan y="-170.06" x="422.45 429.88108 436.5992 441.57743 448.9964 451.86006 455.03788 461.756 464.958 472.37699 479.8443 485.87373 492.59187 494.7426 500.77204 507.49018 514.9454 521.6756">baru lainnya yang </tspan></text>
</g>
<g clip-path="url(#clip_530)">
<text fill="#5f6368" xml:space="preserve" transform="matrix(1 0 -0 1 0 405.04)" font-size="12.059" font-family="Open Sans"><tspan y="-153.72" x="437.7 445.14045 448.32405 455.76448 463.20487 467.4617 474.9021 482.3425 488.70964 495.41444 502.87898">dibutuhkan.</tspan></text>
</g>
<path transform="matrix(1,0,0,-1,0,405.04)" d="M242.6 293.32C242.6 304.49 251.65 313.54 262.82 313.54 273.98 313.54 283.03 304.49 283.03 293.32 283.03 282.15 273.98 273.1 262.82 273.1 251.65 273.1 242.6 282.15 242.6 293.32Z" fill="#5f6368" fill-rule="evenodd"/>
<g clip-path="url(#clip_531)">
<text fill="#ffffff" xml:space="preserve" transform="matrix(1 0 -0 1 0 405.04)" font-size="22.014" font-family="1"><tspan y="-286.37" x="258.11">1</tspan></text>
</g>
<path transform="matrix(1,0,0,-1,0,405.04)" d="M451.86 293.32C451.86 304.49 460.91 313.54 472.08 313.54 483.24 313.54 492.3 304.49 492.3 293.32 492.3 282.15 483.24 273.1 472.08 273.1 460.91 273.1 451.86 282.15 451.86 293.32Z" fill="#5f6368" fill-rule="evenodd"/>
<g clip-path="url(#clip_532)">
<text fill="#ffffff" xml:space="preserve" transform="matrix(1 0 -0 1 0 405.04)" font-size="22.014" font-family="1"><tspan y="-286.37" x="466.05">2</tspan></text>
</g>
</g>
</svg>
