<svg xmlns="http://www.w3.org/2000/svg" xmlns:xlink="http://www.w3.org/1999/xlink" version="1.1" width="720pt" height="405.04pt" viewBox="0 0 720 405.04">
<defs>
<clipPath id="clip_331">
<path transform="matrix(1,0,0,-1,0,405.04)" d="M0 .000061035H720V405.04008H0Z" fill-rule="evenodd"/>
</clipPath>
<clipPath id="clip_332">
<path transform="matrix(1,0,0,-1,0,405.04)" d="M.000010729 .000030518H720V405.04005H.000010729Z" fill-rule="evenodd"/>
</clipPath>
<clipPath id="clip_333">
<path transform="matrix(1,0,0,-1,0,405.04)" d="M.000010729 .000030518H720V405.04005H.000010729Z" fill-rule="evenodd"/>
</clipPath>
<clipPath id="clip_334">
<path transform="matrix(1,0,0,-1,0,405.04)" d="M.000010729 .000030518H720V405.04005H.000010729Z" fill-rule="evenodd"/>
</clipPath>
<clipPath id="clip_335">
<path transform="matrix(1,0,0,-1,0,405.04)" d="M.000010729 .000030518H720V405.04005H.000010729Z" fill-rule="evenodd"/>
</clipPath>
<clipPath id="clip_336">
<path transform="matrix(1,0,0,-1,0,405.04)" d="M.000010729 .000030518H720V405.04005H.000010729Z" fill-rule="evenodd"/>
</clipPath>
<clipPath id="clip_337">
<path transform="matrix(1,0,0,-1,0,405.04)" d="M.000010729 .000030518H720V405.04005H.000010729Z" fill-rule="evenodd"/>
</clipPath>
<clipPath id="clip_338">
<path transform="matrix(1,0,0,-1,0,405.04)" d="M.000010729 .000030518H720V405.04005H.000010729Z" fill-rule="evenodd"/>
</clipPath>
<clipPath id="clip_339">
<path transform="matrix(1,0,0,-1,0,405.04)" d="M.000010729 .000030518H720V405.04005H.000010729Z" fill-rule="evenodd"/>
</clipPath>
<clipPath id="clip_340">
<path transform="matrix(1,0,0,-1,0,405.04)" d="M.000010729 .000030518H720V405.04005H.000010729Z" fill-rule="evenodd"/>
</clipPath>
<clipPath id="clip_341">
<path transform="matrix(1,0,0,-1,0,405.04)" d="M.000010729 .000030518H720V405.04005H.000010729Z" fill-rule="evenodd"/>
</clipPath>
<clipPath id="clip_342">
<path transform="matrix(1,0,0,-1,0,405.04)" d="M.000010729 .000030518H720V405.04005H.000010729Z" fill-rule="evenodd"/>
</clipPath>
<clipPath id="clip_343">
<path transform="matrix(1,0,0,-1,0,405.04)" d="M.000010729 .000030518H720V405.04005H.000010729Z" fill-rule="evenodd"/>
</clipPath>
<clipPath id="clip_344">
<path transform="matrix(1,0,0,-1,0,405.04)" d="M.000010729 .000030518H720V405.04005H.000010729Z" fill-rule="evenodd"/>
</clipPath>
<clipPath id="clip_345">
<path transform="matrix(1,0,0,-1,0,405.04)" d="M.000010729 .000030518H720V405.04005H.000010729Z" fill-rule="evenodd"/>
</clipPath>
<clipPath id="clip_346">
<path transform="matrix(1,0,0,-1,0,405.04)" d="M.000010729 .000030518H720V405.04005H.000010729Z" fill-rule="evenodd"/>
</clipPath>
<clipPath id="clip_347">
<path transform="matrix(1,0,0,-1,0,405.04)" d="M.000010729 .000030518H720V405.04005H.000010729Z" fill-rule="evenodd"/>
</clipPath>
<clipPath id="clip_348">
<path transform="matrix(1,0,0,-1,0,405.04)" d="M.000010729 .000030518H720V405.04005H.000010729Z" fill-rule="evenodd"/>
</clipPath>
<clipPath id="clip_349">
<path transform="matrix(1,0,0,-1,0,405.04)" d="M.000010729 .000030518H720V405.04005H.000010729Z" fill-rule="evenodd"/>
</clipPath>
<clipPath id="clip_350">
<path transform="matrix(1,0,0,-1,0,405.04)" d="M.000010729 .000030518H720V405.04005H.000010729Z" fill-rule="evenodd"/>
</clipPath>
<clipPath id="clip_351">
<path transform="matrix(1,0,0,-1,0,405.04)" d="M.000010729 .000030518H720V405.04005H.000010729Z" fill-rule="evenodd"/>
</clipPath>
<clipPath id="clip_352">
<path transform="matrix(1,0,0,-1,0,405.04)" d="M.000010729 .000030518H720V405.04005H.000010729Z" fill-rule="evenodd"/>
</clipPath>
<clipPath id="clip_353">
<path transform="matrix(1,0,0,-1,0,405.04)" d="M.000010729 .000030518H720V405.04005H.000010729Z" fill-rule="evenodd"/>
</clipPath>
<clipPath id="clip_354">
<path transform="matrix(1,0,0,-1,0,405.04)" d="M.000010729 .000030518H720V405.04005H.000010729Z" fill-rule="evenodd"/>
</clipPath>
<clipPath id="clip_355">
<path transform="matrix(1,0,0,-1,0,405.04)" d="M.000010729 .000030518H720V405.04005H.000010729Z" fill-rule="evenodd"/>
</clipPath>
</defs>
<g>
<g clip-path="url(#clip_331)">
<path transform="matrix(1,0,0,-1,0,405.04)" d="M0 .000030518H720V405.04005H0Z" fill="#ffffff" fill-rule="evenodd"/>
</g>
<path transform="matrix(1,0,0,-1,0,405.04)" d="M0 319.92H5.3202V379.151H0Z" fill="#fbbc04" fill-rule="evenodd"/>
<g clip-path="url(#clip_332)">
<text fill="#5f6368" xml:space="preserve" transform="matrix(1 0 -0 1 0 405.04)" font-size="24.142" font-family="Open Sans"><tspan y="-340.16" x="40.788 53.92125 62.443376 77.26656 92.210468 98.245967">Studi </tspan></text>
</g>
<g clip-path="url(#clip_333)">
<text fill="#5f6368" xml:space="preserve" transform="matrix(1 0 -0 1 0 405.04)" font-size="24.142" font-family="Open Sans,Italic" font-style="italic"><tspan y="-340.16" x="104.3 117.43325 127.017627 139.4266 151.83559 157.50896 162.82019 168.49356 176.31557">usability</tspan></text>
</g>
<g clip-path="url(#clip_334)">
<text fill="#5f6368" xml:space="preserve" transform="matrix(1 0 -0 1 0 405.04)" font-size="24.142" font-family="Open Sans"><tspan y="-340.16" x="187.34 193.37549 198.68672 207.20885 220.68007 243.03556 257.907 271.32997">: temuan</tspan></text>
</g>
<g clip-path="url(#clip_335)">
<text fill="#5f6368" xml:space="preserve" transform="matrix(1 0 -0 1 0 405.04)" font-size="13.833" font-family="Open Sans"><tspan y="-300.48" x="41.97 49.75798 58.251443 61.806524 65.33394 72.05678 79.153118 86.94109 95.434558 99.335468 107.815097 115.63074 124.1242 131.59403 139.382 147.87548 152.84152 160.6295 166.27336 170.54775 177.27059 180.798 189.29148 196.7613 203.85764 211.64562 216.59784 220.48491 225.43714 233.22512 241.71858 246.68463 254.47261 262.96607 270.43589 274.68263 281.40547 286.35768 294.85115 303.37226 306.8997">Tuliskan pengantar singkat tentang studi </tspan></text>
</g>
<g clip-path="url(#clip_336)">
<text fill="#5f6368" xml:space="preserve" transform="matrix(1 0 -0 1 0 405.04)" font-size="13.833" font-family="Open Sans,Italic" font-style="italic"><tspan y="-300.48" x="310.96 319.1076 324.77915 331.87547 339.3176 342.51304 345.70848 348.9039 353.49647">usability</tspan></text>
</g>
<g clip-path="url(#clip_337)">
<text fill="#5f6368" xml:space="preserve" transform="matrix(1 0 -0 1 0 405.04)" font-size="13.833" font-family="Open Sans"><tspan y="-300.48" x="362.77 369.85249 377.64048 386.13395 393.60377 397.14503 405.62464 409.19355 412.72099 420.50898 427.60533 436.0988 443.20896 450.99696 459.49043 463.75099 472.2306 480.04627 488.53974 492.44065 497.39286 505.18086 517.9487 526.4422 534.244 542.7375 546.99807 555.85116 564.3446 572.8657 580.6537">yang dilakukan dan temuan Anda.</tspan></text>
</g>
<g clip-path="url(#clip_338)">
<text fill="#f29900" xml:space="preserve" transform="matrix(1 0 -0 1 0 405.04)" font-size="13.833" font-family="Open Sans,Bold" font-weight="bold"><tspan y="-223.87" x="43.176 51.323637 59.49894 72.95845 82.17123 90.66469 99.877468 103.76454 109.76807 118.28919 127.50197 135.99544 144.84856 148.73563">Temuan tahap 1</tspan></text>
</g>
<path transform="matrix(1,0,0,-1,0,405.04)" d="M352.55 30.502H649.77V214.222H352.55Z" fill="#f8f9fa" fill-rule="evenodd"/>
<g clip-path="url(#clip_339)">
<text fill="#5f6368" xml:space="preserve" transform="matrix(1 0 -0 1 0 405.04)" font-size="13.856" font-family="Open Sans"><tspan y="-180.86" x="399.87 408.0312 415.8044 424.312 431.79426 439.24879 447.75639 456.26399">Pengguna</tspan></text>
</g>
<g clip-path="url(#clip_340)">
<text fill="#5f6368" xml:space="preserve" transform="matrix(1 0 -0 1 0 405.04)" font-size="13.856" font-family="Open Sans"><tspan y="-180.86" x="468.72 481.49525 489.26847 494.9633 502.75038 509.47053">merasa</tspan></text>
</g>
<g clip-path="url(#clip_341)">
<text fill="#5f6368" xml:space="preserve" transform="matrix(1 0 -0 1 0 405.04)" font-size="13.856" font-family="Open Sans"><tspan y="-180.86" x="521.24 526.1866 534.69418 538.2274 541.733 548.4947 556.28176 564.7893 568.3364 576.83016 584.63107 593.12478 600.92568">tulisan pada </tspan></text>
</g>
<g clip-path="url(#clip_342)">
<text fill="#5f6368" xml:space="preserve" transform="matrix(1 0 -0 1 0 405.04)" font-size="13.833" font-family="Open Sans"><tspan y="-161.69" x="399.87 404.8222 413.31568 426.08354 434.56318 443.09815 446.62559 450.51268 457.2355 465.72898 469.28407 472.8115 477.7637 481.30497 489.79844 498.2919 503.2856 511.77909 518.8892 523.1359 531.61557 535.18447 543.66409 551.47976 558.2026">tombol sulit untuk dibaca</tspan></text>
</g>
<path transform="matrix(1,0,0,-1,0,405.04)" d="M367.8 187.09C367.8 193.07 372.65 197.91 378.62 197.91 384.6 197.91 389.44 193.07 389.44 187.09 389.44 181.12 384.6 176.28 378.62 176.28 372.65 176.28 367.8 181.12 367.8 187.09Z" fill="#f29900" fill-rule="evenodd"/>
<g clip-path="url(#clip_343)">
<text fill="#ffffff" xml:space="preserve" transform="matrix(1 0 -0 1 0 405.04)" font-size="13.833" font-family="1"><tspan y="-182.12" x="375.82">1</tspan></text>
</g>
<g clip-path="url(#clip_344)">
<text fill="#f29900" xml:space="preserve" transform="matrix(1 0 -0 1 0 405.04)" font-size="13.833" font-family="Open Sans,Bold" font-weight="bold"><tspan y="-223.87" x="355.15 363.29765 371.47294 384.93244 394.14524 402.6387 411.8515 415.7386 421.7421 430.2632 439.476 447.96949 456.8226 460.7097">Temuan tahap 2</tspan></text>
</g>
<path transform="matrix(1,0,0,-1,0,405.04)" d="M35.823 30.502H333.40299V214.222H35.823Z" fill="#f8f9fa" fill-rule="evenodd"/>
<g clip-path="url(#clip_345)">
<text fill="#6c6c6c" xml:space="preserve" transform="matrix(1 0 -0 1 0 405.04)" font-size="13.856" font-family="Open Sans"><tspan y="-188.88" x="83.09 91.251178 99.02439 107.531978 115.01421 122.46874 130.97634 139.48392 147.28484 151.88503 164.66025 172.43347 185.23642 193.00965 198.70446 202.21002 210.74532 217.83959 225.62665 234.13423 238.73442 245.45459 253.24166 258.8949 266.7097 270.25685 277.33726 285.12434 293.63194 301.08647">Pengguna memerlukan cara yang </tspan></text>
</g>
<g clip-path="url(#clip_346)">
<text fill="#6c6c6c" xml:space="preserve" transform="matrix(1 0 -0 1 0 405.04)" font-size="13.856" font-family="Open Sans"><tspan y="-169.7" x="83.09 86.595569 94.42421 102.91794 106.46507 114.97266 118.866199 122.371768 130.90706 135.85366 144.36124 147.89452 152.84111 156.34668 161.0023 164.89583 173.40341 181.911 186.87145 195.37903 202.4733 206.71323 219.48845 227.26168 235.76926 243.2515 251.03856 258.13285 264.853 272.62623 279.37409 283.61405 291.40113 294.90669 302.73533 315.51057 323.29765 328.24424">lebih intuitif untuk mengakses alamat </tspan></text>
</g>
<g clip-path="url(#clip_347)">
<text fill="#6c6c6c" xml:space="preserve" transform="matrix(1 0 -0 1 0 405.04)" font-size="13.833" font-family="Open Sans"><tspan y="-150.17" x="83.09 88.04221 95.83019 101.47406 108.22456 111.751979 124.51984 132.99947 140.81511 149.30858">tersimpan.</tspan></text>
</g>
<path transform="matrix(1,0,0,-1,0,405.04)" d="M51.074 194.9C51.074 200.87 55.917 205.71 61.892 205.71 67.866 205.71 72.709 200.87 72.709 194.9 72.709 188.92 67.866 184.08 61.892 184.08 55.917 184.08 51.074 188.92 51.074 194.9Z" fill="#f29900" fill-rule="evenodd"/>
<g clip-path="url(#clip_348)">
<text fill="#ffffff" xml:space="preserve" transform="matrix(1 0 -0 1 0 405.04)" font-size="13.856" font-family="1"><tspan y="-190.13" x="59.042">1</tspan></text>
</g>
<g clip-path="url(#clip_349)">
<text fill="#6c6c6c" xml:space="preserve" transform="matrix(1 0 -0 1 0 405.04)" font-size="13.856" font-family="Open Sans"><tspan y="-128.94" x="83.09 95.504978 103.27819 111.785778 119.61441 132.38964 140.88336 148.68428 157.19187 164.28614 172.0732 180.58078 185.18097 189.79503 193.3006 198.28876 206.79634 212.44959 216.35697 224.86455 233.37213 238.33258 246.84017 253.93444">Menambahkan fitur untuk </tspan></text>
</g>
<g clip-path="url(#clip_350)">
<text fill="#6c6c6c" xml:space="preserve" transform="matrix(1 0 -0 1 0 405.04)" font-size="13.833" font-family="Open Sans"><tspan y="-109.76" x="83.09 95.85786 103.645839 112.1393 119.23563 127.72909 136.22255 141.21627 144.74369 153.23715 160.70699 165.29953 173.08751 176.61493 184.40291 197.17076 204.95874 209.91097 213.45221 218.40444 226.19242 231.83628 238.58678 242.1142 254.88205 263.3617 271.17738 279.67085 283.23976">menyunting alamat tersimpan. </tspan></text>
</g>
<path transform="matrix(1,0,0,-1,0,405.04)" d="M51.074 135.31C51.074 141.28 55.917 146.13 61.892 146.13 67.866 146.13 72.709 141.28 72.709 135.31 72.709 129.34 67.866 124.49 61.892 124.49 55.917 124.49 51.074 129.34 51.074 135.31Z" fill="#f29900" fill-rule="evenodd"/>
<g clip-path="url(#clip_351)">
<text fill="#ffffff" xml:space="preserve" transform="matrix(1 0 -0 1 0 405.04)" font-size="13.833" font-family="1"><tspan y="-130.19" x="58.333">2</tspan></text>
</g>
<g clip-path="url(#clip_352)">
<text fill="#6c6c6c" xml:space="preserve" transform="matrix(1 0 -0 1 0 405.04)" font-size="13.833" font-family="Roboto"><tspan y="-78.148" x="79.377 88.23012 95.65844 103.44642 111.220569 119.03621 126.82419 134.61217 142.05432 145.58174 157.64412 165.07245 177.13483 184.56316 189.16956 192.36498 200.15296 207.23546 214.67761 222.46559 226.71233 233.80866 241.25081 245.85721 253.29936 257.5461 263.93696 271.3791 279.16706 286.9412 290.85594 294.05137 301.47969 309.2538 312.4769 319.91905">Pengguna memerlukan cara yang lebih </tspan></text>
</g>
<g clip-path="url(#clip_353)">
<text fill="#6c6c6c" xml:space="preserve" transform="matrix(1 0 -0 1 0 405.04)" font-size="13.856" font-family="Roboto"><tspan y="-58.995" x="79.377 82.56387 90.350948 94.95114 102.73821 105.925098 110.52529 113.71217 118.65877 122.5523 130.33937 138.12645 142.72664 150.51372 157.59413 160.78102 172.83576 180.27642 188.06349 195.85057 203.31896 210.39937 217.49365 224.93431 232.0286 236.26854 243.36283 247.96302 255.41754 260.01774 267.80479 274.89906">intuitif untuk mengakses status </tspan></text>
</g>
<g clip-path="url(#clip_354)">
<text fill="#6c6c6c" xml:space="preserve" transform="matrix(1 0 -0 1 0 405.04)" font-size="13.856" font-family="Roboto"><tspan y="-39.464" x="79.377 87.16407 94.6186 101.71287 109.1674 116.95447 124.409 132.19608">pesanan.</tspan></text>
</g>
<path transform="matrix(1,0,0,-1,0,405.04)" d="M51.074 84.591C51.074 90.566 55.917 95.409 61.892 95.409 67.866 95.409 72.709 90.566 72.709 84.591 72.709 78.617 67.866 73.773 61.892 73.773 55.917 73.773 51.074 78.617 51.074 84.591Z" fill="#f29900" fill-rule="evenodd"/>
<g clip-path="url(#clip_355)">
<text fill="#ffffff" xml:space="preserve" transform="matrix(1 0 -0 1 0 405.04)" font-size="13.856" font-family="1"><tspan y="-79.425" x="57.978">3</tspan></text>
</g>
</g>
</svg>
