<svg xmlns="http://www.w3.org/2000/svg" xmlns:xlink="http://www.w3.org/1999/xlink" version="1.1" width="720pt" height="405.04pt" viewBox="0 0 720 405.04">
<defs>
<clipPath id="clip_232">
<path transform="matrix(1,0,0,-1,0,405.04)" d="M0 .000061035H720V405.04008H0Z" fill-rule="evenodd"/>
</clipPath>
<clipPath id="clip_233">
<path transform="matrix(1,0,0,-1,0,405.04)" d="M.000010729 .000030518H720V405.04005H.000010729Z" fill-rule="evenodd"/>
</clipPath>
<clipPath id="clip_234">
<path transform="matrix(1,0,0,-1,0,405.04)" d="M.000010729 .000030518H720V405.04005H.000010729Z" fill-rule="evenodd"/>
</clipPath>
<clipPath id="clip_235">
<path transform="matrix(1,0,0,-1,0,405.04)" d="M.000010729 .000030518H720V405.04005H.000010729Z" fill-rule="evenodd"/>
</clipPath>
<clipPath id="clip_236">
<path transform="matrix(1,0,0,-1,0,405.04)" d="M.000010729 .000030518H720V405.04005H.000010729Z" fill-rule="evenodd"/>
</clipPath>
<clipPath id="clip_237">
<path transform="matrix(1,0,0,-1,0,405.04)" d="M.000010729 .000030518H720V405.04005H.000010729Z" fill-rule="evenodd"/>
</clipPath>
<clipPath id="clip_238">
<path transform="matrix(1,0,0,-1,0,405.04)" d="M.000010729 .000030518H720V405.04005H.000010729Z" fill-rule="evenodd"/>
</clipPath>
<clipPath id="clip_239">
<path transform="matrix(1,0,0,-1,0,405.04)" d="M.000010729 .000030518H720V405.04005H.000010729Z" fill-rule="evenodd"/>
</clipPath>
<clipPath id="clip_240">
<path transform="matrix(1,0,0,-1,0,405.04)" d="M.000010729 .000030518H720V405.04005H.000010729Z" fill-rule="evenodd"/>
</clipPath>
<clipPath id="clip_241">
<path transform="matrix(1,0,0,-1,0,405.04)" d="M.000010729 .000030518H720V405.04005H.000010729Z" fill-rule="evenodd"/>
</clipPath>
<clipPath id="clip_242">
<path transform="matrix(1,0,0,-1,0,405.04)" d="M.000010729 .000030518H720V405.04005H.000010729Z" fill-rule="evenodd"/>
</clipPath>
<clipPath id="clip_243">
<path transform="matrix(1,0,0,-1,0,405.04)" d="M.000010729 .000030518H720V405.04005H.000010729Z" fill-rule="evenodd"/>
</clipPath>
<clipPath id="clip_244">
<path transform="matrix(1,0,0,-1,0,405.04)" d="M.000010729 .000030518H720V405.04005H.000010729Z" fill-rule="evenodd"/>
</clipPath>
<clipPath id="clip_245">
<path transform="matrix(1,0,0,-1,0,405.04)" d="M.000010729 .000030518H720V405.04005H.000010729Z" fill-rule="evenodd"/>
</clipPath>
<clipPath id="clip_246">
<path transform="matrix(1,0,0,-1,0,405.04)" d="M.000010729 .000030518H720V405.04005H.000010729Z" fill-rule="evenodd"/>
</clipPath>
<clipPath id="clip_247">
<path transform="matrix(1,0,0,-1,0,405.04)" d="M.000010729 .000030518H720V405.04005H.000010729Z" fill-rule="evenodd"/>
</clipPath>
<clipPath id="clip_248">
<path transform="matrix(1,0,0,-1,0,405.04)" d="M.000010729 .000030518H720V405.04005H.000010729Z" fill-rule="evenodd"/>
</clipPath>
</defs>
<g>
<g clip-path="url(#clip_232)">
<path transform="matrix(1,0,0,-1,0,405.04)" d="M0 .000030518H720V405.04005H0Z" fill="#f29900" fill-rule="evenodd"/>
</g>
<g clip-path="url(#clip_233)">
<text fill="#ffffff" xml:space="preserve" transform="matrix(1 0 -0 1 0 405.04)" font-size="13.856" font-family="ArialMT"><tspan y="-230.33" x="311.36">&#x25cf;</tspan></text>
</g>
<g clip-path="url(#clip_234)">
<text fill="#ffffff" xml:space="preserve" transform="matrix(1 0 -0 1 0 405.04)" font-size="13.856" font-family="Open Sans,Italic" font-style="italic"><tspan y="-230.33" x="336.54 348.24836 351.76777 357.11619 363.8502 368.10398 373.42469 380.8792 392.22727">Wireframe</tspan></text>
</g>
<g clip-path="url(#clip_235)">
<text fill="#ffffff" xml:space="preserve" transform="matrix(1 0 -0 1 0 405.04)" font-size="13.856" font-family="Open Sans"><tspan y="-230.33" x="402.21 409.3043 417.0775 422.77235 427.71894 435.506">kertas</tspan></text>
</g>
<g clip-path="url(#clip_236)">
<text fill="#ffffff" xml:space="preserve" transform="matrix(1 0 -0 1 0 405.04)" font-size="13.856" font-family="ArialMT"><tspan y="-205.12" x="311.36">&#x25cf;</tspan></text>
</g>
<g clip-path="url(#clip_237)">
<text fill="#ffffff" xml:space="preserve" transform="matrix(1 0 -0 1 0 405.04)" font-size="13.856" font-family="Open Sans,Italic" font-style="italic"><tspan y="-205.12" x="336.54 348.24836 351.76777 357.11619 363.8502 368.10398 373.42469 380.8792 392.22727">Wireframe</tspan></text>
</g>
<g clip-path="url(#clip_238)">
<text fill="#ffffff" xml:space="preserve" transform="matrix(1 0 -0 1 0 405.04)" font-size="13.856" font-family="Open Sans"><tspan y="-205.12" x="402.21 410.70375 414.25086 421.70539 425.21095 430.1991 437.98619">digital</tspan></text>
</g>
<g clip-path="url(#clip_239)">
<text fill="#ffffff" xml:space="preserve" transform="matrix(1 0 -0 1 0 405.04)" font-size="13.856" font-family="ArialMT"><tspan y="-179.92" x="311.36">&#x25cf;</tspan></text>
</g>
<g clip-path="url(#clip_240)">
<text fill="#ffffff" xml:space="preserve" transform="matrix(1 0 -0 1 0 405.04)" font-size="13.856" font-family="Open Sans"><tspan y="-179.92" x="336.54 344.7012 350.35447 358.8759 363.82249 372.3162 377.2628 380.76835 389.30366 397.07688">Prototipe </tspan></text>
</g>
<g clip-path="url(#clip_241)">
<text fill="#ffffff" xml:space="preserve" transform="matrix(1 0 -0 1 0 405.04)" font-size="13.856" font-family="Open Sans,Italic" font-style="italic"><tspan y="-179.92" x="401.5 405.04673 412.84724">low</tspan></text>
</g>
<g clip-path="url(#clip_242)">
<text fill="#ffffff" xml:space="preserve" transform="matrix(1 0 -0 1 0 405.04)" font-size="13.856" font-family="Open Sans,Italic" font-style="italic"><tspan y="-179.92" x="422.78">-</tspan></text>
</g>
<g clip-path="url(#clip_243)">
<text fill="#ffffff" xml:space="preserve" transform="matrix(1 0 -0 1 0 405.04)" font-size="13.856" font-family="Open Sans,Italic" font-style="italic"><tspan y="-179.92" x="427.03 431.28379 434.47065 441.92518 448.31278 451.49964 455.01905 459.64695 466.0484">fidelity.</tspan></text>
</g>
<g clip-path="url(#clip_244)">
<text fill="#ffffff" xml:space="preserve" transform="matrix(1 0 -0 1 0 405.04)" font-size="13.856" font-family="ArialMT"><tspan y="-154.71" x="311.36">&#x25cf;</tspan></text>
</g>
<g clip-path="url(#clip_245)">
<text fill="#ffffff" xml:space="preserve" transform="matrix(1 0 -0 1 0 405.04)" font-size="13.856" font-family="Open Sans"><tspan y="-154.71" x="336.54 343.99455 348.94114 357.44874 365.94245 369.50343">Studi </tspan></text>
</g>
<g clip-path="url(#clip_246)">
<text fill="#ffffff" xml:space="preserve" transform="matrix(1 0 -0 1 0 405.04)" font-size="13.856" font-family="Open Sans,Italic" font-style="italic"><tspan y="-154.71" x="373.45 381.59733 387.27827 394.37254 401.82707 405.01393 408.20079 411.72019 416.34809 422.74955">usability </tspan></text>
</g>
<g clip-path="url(#clip_247)">
<text fill="#ffffff" xml:space="preserve" transform="matrix(1 0 -0 1 0 405.04)" font-size="13.856" font-family="Open Sans"><tspan y="-154.71" x="424.91 429.14994 435.8701 440.81669 449.32429 457.818 461.37898 464.92613 472.02043 479.79365 487.27589 495.78349 504.29109 512.09207 519.8791 528.38668">(studi kegunaan)</tspan></text>
</g>
<g clip-path="url(#clip_248)">
<text fill="#ffffff" xml:space="preserve" transform="matrix(1 0 -0 1 0 405.04)" font-size="24.142" font-family="Open Sans"><tspan y="-208.88" x="69.257 90.912387 104.45605 126.7874 141.68303 147.79096 161.21392 167.32184 173.67119 188.5668 202.11048 213.43308 226.90431 233.01224">Memulai desain</tspan></text>
</g>
<path transform="matrix(1,0,0,-1,0,405.04)" stroke-width="1.5" stroke-linecap="butt" stroke-linejoin="round" fill="none" stroke="#ffffff" d="M272.39 323.82 275.28 81.366"/>
</g>
</svg>
