<svg xmlns="http://www.w3.org/2000/svg" xmlns:xlink="http://www.w3.org/1999/xlink" version="1.1" width="720pt" height="405pt" viewBox="0 0 720 405">
<defs>
<clipPath id="clip_16">
<path transform="matrix(.001968504,0,0,.001968504,0,0)" d="M0 0H365760V205740H0V0Z"/>
</clipPath>
</defs>
<g>
<g clip-path="url(#clip_16)">
<path transform="matrix(.001968504,0,0,.001968504,0,0)" d="M0 0H365760V205740H0Z" fill="#ffffff" fill-rule="evenodd"/>
<path transform="matrix(.001968504,0,0,.001968504,0,0)" d="M0 13165H2772V43285H0Z" fill="#ea4335" fill-rule="evenodd"/>
<path transform="matrix(.001968504,0,0,.001968504,0,0)" d="M20707 20974H266911V43138H20707Z" fill-opacity="0" fill-rule="evenodd"/>
<text fill="#5f6368" xml:space="preserve" transform="matrix(.75 0 0 .75 40.76181 41.287405)" font-size="32" font-family="OpenSans"><tspan y="39.72" x="0 19.744002 27.808003 43.04 60.992006 72.384 80.672008 100.22401 118.17601 137.792 155.13602 172.48001 192.09601 211.712 229.472 237.856 246.144 265.69599 284.92799 292.99198 312.60798 322.87998 342.43199 361.66398 369.72798 389.34397 401.05598 412.44798 420.51197 431.90397 439.96797 456.76795 465.05595 494.65596 512.41598 527.64797 545.40798 553.472 571.232">Riset pengguna: poin-poin/titik masalah</tspan></text>
<path transform="matrix(.001968504,0,0,.001968504,0,0)" d="M21142.08 80354H96046.08V100666.04H21142.08Z" fill-opacity="0" fill-rule="evenodd"/>
<text fill="#ea4335" xml:space="preserve" transform="matrix(.75 0 0 .75 41.618268 158.17717)" font-size="18.666666" font-family="OpenSans" font-weight="bold"><tspan y="26.919999" x="64.61238 82.25238 93.07905 103.75638 111.129718">Waktu</tspan></text>
<path transform="matrix(.001968504,0,0,.001968504,0,0)" d="M17659 100899H103341.72V159252.24H17659Z" fill-opacity="0" fill-rule="evenodd"/>
<text fill="#5f6368" xml:space="preserve" transform="matrix(.75 0 0 .75 34.76181 198.62009)" font-size="16" font-family="OpenSans"><tspan y="24.36" x="2.2570115 12.577012 21.553013 31.329014 40.305017 46.833017 55.713018 65.48901 74.36901 78.51301 88.129009 94.657009 103.537 113.345 122.017 126.160999 131.857 135.88899 145.665 154.545 162.94499 167.08899 176.86499 186.67299 196.48099 204.48099 213.361">Beberapa orang tidak punya </tspan></text>
<text fill="#5f6368" xml:space="preserve" transform="matrix(.75 0 0 .75 34.76181 198.62009)" font-size="16" font-family="OpenSans"><tspan y="46.44" x="42.233575 54.617578 63.497579 71.897579 77.593578 87.40157 91.54557 106.34557 115.32157 119.35357 128.23357 136.63356 146.44156 154.84156 163.72156 173.52956">waktu melakukan </tspan></text>
<text fill="#5f6368" xml:space="preserve" transform="matrix(.75 0 0 .75 34.76181 198.62009)" font-size="16" font-family="OpenSans"><tspan y="68.52" x="7.89373 17.669732 26.645733 41.445734 50.421735 58.037736 66.91773 76.72573 85.60573 95.41373 99.557727 107.957729 117.765727 126.74172 130.88573 140.69373 150.50173 156.19773 166.00572 174.40572 178.54972 188.35771 197.23772 203.76572 207.79772">pemesanan kue untuk hari </tspan></text>
<text fill="#5f6368" xml:space="preserve" transform="matrix(.75 0 0 .75 34.76181 198.62009)" font-size="16" font-family="OpenSans"><tspan y="90.6" x="25.686699 33.3027 43.0787 52.054704 59.670705 63.702707 72.5827 76.6147 80.7587 95.5587 104.5347 111.0627 120.0387 128.43869 137.3187 141.46269 149.07869 158.05469 165.71869 174.5987 181.1267 190.0067">spesial mereka secara </tspan></text>
<text fill="#5f6368" xml:space="preserve" transform="matrix(.75 0 0 .75 34.76181 198.62009)" font-size="16" font-family="OpenSans"><tspan y="112.68" x="25.952324 29.984324 38.864324 48.672327 57.344327 64.96033 74.768329 84.576328 93.24832 97.39232 107.16832 111.20032 119.60032 128.48032 135.00832 143.98432 153.79232 162.67232 171.07231 179.95232 189.76032">langsung dikarenakan </tspan></text>
<text fill="#5f6368" xml:space="preserve" transform="matrix(.75 0 0 .75 34.76181 198.62009)" font-size="16" font-family="OpenSans"><tspan y="134.76" x="56.702325 65.102329 74.07832 81.69432 85.72632 95.50232 105.31032 113.71032 122.59032 132.39832 142.20632 150.20632">kesibukannya</tspan></text>
<path transform="matrix(.001968504,0,0,.001968504,0,0)" d="M136774.2 100899H217472.4V133768.32H136774.2Z" fill-opacity="0" fill-rule="evenodd"/>
<text fill="#5f6368" xml:space="preserve" transform="matrix(.75 0 0 .75 269.24055 198.62009)" font-size="16" font-family="OpenSans"><tspan y="24.36" x="15.813309 24.21331 34.02131 40.54931 49.42931 59.237314 67.90932 72.053318 76.08531 85.06131 89.09331 97.973308 105.5893 115.3973 123.3973 132.2773 136.4213 146.1973 150.2293 154.26129 158.29329 168.10129 176.9813 186.78929">kurang jelasnya pilihan </tspan></text>
<text fill="#5f6368" xml:space="preserve" transform="matrix(.75 0 0 .75 269.24055 198.62009)" font-size="16" font-family="OpenSans"><tspan y="46.44" x="3.3875275 18.187529 27.163529 32.859529 42.47553 52.25153 61.22753 65.37153 75.14753 84.12353 98.92353 108.69953 117.57953 125.57953 134.45954 140.98754 149.86754 159.67554 163.81954 171.81954 180.69954 190.50754 199.17954">metode pembayaran yang </tspan></text>
<text fill="#5f6368" xml:space="preserve" transform="matrix(.75 0 0 .75 269.24055 198.62009)" font-size="16" font-family="OpenSans"><tspan y="68.52" x="39.649248 49.425249 58.30525 68.081249 76.96124 82.65724 86.80124 96.57724 100.60924 104.641239 113.52123 121.921237 131.72924 140.12923 149.00923 158.81723">dapat dilakukan.</tspan></text>
<path transform="matrix(.001968504,0,0,.001968504,0,0)" d="M261105.4 80354H336009.4V100666.04H261105.4Z" fill-opacity="0" fill-rule="evenodd"/>
<text fill="#ea4335" xml:space="preserve" transform="matrix(.75 0 0 .75 513.98709 158.17717)" font-size="18.666666" font-family="OpenSans" font-weight="bold"><tspan y="26.919999" x="31.850075 42.098077 49.47141 60.298078 67.67141 79.52474 88.59674 93.431407 103.959407 114.7114 122.75674 133.43407 138.6234 150.47673 155.66606">Status Terkini </tspan></text>
<text fill="#ea4335" xml:space="preserve" transform="matrix(.75 0 0 .75 513.98709 158.17717)" font-size="18.666666" font-family="OpenSans" font-weight="bold"><tspan y="60.519998" x="55.475557 66.93689 77.68889 86.76089 97.587558 109.44089 120.267559">Pesanan</tspan></text>
<path transform="matrix(.001968504,0,0,.001968504,0,0)" d="M247904 100899H352412V149655H247904Z" fill-opacity="0" fill-rule="evenodd"/>
<text fill="#5f6368" xml:space="preserve" transform="matrix(.75 0 0 .75 488 198.62009)" font-size="16" font-family="OpenSans"><tspan y="24.36" x="24.747269 34.52327 43.49927 53.307275 61.979276 70.651279 80.459278 90.26727 99.14727 103.29127 108.98727 113.019268 122.795269 131.67527 140.07526 144.21926 153.99526 158.02725 165.64325 174.52326 178.66725 193.46726 202.44326 206.47525 215.35526 223.01926 231.89926 240.29926">pengguna tidak bisa melacak </tspan></text>
<text fill="#5f6368" xml:space="preserve" transform="matrix(.75 0 0 .75 488 198.62009)" font-size="16" font-family="OpenSans"><tspan y="46.44" x="2.5558625 12.331862 21.307864 28.923863 37.803865 47.611864 56.491865 66.299869 70.44386 85.243869 94.219867 100.74786 109.72386 118.12386 127.00386 131.13187 135.27587 142.89186 151.86786 161.67586 165.70786 175.51586 184.18785 192.85985 201.73986 205.88385 220.68386 229.65985 236.18785 245.16385 253.56385 262.44386">pesanan mereka, sehingga mereka </tspan></text>
<text fill="#5f6368" xml:space="preserve" transform="matrix(.75 0 0 .75 488 198.62009)" font-size="16" font-family="OpenSans"><tspan y="68.52" x="7.8410189 17.64902 26.529019 33.05702 42.86502 50.48102 54.625024 62.241025 71.217029 75.24902 84.12902 88.16102 97.96902 102.113018 116.91302 125.889019 135.69702 144.57703 154.38503 162.38503 171.26503 179.66503 188.54503 198.35303 202.49703 210.89702 219.87302 229.64902 238.52902 248.30503 257.18504">harus selalu menanyakan kepada </tspan></text>
<text fill="#5f6368" xml:space="preserve" transform="matrix(.75 0 0 .75 488 198.62009)" font-size="16" font-family="OpenSans"><tspan y="90.6" x="15.278519 25.05452 34.03052 43.838525 47.870527 57.678529 66.558528 70.59052 74.73452 89.53452 98.51052 108.31852 116.990528 125.96652 135.77452 144.65453 148.68653 152.83052 160.44652 166.14252 175.02252 180.71852 190.52652 198.14252 202.28652 207.98252 216.95851 223.48651 231.8865 235.9185 245.7265 249.7585">penjual mengenai status terkini </tspan></text>
<text fill="#5f6368" xml:space="preserve" transform="matrix(.75 0 0 .75 488 198.62009)" font-size="16" font-family="OpenSans"><tspan y="112.68" x="68.25899 78.03499 87.01099 94.62698 103.50698 113.31498 122.19498 132.00298 136.14698 150.94698 159.92298 166.45098 175.42697 183.82697 192.70697">pesanan mereka.</tspan></text>
<path transform="matrix(.001968504,0,0,.001968504,0,0)" d="M48328.56 65550.84V65550.84C48328.56 59881.087 52924.806 55284.84 58594.56 55284.84 61317.275 55284.84 63928.47 56366.435 65853.72 58291.685 67778.97 60216.93 68860.56 62828.13 68860.56 65550.84 68860.56 71220.59 64264.318 75816.84 58594.56 75816.84 52924.806 75816.84 48328.56 71220.59 48328.56 65550.84Z" fill="#ea4335" fill-rule="evenodd"/>
<text fill="#ffffff" xml:space="preserve" transform="matrix(.75 0 0 .75 101.05394 114.747409)" font-size="29.333334" font-family="ArialMT"><tspan y="29.61291" x="10.897451">1</tspan></text>
<path transform="matrix(.001968504,0,0,.001968504,0,0)" d="M170313.8 65550.84V65550.84C170313.8 59881.087 174910.05 55284.84 180579.8 55284.84 183302.52 55284.84 185913.7 56366.435 187838.96 58291.685 189764.2 60216.93 190845.8 62828.13 190845.8 65550.84 190845.8 71220.59 186249.57 75816.84 180579.8 75816.84 174910.05 75816.84 170313.8 71220.59 170313.8 65550.84Z" fill="#ea4335" fill-rule="evenodd"/>
<text fill="#ffffff" xml:space="preserve" transform="matrix(.75 0 0 .75 341.18238 114.747409)" font-size="29.333334" font-family="ArialMT"><tspan y="29.61291" x="10.897451">2</tspan></text>
<path transform="matrix(.001968504,0,0,.001968504,0,0)" d="M287711.04 65550.84V65550.84C287711.04 59881.087 292307.29 55284.84 297977.04 55284.84 300699.76 55284.84 303310.95 56366.435 305236.2 58291.685 307161.45 60216.93 308243.04 62828.13 308243.04 65550.84 308243.04 71220.59 303646.79 75816.84 297977.04 75816.84 292307.29 75816.84 287711.04 71220.59 287711.04 65550.84Z" fill="#ea4335" fill-rule="evenodd"/>
<text fill="#ffffff" xml:space="preserve" transform="matrix(.75 0 0 .75 572.2793 114.747409)" font-size="29.333334" font-family="ArialMT"><tspan y="29.61291" x="10.897451">3</tspan></text>
<path transform="matrix(.001968504,0,0,.001968504,0,0)" d="M136774.24 80063.84H222698.8V100375.88H136774.24Z" fill-opacity="0" fill-rule="evenodd"/>
<text fill="#ea4335" xml:space="preserve" transform="matrix(.75 0 0 .75 269.24064 157.60599)" font-size="18.666666" font-family="OpenSans" font-weight="bold"><tspan y="26.919999" x="40.505449 51.96678 57.156118 62.34545 67.53478 79.388118 90.21478 102.068119 106.90278 124.09478 134.84679 142.22013 153.6068 165.21747 175.96947">Pilihan Metode </tspan></text>
<text fill="#ea4335" xml:space="preserve" transform="matrix(.75 0 0 .75 269.24064 157.60599)" font-size="18.666666" font-family="OpenSans" font-weight="bold"><tspan y="60.519998" x="51.26832 62.729654 73.48165 91.28965 102.900318 113.72698 123.713649 134.54032 142.58565 153.41231">Pembayaran</tspan></text>
</g>
</g>
</svg>
