<svg xmlns="http://www.w3.org/2000/svg" xmlns:xlink="http://www.w3.org/1999/xlink" version="1.1" width="720pt" height="405pt" viewBox="0 0 720 405">
<defs>
<clipPath id="clip_23">
<path transform="matrix(.001968504,0,0,.001968504,0,0)" d="M0 0H365760V205740H0V0Z"/>
</clipPath>
</defs>
<g>
<g clip-path="url(#clip_23)">
<path transform="matrix(.001968504,0,0,.001968504,0,0)" d="M0 0H365760V205740H0Z" fill="#f29900" fill-rule="evenodd"/>
<path transform="matrix(.001968504,0,0,.001968504,0,0)" d="M148851 75474H400935V130266H148851Z" fill-opacity="0" fill-rule="evenodd"/>
<text fill="#ffffff" xml:space="preserve" transform="matrix(.75 0 0 .75 293.01377 148.57086)" font-size="18.666666" font-family="Arial" font-style="italic"><tspan y="26.919999" x="21.731553">&#x25cf;</tspan></text>
<text fill="#ffffff" xml:space="preserve" transform="matrix(.75 0 0 .75 293.01377 148.57086)" font-size="18.666666" font-family="OpenSans" font-style="italic"><tspan y="26.919999" x="57 72.904 77.608 84.98134 94.277339 100.10133 107.47467 118.02134 134.28">Wireframe</tspan></text>
<text fill="#ffffff" xml:space="preserve" transform="matrix(.75 0 0 .75 293.01377 148.57086)" font-size="18.666666" font-family="OpenSans"><tspan y="26.919999" x="143.56755 148.40222 158.20223 168.67423 176.29022 182.93556 193.29557"> kertas</tspan></text>
<text fill="#ffffff" xml:space="preserve" transform="matrix(.75 0 0 .75 293.01377 148.57086)" font-size="18.666666" font-family="Arial" font-style="italic"><tspan y="60.519998" x="21.731553">&#x25cf;</tspan></text>
<text fill="#ffffff" xml:space="preserve" transform="matrix(.75 0 0 .75 293.01377 148.57086)" font-size="18.666666" font-family="OpenSans" font-style="italic"><tspan y="60.519998" x="57 72.904 77.608 84.98134 94.277339 100.10133 107.47467 118.02134 134.28">Wireframe</tspan></text>
<text fill="#ffffff" xml:space="preserve" transform="matrix(.75 0 0 .75 293.01377 148.57086)" font-size="18.666666" font-family="OpenSans"><tspan y="60.519998" x="143.56755 148.40222 159.80756 164.51155 174.62889 179.33289 185.97823 196.33823"> digital</tspan></text>
<text fill="#ffffff" xml:space="preserve" transform="matrix(.75 0 0 .75 293.01377 148.57086)" font-size="18.666666" font-family="ArialMT"><tspan y="94.119998" x="21.731553">&#x25cf;</tspan></text>
<text fill="#ffffff" xml:space="preserve" transform="matrix(.75 0 0 .75 293.01377 148.57086)" font-size="18.666666" font-family="OpenSans"><tspan y="94.119998" x="57 68.218669 75.83466 87.05333 93.69866 104.91733 111.56266 116.26666 127.672 138.144">Prototipe </tspan></text>
<text fill="#ffffff" xml:space="preserve" transform="matrix(.75 0 0 .75 293.01377 148.57086)" font-size="18.666666" font-family="OpenSans" font-style="italic"><tspan y="94.119998" x="143.0392 147.7432 158.23386 171.58052 177.40453 187.91387 198.68453 207.98053 212.68453 217.38852 223.52985 232.11652">low-&#xfb01;delity.</tspan></text>
<text fill="#ffffff" xml:space="preserve" transform="matrix(.75 0 0 .75 293.01377 148.57086)" font-size="18.666666" font-family="ArialMT"><tspan y="127.71999" x="21.731553">&#x25cf;</tspan></text>
<text fill="#ffffff" xml:space="preserve" transform="matrix(.75 0 0 .75 293.01377 148.57086)" font-size="18.666666" font-family="OpenSans"><tspan y="127.71999" x="57 67.22933 73.874668 85.31733 96.722667 101.42667">Studi </tspan></text>
<text fill="#ffffff" xml:space="preserve" transform="matrix(.75 0 0 .75 293.01377 148.57086)" font-size="18.666666" font-family="OpenSans" font-style="italic"><tspan y="127.71999" x="106.29149 117.04349 125.08882 135.63549 146.40615 151.11014 155.81414 160.51813 166.65946 175.24613">usability </tspan></text>
<text fill="#ffffff" xml:space="preserve" transform="matrix(.75 0 0 .75 293.01377 148.57086)" font-size="18.666666" font-family="OpenSans"><tspan y="127.71999" x="180.12397 185.61197 194.4973 201.14264 212.58531 223.99065 228.69464 233.52931 243.32932 253.80132 263.91865 275.3613 286.80397 297.16395 307.52394 318.96659">(studi kegunaan)</tspan></text>
<path transform="matrix(.001968504,0,0,.001968504,0,0)" d="M-18755 83292H129421V107666.68H-18755Z" fill-opacity="0" fill-rule="evenodd"/>
<text fill="#ffffff" xml:space="preserve" transform="matrix(.75 0 0 .75 -36.919294 163.96063)" font-size="32" font-family="OpenSans"><tspan y="39.72" x="143.38214 172.15015 190.10214 219.70215 239.31815 247.38214 265.14216 273.20616 281.49415 301.04615 318.99815 334.23014 351.99015 360.05415">Memulai desain</tspan></text>
<path transform="matrix(.001968504,0,0,.001968504,0,0)" d="M138404 41286 139868 164454" fill-opacity="0" fill-rule="evenodd"/>
<path transform="matrix(.001968504,0,0,.001968504,0,0)" stroke-width="762" stroke-linecap="butt" stroke-linejoin="round" fill="none" stroke="#ffffff" d="M138404 41286 139868 164454"/>
</g>
</g>
</svg>
