<svg xmlns="http://www.w3.org/2000/svg" xmlns:xlink="http://www.w3.org/1999/xlink" version="1.1" width="720pt" height="405pt" viewBox="0 0 720 405">
<defs>
<clipPath id="clip_70">
<path transform="matrix(.001968504,0,0,.001968504,0,0)" d="M0 0H365760V205740H0V0Z"/>
</clipPath>
</defs>
<g>
<g clip-path="url(#clip_70)">
<path transform="matrix(.001968504,0,0,.001968504,0,0)" d="M0 0H365760V205740H0Z" fill="#ffffff" fill-rule="evenodd"/>
<path transform="matrix(.001968504,0,0,.001968504,0,0)" d="M0 13165H2772V43285H0Z" fill="#9aa0a6" fill-rule="evenodd"/>
<path transform="matrix(.001968504,0,0,.001968504,0,0)" d="M20707 20973.52H217951V43137.52H20707Z" fill-opacity="0" fill-rule="evenodd"/>
<text fill="#5f6368" xml:space="preserve" transform="matrix(.75 0 0 .75 40.76181 41.286458)" font-size="32" font-family="OpenSans"><tspan y="39.72" x="0 28.768002 46.528 59.584 67.648 75.936008 87.328 105.28001 118.336009 137.95201 157.56801 177.12001 196.73601 216.352 233.69602">Mari terhubung.</tspan></text>
<path transform="matrix(.001968504,0,0,.001968504,0,0)" d="M20707 73280.76H338263V173696.77H20707Z" fill="#f8f9fa" fill-rule="evenodd"/>
<path transform="matrix(.001968504,0,0,.001968504,0,0)" d="M36763 98472H322207V139835.96H36763Z" fill-opacity="0" fill-rule="evenodd"/>
<text fill="#5f6368" xml:space="preserve" transform="matrix(.75 0 0 .75 72.36811 193.84253)" font-size="16" font-family="OpenSans"><tspan y="24.36" x="7.0749819 15.874982 24.850983 31.378983 35.410985 50.210985 59.090986 63.234987 71.63499 80.514987 88.13098 92.16298 101.97098 106.114978 114.99497 120.69097 129.57097 137.18697 141.33097 153.71497 162.59497 170.99497 176.69097 186.49897 190.64296 200.75496 210.56296 220.33896 229.21897 233.36296 248.16297 257.13899 266.947 270.979 280.78703 284.81904 293.69905 303.50706 307.65107 317.42707 326.40309 334.80308 343.77909 350.3071 354.3391 363.21913 372.09913 381.90715 386.05116 393.66716 402.54716 410.54716 419.42716 423.57118 433.37919 443.1872 448.8832 458.69123 467.09123 471.23524 480.11524 489.89125 493.92326 497.95527 506.35527 515.2352 522.85128 526.88327 531.0272 541.3472 550.32327 556.85128 562.54727 570.54727 574.6912 585.0112 593.98727 600.51528 607.0433 615.0433 619.2673 623.41128 627.6993 631.73129 640.1313 649.0113 653.1553 663.2673 673.07528 682.85128 691.73129 695.87527 699.9072 709.7152 718.3872 722.4192 732.2272">Terima kasih atas waktu Anda meninjau pekerjaan saya untuk aplikasi Berty Berry! Jika Anda ingin </tspan></text>
<text fill="#5f6368" xml:space="preserve" transform="matrix(.75 0 0 .75 72.36811 193.84253)" font-size="16" font-family="OpenSans"><tspan y="46.44" x="47.00467 61.804674 70.78067 74.81267 78.844669 88.652667 97.53266 103.22866 107.37266 111.404659 120.38065 130.15665 134.18865 143.99665 148.14064 152.17264 161.05265 170.86064 174.89264 184.70064 190.39664 194.54064 203.42064 209.11664 217.99665 227.80464 231.94864 246.74864 255.72464 265.53266 274.20466 284.01268 293.82069 303.59669 313.4047 323.2127 331.8847 335.91673 340.06074 348.46073 357.34074 372.14073 376.17274 380.30073 384.44474 388.47676 398.28477 403.66078 413.27677 419.80479 434.60478 443.48478 451.10078 455.13279 459.2768 467.6768 477.2928 487.1008 492.7968 501.67683 510.0768 514.2208 523.9968 528.0288 535.64486 544.62088 554.39688 558.42886 567.30886 575.70889 584.58889 594.39688 598.54086 608.31686 612.3488 616.4928 626.2688 635.1488 647.5328 656.4128 666.22079 670.36477 674.3967 684.2047 688.2367">melihat lebih lanjut atau menghubungi kami, informasi kontak disediakan di bawah ini.</tspan></text>
<text fill="#5f6368" xml:space="preserve" transform="matrix(.75 0 0 .75 72.36811 193.84253)" font-size="16" font-family="OpenSans"><tspan y="90.6" x="260.56718 269.44718 284.24717 293.12718 297.15919 301.1912 305.38319">Email: </tspan></text>
<path transform="matrix(.75,0,0,.75,72.36811,193.84253)" d="M309.59843 73.498439H479.62968V95.2875H309.59843V73.498439Z" fill="#010000" fill-opacity="0"/>
<text fill="#4285f4" xml:space="preserve" transform="matrix(.75 0 0 .75 72.36811 193.84253)" font-size="16" font-family="OpenSans"><tspan y="90.6" x="309.59843 315.29444 325.10246 331.63047 340.60649 349.5825 357.2465 361.2785 370.1585 379.2945 388.43049 402.76649 411.43849 426.23847 435.11848 439.15049 443.1825 447.37449 455.03849 464.65449">threecia22@gmail.com</tspan></text>
<path transform="matrix(.75,0,0,.75,72.36811,193.84253)" d="M479.62968 73.498439V73.498439 95.2875 73.498439Z" fill="#010000" fill-opacity="0"/>
<path transform="matrix(.75,0,0,.75,72.36811,193.84253)" d="M309.59843 91.64H479.62968V93.08H309.59843V91.64Z" fill="#4285f4"/>
<path transform="matrix(.001968504,0,0,.001968504,0,0)" d="M169219 74354.48V74354.48C169219 68684.73 173815.25 64088.48 179485 64088.48 182207.72 64088.48 184818.9 65170.076 186744.16 67095.32 188669.4 69020.57 189751 71631.769 189751 74354.48 189751 80024.238 185154.75 84620.48 179485 84620.48 173815.25 84620.48 169219 80024.238 169219 74354.48Z" fill="#5f6368" fill-rule="evenodd"/>
<path transform="matrix(.001968504,0,0,.001968504,0,0)" d="M182521.28 73513.8 180316.85 71325.29 174473 77133.667V79332.55H176677.44L182521.28 73513.8ZM184247.4 71792.03C184486.57 71553.48 184486.57 71200.82 184247.4 70972.63L182864.42 69593.15C182635.67 69364.96 182282.13 69364.96 182042.97 69593.15L180899.16 70734.08 183103.6 72932.96 184247.4 71792.03Z" fill="#ffffff" fill-rule="evenodd"/>
</g>
</g>
</svg>
