<svg xmlns="http://www.w3.org/2000/svg" xmlns:xlink="http://www.w3.org/1999/xlink" version="1.1" width="720pt" height="405pt" viewBox="0 0 720 405">
<defs>
<clipPath id="clip_39">
<path transform="matrix(.001968504,0,0,.001968504,0,0)" d="M0 0H365760V205740H0V0Z"/>
</clipPath>
</defs>
<g>
<g clip-path="url(#clip_39)">
<path transform="matrix(.001968504,0,0,.001968504,0,0)" d="M0 0H365760V205740H0Z" fill="#ffffff" fill-rule="evenodd"/>
<path transform="matrix(.001968504,0,0,.001968504,0,0)" d="M0 13165H2772V43285H0Z" fill="#fbbc04" fill-rule="evenodd"/>
<path transform="matrix(.001968504,0,0,.001968504,0,0)" d="M20707 17926H266911V40090H20707Z" fill-opacity="0" fill-rule="evenodd"/>
<text fill="#5f6368" xml:space="preserve" transform="matrix(.75 0 0 .75 40.76181 35.287405)" font-size="32" font-family="OpenSans"><tspan y="39.72" x="0 17.536002 28.928002 48.544004 68.096 76.16">Studi </tspan></text>
<text fill="#5f6368" xml:space="preserve" transform="matrix(.75 0 0 .75 40.76181 35.287405)" font-size="32" font-family="OpenSans" font-style="italic"><tspan y="39.72" x="84.546878 102.978878 116.770877 134.85088 153.31488 161.37888 169.44287 177.50687 188.03487">usability</tspan></text>
<text fill="#5f6368" xml:space="preserve" transform="matrix(.75 0 0 .75 40.76181 35.287405)" font-size="32" font-family="OpenSans"><tspan y="39.72" x="202.875 211.259 219.547 230.939 248.89099 278.491 298.107 315.867">: temuan</tspan></text>
<path transform="matrix(.001968504,0,0,.001968504,0,0)" d="M21315 42023H336255V67943H21315Z" fill-opacity="0" fill-rule="evenodd"/>
<text fill="#5f6368" xml:space="preserve" transform="matrix(.75 0 0 .75 41.95866 82.72244)" font-size="18.666666" font-family="OpenSans"><tspan y="26.919999" x="0 10.266666 21.709334 26.413334 31.117335 40.002668 49.802667 60.162668 71.60533 76.439998 87.84533 98.31733 109.759998 119.87733 130.23732 141.68 148.32534 158.68534 166.30133 171.136 180.02133 184.72533 196.168 206.28534 216.08535 226.44535 233.09069 237.92536 244.5707 255.0427 266.48536 273.13069 283.49067 294.93333 305.05067 309.8853 318.77067 325.416 336.85865 348.26399 352.968">Tuliskan pengantar singkat tentang studi </tspan></text>
<text fill="#5f6368" xml:space="preserve" transform="matrix(.75 0 0 .75 41.95866 82.72244)" font-size="18.666666" font-family="OpenSans" font-style="italic"><tspan y="26.919999" x="358.03059 368.7826 376.82795 387.3746 398.14527 402.84928 407.55329 412.2573 418.39863">usability</tspan></text>
<text fill="#5f6368" xml:space="preserve" transform="matrix(.75 0 0 .75 41.95866 82.72244)" font-size="18.666666" font-family="OpenSans"><tspan y="26.919999" x="427.01679 431.85145 441.18479 451.54478 462.98744 473.10478 477.93943 489.34477 494.04878 498.75279 509.11277 518.9128 530.35549 540.15548 550.51547 561.9581 566.7928 578.1981 588.5581 600.0008 604.83547 611.4808 621.95278 639.2194 650.6621 661.0221 672.4648 677.29946 689.0968 700.5395 711.9448 722.3048"> yang dilakukan dan temuan Anda.</tspan></text>
<path transform="matrix(.001968504,0,0,.001968504,0,0)" d="M18267 80903H151707V96911H18267Z" fill-opacity="0" fill-rule="evenodd"/>
<text fill="#f29900" xml:space="preserve" transform="matrix(.75 0 0 .75 35.95866 159.25788)" font-size="18.666666" font-family="OpenSans" font-weight="bold"><tspan y="26.919999" x="9 19.808 30.821335 49.133337 61.397336 72.672008 84.936008 89.77067 97.872 109.14667 121.41067 132.68534 144.48267 149.31734">Temuan tahap 1</tspan></text>
<path transform="matrix(.001968504,0,0,.001968504,0,0)" d="M179116 96911H330148V190242.6H179116Z" fill="#f8f9fa" fill-rule="evenodd"/>
<path transform="matrix(.001968504,0,0,.001968504,0,0)" d="M199381 102740H332821V128660H199381Z" fill-opacity="0" fill-rule="evenodd"/>
<text fill="#5f6368" xml:space="preserve" transform="matrix(.75 0 0 .75 392.48228 202.24408)" font-size="18.666666" font-family="OpenSans"><tspan y="26.919999" x="9 20.218667 30.690667 42.13333 52.250665 62.367998 73.81066 85.25333 95.61333 100.44799 107.09332 111.797328 123.20266 133.56266 143.36266 148.19733 159.60266 164.30666 173.19199 183.55199 188.38666 205.65332 216.12532 220.82932 225.53331 236.97599 247.33599 253.98133 258.81599 269.28797 278.1733 284.81864 289.52265 306.7893 317.1493 326.03465 330.73866">Pengguna tidak bisa melihat estimasi </tspan></text>
<text fill="#5f6368" xml:space="preserve" transform="matrix(.75 0 0 .75 392.48228 202.24408)" font-size="18.666666" font-family="OpenSans"><tspan y="52.679994" x="9 13.704 24.064 41.330667 51.690668 56.525335 67.930667 78.402667 89.84533 99.96266 104.666667 112.28266 116.986667 134.25333 144.61333">lama pengiriman</tspan></text>
<path transform="matrix(.001968504,0,0,.001968504,0,0)" d="M186862 110743.92V110743.92C186862 107708.56 189322.64 105247.92 192358 105247.92 193815.63 105247.92 195213.57 105826.96 196244.27 106857.667 197274.96 107888.36 197854 109286.29 197854 110743.92 197854 113779.27 195393.36 116239.92 192358 116239.92 189322.64 116239.92 186862 113779.27 186862 110743.92Z" fill="#f29900" fill-rule="evenodd"/>
<text fill="#ffffff" xml:space="preserve" transform="matrix(.75 0 0 .75 371.00736 210.34973)" font-size="18.666666" font-family="ArialMT"><tspan y="16.920155" x="5.0122959">1</tspan></text>
<path transform="matrix(.001968504,0,0,.001968504,0,0)" d="M176676 80903H310116V96911H176676Z" fill-opacity="0" fill-rule="evenodd"/>
<text fill="#f29900" xml:space="preserve" transform="matrix(.75 0 0 .75 347.78739 159.25788)" font-size="18.666666" font-family="OpenSans" font-weight="bold"><tspan y="26.919999" x="9 19.808 30.821335 49.133337 61.397336 72.672008 84.936008 89.77067 97.872 109.14667 121.41067 132.68534 144.48267 149.31734">Temuan tahap 2</tspan></text>
<path transform="matrix(.001968504,0,0,.001968504,0,0)" d="M18267 96910.96H169299V190242.6H18267Z" fill="#f8f9fa" fill-rule="evenodd"/>
<path transform="matrix(.001968504,0,0,.001968504,0,0)" d="M38532 98676.08H171972V124596.08H38532Z" fill-opacity="0" fill-rule="evenodd"/>
<text fill="#595959" xml:space="preserve" transform="matrix(.75 0 0 .75 75.850399 194.24427)" font-size="18.666666" font-family="OpenSans"><tspan y="26.919999" x="9 20.218667 30.690667 42.13333 52.250665 62.367998 73.81066 85.25333 95.61333 100.44799 107.09332 111.797328 123.20266 133.56266 143.36266 148.19733 159.60266 164.30666 173.19199 183.55199 188.38666 205.65332 216.12532 227.568 236.50933 246.86933 254.48532 259.18934 264.024 268.728 279.94667 289.74665 300.10664 308.99198 313.69599 318.512">Pengguna tidak bisa mencari lokasi, </tspan></text>
<text fill="#595959" xml:space="preserve" transform="matrix(.75 0 0 .75 75.850399 194.24427)" font-size="18.666666" font-family="OpenSans"><tspan y="52.679994" x="9 18.8 29.272 40.71467 51.07467 62.480005 72.840007 77.67467 89.11733 99.47733 110.92 120.253337 130.61333 135.448 152.71466 163.18666 174.62934 184.98934 202.256 213.66133 218.36533 223.06932 233.42932 244.872 249.70667 266.97334 277.3333">kenapa hanya menampilan map</tspan></text>
<path transform="matrix(.001968504,0,0,.001968504,0,0)" d="M26013 106680V106680C26013 103644.64 28473.643 101184 31509 101184 32966.63 101184 34364.56 101763.04 35395.259 102793.74 36425.958 103824.44 37005 105222.37 37005 106680 37005 109715.36 34544.357 112176 31509 112176 28473.643 112176 26013 109715.36 26013 106680Z" fill="#f29900" fill-rule="evenodd"/>
<text fill="#ffffff" xml:space="preserve" transform="matrix(.75 0 0 .75 54.375474 202.34989)" font-size="18.666666" font-family="ArialMT"><tspan y="16.920155" x="5.0122959">1</tspan></text>
<path transform="matrix(.001968504,0,0,.001968504,0,0)" d="M38532 131602.13H171972V187258.13H38532Z" fill-opacity="0" fill-rule="evenodd"/>
<text fill="#595959" xml:space="preserve" transform="matrix(.75 0 0 .75 75.850399 259.0593)" font-size="18.666666" font-family="OpenSans"><tspan y="26.919999" x="9 20.218667 30.690667 42.13333 52.250665 62.367998 73.81066 85.25333 95.61333 100.44799 107.09332 111.797328 123.20266 133.56266 143.36266 148.19733 159.60266 164.30666 173.19199 183.55199 188.38666 205.65332 216.12532 220.82932 225.53331 236.97599 247.33599 253.98133 258.81599 270.25865 280.61863 288.23463 298.35197 308.71195">Pengguna tidak bisa melihat harga </tspan></text>
<text fill="#595959" xml:space="preserve" transform="matrix(.75 0 0 .75 75.850399 259.0593)" font-size="18.666666" font-family="OpenSans"><tspan y="52.679994" x="9 20.405333 30.877333 42.32 52.437334 57.14133 64.75733 69.461338 86.728008 97.088008 108.53067 113.36533 122.25066 132.61066 142.97066 149.616 154.45067 165.856 173.472 184.69068 193.576 204.048 212.93334 217.768 229.17334 239.64534 256.91203 267.38404 276.26939 286.62937 298.07203 308.432 319.87467 324.69068">pengiriman saat proses pemesanan, </tspan></text>
<text fill="#595959" xml:space="preserve" transform="matrix(.75 0 0 .75 75.850399 259.0593)" font-size="18.666666" font-family="OpenSans"><tspan y="78.43999" x="9 20.405333 25.109333 33.994668 44.354669 49.189336 66.456 76.928 81.632 86.336009 97.77867 108.13867 114.784008 126.22667 135.56 145.92 150.75467 159.64 170 180.36 187.00534 191.84001 200.72534 212.16802 223.57335 233.93335 245.37602 250.2107 267.47737 277.83735 286.7227 298.16535 307.96534">bisa melihatnya saat sudah masuk </tspan></text>
<text fill="#595959" xml:space="preserve" transform="matrix(.75 0 0 .75 75.850399 259.0593)" font-size="18.666666" font-family="OpenSans"><tspan y="104.19998" x="9 17.941334 29.384 39.856004 48.797338 58.597337 63.432004 74.650669 86.09333">check out</tspan></text>
<text fill="#595959" xml:space="preserve" transform="matrix(.75 0 0 .75 75.850399 259.0593)" font-size="18.666666" font-family="OpenSans"><tspan y="129.95998" x="9"> </tspan></text>
<path transform="matrix(.001968504,0,0,.001968504,0,0)" d="M26013 137098.05V137098.05C26013 134062.69 28473.643 131602.05 31509 131602.05 32966.63 131602.05 34364.56 132181.08 35395.259 133211.78 36425.958 134242.49 37005 135640.4 37005 137098.05 37005 140133.39 34544.357 142594.05 31509 142594.05 28473.643 142594.05 26013 140133.39 26013 137098.05Z" fill="#f29900" fill-rule="evenodd"/>
<text fill="#ffffff" xml:space="preserve" transform="matrix(.75 0 0 .75 54.375474 262.2279)" font-size="18.666666" font-family="ArialMT"><tspan y="16.920155" x="5.0122959">2</tspan></text>
</g>
</g>
</svg>
