<svg xmlns="http://www.w3.org/2000/svg" xmlns:xlink="http://www.w3.org/1999/xlink" version="1.1" width="720pt" height="405pt" viewBox="0 0 720 405">
<defs>
<clipPath id="clip_13">
<path transform="matrix(.001968504,0,0,.001968504,0,0)" d="M0 0H365760V205740H0V0Z"/>
</clipPath>
</defs>
<g>
<g clip-path="url(#clip_13)">
<path transform="matrix(.001968504,0,0,.001968504,0,0)" d="M0 0H365760V205740H0Z" fill="#ffffff" fill-rule="evenodd"/>
<path transform="matrix(.001968504,0,0,.001968504,0,0)" d="M0 13165H2772V43285H0Z" fill="#4285f4" fill-rule="evenodd"/>
<path transform="matrix(.001968504,0,0,.001968504,0,0)" d="M20707 89519H158551V154150.88H20707Z" fill-opacity="0" fill-rule="evenodd"/>
<text fill="#4285f4" xml:space="preserve" transform="matrix(.75 0 0 .75 40.76181 176.2185)" font-size="18.666666" font-family="OpenSans" font-weight="bold"><tspan y="26.919999" x="0 11.461333 22.213334 30.258667 41.085336 52.938669 57.773336 66.84534 77.672008 87.65867 98.48534 103.58134">Peran saya: </tspan></text>
<text fill="#5f6368" xml:space="preserve" transform="matrix(.75 0 0 .75 40.76181 176.2185)" font-size="16" font-family="OpenSans"><tspan y="57.96" x="0 11.6 20.576 28.192002 37.072004 41.104005 50.912004 59.888006 66.41601 70.560009 82.22401 91.45601 95.600009 103.600009 112.48 122.288 130.96 135.104 149.904 158.88 165.408 174.28801 184.09601 191.76001 200.64002 210.44802 219.12001 223.264 232.14402 241.92002 245.95201 249.98401 258.384 267.264 274.88 278.91203 283.05604 292.86405 302.67207 308.36808 318.1761 326.57609">Desainer UX yang merancang aplikasi untuk </tspan></text>
<text fill="#5f6368" xml:space="preserve" transform="matrix(.75 0 0 .75 40.76181 176.2185)" font-size="16" font-family="OpenSans"><tspan y="86.76" x="0 9.776 18.752 25.28 30.976002 38.976 43.120004 53.440004 62.416006 68.94401 75.47201 83.47201 87.616008 102.41601 112.22401 116.256008 125.136 129.168 133.312 143.088 151.968 158.496 162.528 166.672 176.448 185.424 195.232 203.232 213.04 220.65599 230.46399 240.27199 249.152 258.96 263.104 271.504 281.12 290.928 298.544 307.52003 317.29603 321.424">berty Berry mulai dari penyusunan konsep, </tspan></text>
<text fill="#5f6368" xml:space="preserve" transform="matrix(.75 0 0 .75 40.76181 176.2185)" font-size="16" font-family="OpenSans"><tspan y="115.560009" x="0 6.5280005 10.56 18.176 27.152 32.848 36.992 46.768 55.744005 65.552 74.224 82.895999 92.703998 102.51199 111.39199 115.53599 125.34399 129.37599 139.18399 147.85599 156.52799 165.40799 169.55199 175.24799 184.22399 190.75199 200.52799 209.50399 219.31198 225.00798 234.81598 243.21598 253.02397 261.024 269.904 274.048 283.824 292.80003 300.41603 309.29603 313.32804 323.13606">riset pengguna hingga terbentuknya desain </tspan></text>
<text fill="#5f6368" xml:space="preserve" transform="matrix(.75 0 0 .75 40.76181 176.2185)" font-size="16" font-family="OpenSans"><tspan y="144.36" x="0 8.88 17.28 27.088002 31.12 37.648004">akhir.</tspan></text>
<path transform="matrix(.001968504,0,0,.001968504,0,0)" d="M20707 20974H266911V43138H20707Z" fill-opacity="0" fill-rule="evenodd"/>
<text fill="#5f6368" xml:space="preserve" transform="matrix(.75 0 0 .75 40.76181 41.287405)" font-size="32" font-family="OpenSans"><tspan y="39.72" x="0 8.928 25.728 45.344 56.736 64.8 80.032009 97.79201 110.84801 119.13601 138.688 151.744 170.976 186.976 204.928">Ikhtisar proyek</tspan></text>
<path transform="matrix(.001968504,0,0,.001968504,0,0)" d="M20707 71626V71626C20707 65956.24 25303.245 61360 30973 61360 33695.71 61360 36306.91 62441.595 38232.16 64366.84 40157.408 66292.09 41239 68903.29 41239 71626 41239 77295.76 36642.755 81892 30973 81892 25303.245 81892 20707 77295.76 20707 71626Z" fill="#4285f4" fill-rule="evenodd"/>
<path transform="matrix(.001968504,0,0,.001968504,0,0)" d="M182880 89519H320724V187390.72H182880Z" fill-opacity="0" fill-rule="evenodd"/>
<text fill="#4285f4" xml:space="preserve" transform="matrix(.75 0 0 .75 360 176.2185)" font-size="18.666666" font-family="OpenSans" font-weight="bold"><tspan y="26.919999" x="0 10.528 21.354668 33.208 43.54933 53.890665 65.743999 77.59733 87.93866 92.77332 97.962657 108.78932 124.002658 134.82932">Tanggung jawab</tspan></text>
<text fill="#1967d2" xml:space="preserve" transform="matrix(.75 0 0 .75 360 176.2185)" font-size="18.666666" font-family="OpenSans" font-weight="bold"><tspan y="26.919999" x="146.45339 151.54938">: </tspan></text>
<text fill="#5f6368" xml:space="preserve" transform="matrix(.75 0 0 .75 360 176.2185)" font-size="16" font-family="OpenSans"><tspan y="57.96" x="0 14.384001 23.36 27.392 36.272 44.672 54.480005 62.880006 71.76 81.568 85.712 92.24 96.271999 103.88799 112.86399 118.55999 122.70399 132.47998 141.45598 151.26398 159.93598 168.60797 178.41597 188.22397 197.10398 201.23198 205.37598 214.25598 224.06398 233.83998 237.87198 243.56798 247.71198 256.11198 265.72798 280.52796 290.30397 299.27998 304.97599 309.008 314.704 318.73603 324.11204 328.24003">Melakukan riset pengguna, audit kompetitif, </tspan></text>
<text fill="#5f6368" xml:space="preserve" transform="matrix(.75 0 0 .75 360 176.2185)" font-size="16" font-family="OpenSans"><tspan y="86.76" x="0 12.384001 21.264 33.648004 42.528005 52.336008 60.000009 68.880008 75.408008 84.288 88.416">wawancara, </tspan></text>
<text fill="#5f6368" xml:space="preserve" transform="matrix(.75 0 0 .75 360 176.2185)" font-size="16" font-family="OpenSans" font-style="italic"><tspan y="86.76" x="92.671878 104.11188 108.143878 114.463878 122.43188 127.423877 133.74388 142.78388 156.71988 160.75188 169.96788">wireframing</tspan></text>
<text fill="#5f6368" xml:space="preserve" transform="matrix(.75 0 0 .75 360 176.2185)" font-size="16" font-family="OpenSans"><tspan y="86.76" x="178.3125 182.4565 190.85649 199.83249 206.36049 212.05649 220.9365 228.55249 232.69649 242.47249 251.3525 261.1605 265.3045 275.0805 279.11253 287.78453 291.81654 297.51255 306.39256 310.42457 314.55256"> kertas dan digital, </tspan></text>
<text fill="#5f6368" xml:space="preserve" transform="matrix(.75 0 0 .75 360 176.2185)" font-size="16" font-family="OpenSans"><tspan y="115.560009" x="0 14.800001 23.776001 38.576005 48.352006 58.160005 67.04 72.736 76.88 86.656 93.184 102.799999 108.495998 118.11199 123.80799 127.83999 137.61598 146.59198">membuat prototipe </tspan></text>
<text fill="#5f6368" xml:space="preserve" transform="matrix(.75 0 0 .75 360 176.2185)" font-size="16" font-family="OpenSans" font-style="italic"><tspan y="115.560009" x="150.91407 154.94606 163.93807 175.37807 180.37007 189.37807 198.61006 206.57807 210.61006 214.64206 219.90607">low-&#xfb01;delity</tspan></text>
<text fill="#5f6368" xml:space="preserve" transform="matrix(.75 0 0 .75 360 176.2185)" font-size="16" font-family="OpenSans"><tspan y="115.560009" x="227.36719 231.51119 241.28719 250.16719 259.9752"> dan </tspan></text>
<text fill="#5f6368" xml:space="preserve" transform="matrix(.75 0 0 .75 360 176.2185)" font-size="16" font-family="OpenSans" font-style="italic"><tspan y="115.560009" x="264.17189 273.38789 277.4199 285.72389 294.93989 299.9319 308.93989 318.17189 326.13987 330.17189 334.2039 339.4679">high-&#xfb01;delity</tspan></text>
<text fill="#5f6368" xml:space="preserve" transform="matrix(.75 0 0 .75 360 176.2185)" font-size="16" font-family="OpenSans"><tspan y="115.560009" x="346.91407 351.04206">, </tspan></text>
<text fill="#5f6368" xml:space="preserve" transform="matrix(.75 0 0 .75 360 176.2185)" font-size="16" font-family="OpenSans"><tspan y="144.36" x="0 14.800001 23.776001 27.808 36.688 45.088 54.896005 63.296007 72.176 81.984 86.128 93.743999 99.439998 109.24799 119.023998 123.05599">melakukan studi </tspan></text>
<text fill="#5f6368" xml:space="preserve" transform="matrix(.75 0 0 .75 360 176.2185)" font-size="16" font-family="OpenSans" font-style="italic"><tspan y="144.36" x="127.33594 136.55194 143.44794 152.48793 161.71993 165.75193 169.78392 173.81592 179.07993">usability</tspan></text>
<text fill="#5f6368" xml:space="preserve" transform="matrix(.75 0 0 .75 360 176.2185)" font-size="16" font-family="OpenSans"><tspan y="144.36" x="186.5 190.628 194.772 209.572 218.548 233.348 243.12401 252.1 258.62803 268.43605 272.46806 278.16407 287.97209 297.7801 306.4521 314.85209 323.7321 333.5401">, memperhitungkan </tspan></text>
<text fill="#5f6368" xml:space="preserve" transform="matrix(.75 0 0 .75 360 176.2185)" font-size="16" font-family="OpenSans"><tspan y="173.16" x="0 8.88 17.28 24.896 33.872 41.488004 45.520006 55.296007 59.328008 63.36001 67.392009 73.088008 81.968 89.584 93.712 97.855998 107.631999 116.51199 126.31999 130.46399 145.26399 154.23999 158.27199 167.152 175.55199 185.35999 193.75998 202.63999 212.44799 216.59198 220.62398 226.31998 235.29598 241.82398 250.70398 258.31999 262.352 266.496 276.272 285.24803 292.864 301.74403 305.77604 315.58406">aksesibilitas, dan melakukan iterasi desain.</tspan></text>
<path transform="matrix(.001968504,0,0,.001968504,0,0)" d="M182880 71626V71626C182880 65956.24 187476.25 61360 193146 61360 195868.72 61360 198479.9 62441.595 200405.16 64366.84 202330.4 66292.09 203412 68903.29 203412 71626 203412 77295.76 198815.75 81892 193146 81892 187476.25 81892 182880 77295.76 182880 71626Z" fill="#4285f4" fill-rule="evenodd"/>
<path transform="matrix(.001968504,0,0,.001968504,0,0)" d="M30942.493 71619.97C32384.235 71619.97 33510.978 70457.449 33510.978 69064.839 33510.978 67623.8 32347.889 66497.6 30942.493 66497.6 29549.21 66497.6 28386.124 67660.128 28386.124 69064.839 28349.778 70457.449 29512.864 71619.97 30942.493 71619.97ZM30942.493 72891.48C29234.208 72891.48 25817.64 73739.15 25817.64 75434.49V76742.33H36115.806V75434.49C36079.458 73775.48 32650.776 72891.48 30942.493 72891.48Z" fill="#ffffff" fill-rule="evenodd"/>
<path transform="matrix(.001968504,0,0,.001968504,0,0)" d="M187427.49 72270.058H188703.7V71006.65H187427.49V72270.058ZM187427.49 74809.019H188703.7V73545.61H187427.49V74809.019ZM187427.49 69706.8H188703.7V68431.24H187427.49V69706.8ZM189967.78 72270.058H198852.72V71006.65H189967.78V72270.058ZM189967.78 74809.019H198852.72V73545.61H189967.78V74809.019ZM189967.78 68431.24V69706.8H198852.72V68431.24H189967.78Z" fill="#ffffff" fill-rule="evenodd"/>
</g>
</g>
</svg>
