<svg xmlns="http://www.w3.org/2000/svg" xmlns:xlink="http://www.w3.org/1999/xlink" version="1.1" width="720pt" height="405pt" viewBox="0 0 720 405">
<defs>
<clipPath id="clip_15">
<path transform="matrix(.001968504,0,0,.001968504,0,0)" d="M0 0H365760V205740H0V0Z"/>
</clipPath>
</defs>
<g>
<g clip-path="url(#clip_15)">
<path transform="matrix(.001968504,0,0,.001968504,0,0)" d="M0 0H365760V205740H0Z" fill="#ffffff" fill-rule="evenodd"/>
<path transform="matrix(.001968504,0,0,.001968504,0,0)" d="M0 13165H2772V43285H0Z" fill="#ea4335" fill-rule="evenodd"/>
<path transform="matrix(.001968504,0,0,.001968504,0,0)" d="M24102 56977.8H341658V191806.24H24102Z" fill="#f8f9fa" fill-rule="evenodd"/>
<path transform="matrix(.001968504,0,0,.001968504,0,0)" d="M20707 20974H266911V43138H20707Z" fill-opacity="0" fill-rule="evenodd"/>
<text fill="#5f6368" xml:space="preserve" transform="matrix(.75 0 0 .75 40.76181 41.287405)" font-size="32" font-family="OpenSans"><tspan y="39.72" x="0 19.744002 27.808003 43.04 60.992006 72.384 80.672008 100.22401 118.17601 137.792 155.13602 172.48001 192.09601 211.712 229.472 237.856 246.144 259.2 267.264 286.88 304.224 321.024 338.784 354.016 371.776">Riset pengguna: ringkasan</tspan></text>
<path transform="matrix(.001968504,0,0,.001968504,0,0)" d="M40158 75444.96H325602V183684.96H40158Z" fill-opacity="0" fill-rule="evenodd"/>
<text fill="#5f6368" xml:space="preserve" transform="matrix(.75 0 0 .75 79.05118 148.5137)" font-size="16" font-family="OpenSans"><tspan y="24.36" x="36.782014 45.550016 54.430017 62.430017 71.31001 75.45401 90.25401 99.23001 103.26201 112.142009 120.54201 130.35 138.75 147.63 157.438 161.582 173.966 182.84601 195.23001 204.11002 213.91802 221.58202 230.46202 236.99002 245.87003 250.01403 259.79 268.67 278.47804 282.62205 297.42204 306.39805 321.19804 330.97404 340.78205 349.66206 355.35807 359.50209 369.27809 378.2541 383.9501 392.8301 396.97413 405.95014 420.75013 430.52613 439.40614 445.10215 449.13417 453.27818 463.08619 472.8942 478.5902 488.39823 496.79823 500.94224 515.74227 524.71829 539.51828 548.39828 558.20626 567.08627 581.8862 585.9182 590.0622 599.8382 608.7182 615.2462 624.1262 628.2702 638.0462 647.0222 656.8302 665.5022 674.1742 683.9822 693.79019 702.67019">Saya melakukan wawancara dan membuat peta empati untuk memahami para pengguna </tspan></text>
<text fill="#5f6368" xml:space="preserve" transform="matrix(.75 0 0 .75 79.05118 148.5137)" font-size="16" font-family="OpenSans"><tspan y="46.44" x="8.106232 16.106232 24.986233 34.794237 43.466238 47.610239 57.38624 66.362239 72.890239 81.29024 90.170238 94.20223 99.89823 108.77823 118.58623 122.730228 132.50623 141.48223 151.29022 159.96222 168.84223 178.65023 182.79422 189.32222 198.20223 208.01023 215.67423 224.55423 234.36223 243.03423 251.91423 261.72224 265.86625 273.48225 282.36225 290.36225 299.24226 303.38627 313.16227 322.04228 331.85029 335.9943 344.3943 353.3703 363.1463 372.9543 378.65034 388.45835 398.26637 407.14637 416.95439 421.0984 435.89839 444.8744 451.4024 460.37843 468.7784 477.65843 481.8504 485.99443 495.7864 504.76243 508.79444 518.41049 533.21047 542.98648 552.6025 561.0025 565.1465 574.9225 583.8985 593.7065 602.3785 611.0505 620.85848 630.66647 639.54647 643.6904 653.4984 659.1944 668.0744 682.8744 691.7544 695.8984 703.8984 712.7784 722.58639 731.25839">yang berkaitan dengan rancangan saya dan kebutuhan mereka. Kelompok pengguna utama yang </tspan></text>
<text fill="#5f6368" xml:space="preserve" transform="matrix(.75 0 0 .75 79.05118 148.5137)" font-size="16" font-family="OpenSans"><tspan y="68.52" x="8.348419 18.12442 22.15642 26.18842 35.96442 44.940423 54.74842 60.44442 64.47642 73.884418 82.28442 91.16441 98.78041 102.81241 106.956409 121.75641 130.7324 134.7644 143.64441 147.6764 157.4844 161.5164 165.6604 175.4364 184.4124 194.2204 203.1964 207.2284 211.26039 216.95639 220.98839 229.8684 239.67639 243.82039 252.7004 262.47639 271.35639 275.3884 284.2684 294.07643 298.22044 307.83644 314.36445 323.24446 333.05247 341.72447 345.86848 353.86848 362.74848 372.5565 381.2285 385.3725 391.0685 395.10054 404.87654 413.75654 422.15653 426.30055 436.07655 445.88456 455.69258 463.69258 472.57258 476.71659 489.1006 497.9806 506.38059 512.0766 521.8846 526.02859 540.82858 549.80459 553.83657 562.71658 571.1166 580.92459 589.3246 598.2046 608.0126 612.15658 621.93258 630.90859 645.70858 654.6846 662.3006 671.1806 680.9886 689.8686 699.6766 703.82058 712.2206 722.02859 731.0046">diidenti&#xfb01;kasi melalui penelitian adalah orang yang tidak punya waktu melakukan pemesanan kue </tspan></text>
<text fill="#5f6368" xml:space="preserve" transform="matrix(.75 0 0 .75 79.05118 148.5137)" font-size="16" font-family="OpenSans"><tspan y="90.6" x="20.727326 30.535326 40.343328 46.039327 55.84733 64.24733 68.39133 78.199329 87.07932 93.60732 97.63932 101.78332 109.399318 119.175319 128.15132 135.76732 139.79932 148.67932 152.71132 156.85532 171.65532 180.63132 187.15932 196.13532 204.53531 213.41532 217.55931 225.17531 234.1513 241.8153 250.69532 257.22334 266.10334 270.24736 274.27937 283.15937 292.96739 301.63938 309.25538 319.0634 328.8714 337.5434 341.6874 351.4634 355.49543 363.89543 372.77543 379.30345 388.27946 398.08747 406.96748 415.36747 424.24748 434.05549 438.1995 446.5995 455.5755 463.1915 467.2235 476.9995 486.80754 495.20753 504.08753 513.8955 523.7035 531.7035 540.5835 544.7275 552.3435 561.3195 571.1275 575.1595 584.96749 593.63949 602.31149 611.19149 615.33547 630.13546 639.11148 645.63949 654.6155 663.0155 671.8955 676.0395 685.8475 694.7275 701.2555 711.0635 718.6795">untuk hari spesial mereka secara langsung dikarenakan kesibukannya sehingga mereka harus </tspan></text>
<text fill="#5f6368" xml:space="preserve" transform="matrix(.75 0 0 .75 79.05118 148.5137)" font-size="16" font-family="OpenSans"><tspan y="112.68" x="22.53592 37.335924 46.311925 50.343927 59.223928 67.623928 77.43192 85.831928 94.71192 104.51992 108.66392 118.43992 127.41592 142.21591 151.19191 158.8079 167.68791 177.49591 186.37592 196.18392 200.32791 208.7279 218.5359 227.5119 231.6559 239.2719 248.2479 255.9119 264.7919 271.31993 280.19993 284.34394 293.95994 303.76795 307.79997 311.83198 321.63999 330.616 334.80799 338.952 348.744 357.72 367.528 377.30403 386.18403 390.21604 399.09605 403.24006 410.85606 419.73606 428.61607 434.31208 438.4561 453.25608 462.2321 466.2641 475.1441 483.5441 493.3521 501.7521 510.6321 520.4401 524.5841 534.3601 543.3361 558.1361 567.1121 574.72817 583.60818 593.41616 602.29617 612.1041 616.2481 625.86416 635.6721 639.7041 643.7361 653.54409 662.5201 666.66409 675.54409 685.32009 694.2001 698.23208 707.11209 716.92007">melakukan pemesanan kue secara online. Kendala saat melakukan pemesanan online adalah </tspan></text>
<text fill="#5f6368" xml:space="preserve" transform="matrix(.75 0 0 .75 79.05118 148.5137)" font-size="16" font-family="OpenSans"><tspan y="134.76" x="3.1374818 12.913482 21.889483 31.697484 40.369485 49.041486 58.849489 68.657489 77.53748 81.68148 87.37748 91.40948 101.18548 110.065479 118.46548 122.609477 132.38547 136.41747 144.03347 152.91347 157.05747 171.85747 180.83347 184.86547 193.74547 201.40947 210.28948 218.68947 222.83347 232.60947 241.58547 249.20146 258.08146 267.88948 276.76948 286.57749 290.7215 305.52149 314.4975 321.0255 330.00154 338.40153 347.28153 351.40953 355.55354 363.16954 372.14555 381.95356 385.98558 395.79359 404.46559 413.13758 422.01759 426.1616 440.96159 449.9376 456.4656 465.44163 473.8416 482.72163 486.86564 496.67366 505.55366 512.08169 521.88967 529.5057 533.64968 541.2657 550.2417 554.2737 563.1537 567.18569 576.99368 581.13766 595.9376 604.91366 614.7216 623.6016 633.4096 641.4096 650.2896 658.68966 667.56967 677.3776 681.5216 689.92166 698.89767 708.67367 717.55368 727.32968 736.20968">pengguna tidak bisa melacak pesanan mereka, sehingga mereka harus selalu menanyakan kepada </tspan></text>
<text fill="#5f6368" xml:space="preserve" transform="matrix(.75 0 0 .75 79.05118 148.5137)" font-size="16" font-family="OpenSans"><tspan y="156.84" x="31.3992 41.1752 50.151205 59.959207 63.991209 73.79921 82.67921 86.711208 90.8552 105.655208 114.6312 124.4392 133.1112 142.0872 151.8952 160.7752 164.8072 168.9512 176.5672 182.2632 191.1432 196.8392 206.6472 214.2632 218.4072 224.1032 233.0792 239.6072 248.00719 252.03919 261.8472 265.8792 270.02323 279.79924 288.77525 296.39125 305.27125 315.07926 323.95927 333.76728 337.9113 352.71128 361.6873 368.2153 377.1913 385.5913 394.4713 398.6633 402.8073 411.57533 420.55134 424.58335 433.46336 437.49537 447.30339 451.4474 455.4794 461.1754 470.98344 475.11143 479.25544 489.06346 497.94346 512.74349 522.5195 531.3995 537.09548 545.97549 555.78347 559.9274 563.9594 572.8394 576.8714 586.6794 590.82339 598.4394 607.3194 616.1994 621.8954 626.03939 640.83938 649.81539 653.84738 662.72738 671.1274 680.93539 689.3354 698.2154 708.0234">penjual mengenai status terkini pesanan mereka. Selain itu, hambatan lain saat melakukan </tspan></text>
<text fill="#5f6368" xml:space="preserve" transform="matrix(.75 0 0 .75 79.05118 148.5137)" font-size="16" font-family="OpenSans"><tspan y="178.92" x="22.235138 32.01114 40.98714 55.78714 64.76314 72.379138 81.25913 91.06713 99.94713 109.75513 113.899127 123.51512 133.32312 137.35512 141.38712 151.19512 160.17111 164.31511 173.19512 182.97112 191.85112 195.88312 204.76313 214.57112 218.71512 227.11511 236.92311 243.45111 252.33112 262.13914 270.81114 274.95515 278.98716 287.96318 291.99519 300.87519 308.49119 318.2992 326.2992 335.1792 339.3232 349.0992 353.13124 357.16325 361.19526 371.00328 379.88328 389.69129 393.8353 408.63529 417.6113 423.3073 432.9233 442.6993 451.67533 455.81935 465.59535 474.57136 489.37135 499.14735 508.02735 516.02737 524.90737 531.43539 540.31539 550.12338 554.26736 562.26736 571.14736 580.9553 589.6273 593.7713 603.5473 612.4273 622.2033 631.0833 636.7793 640.9233 650.6993 654.73129 658.76327 667.64328 676.0433 685.85128 694.2513 703.1313 712.9393 717.1313">pemesanan online adalah kurang jelasnya pilihan metode pembayaran yang dapat dilakukan. </tspan></text>
<text fill="#5f6368" xml:space="preserve" transform="matrix(.75 0 0 .75 79.05118 148.5137)" font-size="16" font-family="OpenSans"><tspan y="201" x="2.016388 11.632388 20.608389 30.41639 39.08839 47.76039 57.56839 67.37639 76.256389 80.40038 90.20838 99.08838 105.61638 115.42438 123.040378 127.18437 141.98438 150.96038 160.76837 169.64838 179.45638 187.45638 196.33638 204.73638 213.61638 223.42438 227.56838 242.36838 251.34438 257.04039 266.65638 276.43238 285.4084 289.5524 299.3284 308.3044 323.1044 332.8804 341.7604 349.7604 358.6404 365.16844 374.04844 383.85646 388.00047 392.03248 400.91249 404.9445 414.7525 418.8965 426.5125 435.39253 444.27253 449.96855 454.11256 468.91255 477.88856 483.58457 493.20057 502.97657 511.95259 516.09658 525.87258 534.8486 549.64859 559.42459 568.30459 576.30459 585.1846 591.7126 600.5926 610.4006 614.54458 622.54458 631.42459 641.23257 649.90457 654.0485 663.8245 667.8565 673.5525 682.4325 694.81649 703.6965 710.2245 718.6245 727.5045 737.3125">Pengguna harus menanyakan metode pembayaran lain saat metode pembayaran yang ditawarkan </tspan></text>
<text fill="#5f6368" xml:space="preserve" transform="matrix(.75 0 0 .75 79.05118 148.5137)" font-size="16" font-family="OpenSans"><tspan y="223.08" x="6.973419 15.37342 25.18142 31.70942 40.58942 50.397424 59.069425 63.213426 70.82942 79.80542 87.42142 97.229419 106.10941 110.14141 114.26941 118.41341 126.81341 135.78942 150.58942 160.39742 170.17342 174.20542 183.08542 192.89342 197.03742 206.81342 215.78942 225.59741 229.62941 239.43741 248.31742 252.34941 256.4934 265.3734 273.7734 282.6534 292.46144 296.60545 311.40544 320.38145 330.18946 339.06947 351.45347 360.33348 366.86149 375.26148 384.14149 393.9495 398.0935 412.8935 421.8695 427.56553 437.18153 446.95753 455.93354 460.07756 464.10957 472.98957 477.02159 486.8296 490.9736 498.9736 507.8536 517.6616 526.3336 530.4776 540.2536 549.1336 558.9096 567.7896 573.4856 577.6296 587.4056 591.43759 595.46957 604.34957 612.7496 622.55758 630.9576 639.8376 649.64559 653.78958 663.56558 672.54159 682.34957 691.02157 699.69357 709.5015 719.3095 728.1895 732.38156">kurang sesuai, kemudian penjual akan menawarkan metode lain yang dapat dilakukan pengguna. </tspan></text>
<text fill="#5f6368" xml:space="preserve" transform="matrix(.75 0 0 .75 79.05118 148.5137)" font-size="16" font-family="OpenSans"><tspan y="245.16" x="11.5867 20.354702 29.330704 39.138704 43.170705 52.978708 61.650709 70.32271 79.202709 83.3467 89.0427 98.0187 104.5467 114.3227 123.2027 132.9787 141.8587 147.5547 151.6987 160.0987 169.07469 183.8747 193.6827 203.49069 212.16269 220.56269 224.59468 234.40268 243.28269 253.09069 257.23469 267.01069 275.9867 285.7947 294.4667 303.1387 312.94673 322.75474 331.63475 335.77876 339.81077 348.69078 352.72279 362.5308 366.6748 372.37083 376.40284 386.17884 395.05885 403.45884 407.60285 422.40284 431.37886 441.18687 449.85887 458.83488 464.53089 473.4109 483.2189 493.02693 497.05894 501.20295 505.23497 514.21096 524.0189 528.0509 535.66696 539.8109 554.6109 563.5869 569.2829 578.8989 588.6749 597.65097 601.7949 611.5709 620.54696 635.3469 645.1229 654.0029 662.0029 670.88296 677.41098 686.29098 696.09896 700.2429 709.1229 718.8989 727.77896">Sehingga terdapat kemungkinan pengguna lain tidak mengetahui jenis metode pembayaran apa </tspan></text>
<text fill="#5f6368" xml:space="preserve" transform="matrix(.75 0 0 .75 79.05118 148.5137)" font-size="16" font-family="OpenSans"><tspan y="267.24" x="250.39139 258.0074 266.8874 270.9194 279.7994 283.94343 291.94343 300.82344 310.63145 319.30345 323.44746 333.22346 342.10346 351.87947 360.75947 366.45549 370.5995 385.39949 394.3755 400.9035 409.87953 418.2795 427.15953 431.30354 435.33555 444.21556 452.61555 462.42356 470.82356 479.70356 489.51158">saja yang dapat mereka lakukan </tspan></text>
<path transform="matrix(.001968504,0,0,.001968504,0,0)" d="M169219 60420.76V60420.76C169219 54751.005 173815.25 50154.76 179485 50154.76 182207.72 50154.76 184818.9 51236.35 186744.16 53161.6 188669.4 55086.85 189751 57698.048 189751 60420.76 189751 66090.519 185154.75 70686.76 179485 70686.76 173815.25 70686.76 169219 66090.519 169219 60420.76Z" fill="#ea4335" fill-rule="evenodd"/>
<path transform="matrix(.001968504,0,0,.001968504,0,0)" d="M183023.96 55863.32H175936.39C175383.74 55863.32 174928.05 56328.22 174928.05 56880.287V63950.63C174928.05 64502.697 175383.74 64967.595 175936.39 64967.595H183023.96C183566.9 64967.595 184032.3 64502.697 184032.3 63950.63V56880.287C184032.3 56328.22 183566.9 55863.32 183023.96 55863.32ZM177962.8 62972.404H176944.75V59417.86H177962.8V62972.404ZM179989.2 62972.404H178971.14V57916.626H179989.2V62972.404ZM182005.9 62972.404H180997.55V60948.154H182005.9V62972.404Z" fill="#ffffff" fill-rule="evenodd"/>
</g>
</g>
</svg>
