<svg xmlns="http://www.w3.org/2000/svg" xmlns:xlink="http://www.w3.org/1999/xlink" version="1.1" width="720pt" height="405pt" viewBox="0 0 720 405">
<defs>
<clipPath id="clip_12">
<path transform="matrix(.001968504,0,0,.001968504,0,0)" d="M0 0H365760V205740H0V0Z"/>
</clipPath>
</defs>
<g>
<g clip-path="url(#clip_12)">
<path transform="matrix(.001968504,0,0,.001968504,0,0)" d="M0 0H365760V205740H0Z" fill="#ffffff" fill-rule="evenodd"/>
<path transform="matrix(.001968504,0,0,.001968504,0,0)" d="M0 13165H2772V43285H0Z" fill="#4285f4" fill-rule="evenodd"/>
<path transform="matrix(.001968504,0,0,.001968504,0,0)" d="M20707 89519H158551V154150.88H20707Z" fill-opacity="0" fill-rule="evenodd"/>
<text fill="#4285f4" xml:space="preserve" transform="matrix(.75 0 0 .75 40.76181 176.2185)" font-size="18.666666" font-family="OpenSans" font-weight="bold"><tspan y="26.919999" x="0 11.461333 22.213334 30.258667 48.066667 58.893335 67.96533 78.792 83.98133 94.808 106.66133 117.488 129.34134 134.43733">Permasalahan: </tspan></text>
<text fill="#5f6368" xml:space="preserve" transform="matrix(.75 0 0 .75 40.76181 176.2185)" font-size="16" font-family="OpenSans"><tspan y="57.96" x="0 9.616 18.592001 22.624 31.504002 41.312005 49.984006 58.656007 67.536 77.344 81.488 90.368 96.063999 104.94399 114.75199 118.89599 126.511989 135.48799 143.10399 152.07999 161.69599 168.22399 177.10399 186.91199 195.58399 199.72798 207.72798 216.60799 226.41599 235.08798 239.23198 244.92798 248.95998 258.73597 267.61598 276.01597 280.15998 294.95997 303.93598 318.73597 322.76799 326.8 330.832 339.232 343.264">Pelanggan atau seseorang yang tidak memiliki </tspan></text>
<text fill="#5f6368" xml:space="preserve" transform="matrix(.75 0 0 .75 40.76181 176.2185)" font-size="16" font-family="OpenSans"><tspan y="86.76" x="0 12.384001 21.264 29.664002 35.36 45.168 49.312 58.192 63.888 72.768 82.576 86.71999 95.119998 104.09599 118.895999 127.77599 142.57599 152.35199 162.15999 171.04 180.84799 184.99199 194.79999 204.60799 210.30399 220.11199 228.51198 232.65598 247.45598 256.43199 271.23197 280.20799 287.82398 296.70399 306.512 310.656 319.056 328.864 337.84004">waktu atau kemampuan untuk memesan kue </tspan></text>
<text fill="#5f6368" xml:space="preserve" transform="matrix(.75 0 0 .75 40.76181 176.2185)" font-size="16" font-family="OpenSans"><tspan y="115.560009" x="0 9.808001 19.616002 25.312 35.120004 43.520006 47.664007 56.544008 64.20801 73.088008 79.616008 88.496 92.64 100.256 110.032 119.007999 126.62399 130.65599 139.536 143.568 147.71199 155.32799 164.30399 171.96799 180.84799 187.37599 196.256 200.4 204.43199 213.312 223.12 231.79199 239.40799 249.21599 259.024 267.69599 271.84 281.616 290.496 296.19203 305.07203 314.88005 323.55204 327.69606 336.09605 345.07206">untuk acara spesial secara langsung datang ke </tspan></text>
<text fill="#5f6368" xml:space="preserve" transform="matrix(.75 0 0 .75 40.76181 176.2185)" font-size="16" font-family="OpenSans"><tspan y="144.36" x="0 5.696 15.312 23.712002 33.328004 37.472005 47.248006 51.280008 59.680009 68.560009 75.088008 84.064 93.872 102.752 111.152 120.032 129.84 133.984 142.38399 151.35999 158.97599 163.00798 172.78398 182.59198 190.99198 199.87198 209.67998 219.48798 227.48798 236.36798">toko dikarenakan kesibukannya.</tspan></text>
<path transform="matrix(.001968504,0,0,.001968504,0,0)" d="M20707 20974H266911V43138H20707Z" fill-opacity="0" fill-rule="evenodd"/>
<text fill="#5f6368" xml:space="preserve" transform="matrix(.75 0 0 .75 40.76181 41.287405)" font-size="32" font-family="OpenSans"><tspan y="39.72" x="0 8.928 25.728 45.344 56.736 64.8 80.032009 97.79201 110.84801 119.13601 138.688 151.744 170.976 186.976 204.928">Ikhtisar proyek</tspan></text>
<path transform="matrix(.001968504,0,0,.001968504,0,0)" d="M20707 71626V71626C20707 65956.24 25303.245 61360 30973 61360 33695.71 61360 36306.91 62441.595 38232.16 64366.84 40157.408 66292.09 41239 68903.29 41239 71626 41239 77295.76 36642.755 81892 30973 81892 25303.245 81892 20707 77295.76 20707 71626Z" fill="#4285f4" fill-rule="evenodd"/>
<path transform="matrix(.001968504,0,0,.001968504,0,0)" d="M182880 89519H320724V161555H182880Z" fill-opacity="0" fill-rule="evenodd"/>
<text fill="#4285f4" xml:space="preserve" transform="matrix(.75 0 0 .75 360 176.2185)" font-size="18.666666" font-family="OpenSans" font-weight="bold"><tspan y="26.919999" x="0 10.528 22.381333 27.570666 39.424 50.250669 62.104 67.2">Tujuan: </tspan></text>
<text fill="#5f6368" xml:space="preserve" transform="matrix(.75 0 0 .75 360 176.2185)" font-size="16" font-family="OpenSans"><tspan y="57.96" x="0 11.6 20.576 28.192002 37.072004 41.104005 50.912004 55.056005 63.936006 73.712009 77.744 81.776 90.176 99.056 106.672 110.703998 114.84799 124.65599 134.46399 140.15999 149.96799 158.36798 162.51198 172.83199 181.80799 188.33599 194.03199 202.03199 206.17598 216.49599 225.47199 231.99999 238.52799 246.52799 250.67198 258.672 267.552 277.36003 286.032">Desain aplikasi untuk Berty Berry yang </tspan></text>
<text fill="#5f6368" xml:space="preserve" transform="matrix(.75 0 0 .75 360 176.2185)" font-size="16" font-family="OpenSans"><tspan y="86.76" x="0 14.800001 23.776001 38.576005 48.384004 58.192 66.864 75.264 79.296 89.104 97.504 106.383998 116.19199 120.33599 130.11199 139.08798 148.89598 157.56798 166.23998 176.04798 185.85597 194.73598 198.87998 208.68798 218.49597 224.19197 233.99997 242.39997 246.54396 261.34397 270.31999 285.11997 294.09599 301.71199 310.59199 320.4 324.544 332.944 342.752 351.72804">memungkinkan pengguna untuk memesan kue </tspan></text>
<text fill="#5f6368" xml:space="preserve" transform="matrix(.75 0 0 .75 360 176.2185)" font-size="16" font-family="OpenSans"><tspan y="115.560009" x="0 9.776 18.656 28.464 32.608 40.224004 49.104005 63.904008 73.68001 82.560009 86.592 90.736 100.512 104.544 111.072 120.88 135.68 144.56 154.368 158.512 168.288 177.26399 187.07199 195.74399 204.624 214.43199 218.57599 226.19199 235.16799 239.19998 248.07999 262.87998 271.75999 277.456 281.6 291.40803 301.21604 306.91206 316.72007 325.12007">dan sampai dirumah dengan selamat untuk </tspan></text>
<text fill="#5f6368" xml:space="preserve" transform="matrix(.75 0 0 .75 360 176.2185)" font-size="16" font-family="OpenSans"><tspan y="144.36" x="0 14.800001 23.776001 38.576005 47.552007 54.080007 58.112009 66.992008 76.8 85.200008 94.08 103.888 108.032 116.911998 124.576 133.456 139.984 148.864 153.008 160.624 170.4 179.37599 186.99199 191.02399 199.90399 203.93599 208.07999 216.07999 224.95999 234.76799 243.43999 247.58399 253.27999 262.25599 266.288 275.168 284.976">memeriahkan acara spesial yang telah </tspan></text>
<text fill="#5f6368" xml:space="preserve" transform="matrix(.75 0 0 .75 360 176.2185)" font-size="16" font-family="OpenSans"><tspan y="173.16" x="0 9.776 13.808001 20.336 29.312 39.120004 46.784006 55.664007 65.47201 74.352008 82.75201 91.632 101.44">direncanakan.</tspan></text>
<path transform="matrix(.001968504,0,0,.001968504,0,0)" d="M182880 71626V71626C182880 65956.24 187476.25 61360 193146 61360 195868.72 61360 198479.9 62441.595 200405.16 64366.84 202330.4 66292.09 203412 68903.29 203412 71626 203412 77295.76 198815.75 81892 193146 81892 187476.25 81892 182880 77295.76 182880 71626Z" fill="#4285f4" fill-rule="evenodd"/>
<path transform="matrix(.001968504,0,0,.001968504,0,0)" d="M193140.49 74956.738 196700.99 77099.917 195761.1 73056.6 198912.47 70316.878 194765.94 69974.41 193140.49 66141 191515.05 69974.41 187368.52 70316.878 190519.89 73056.6 189580 77099.917 193140.49 74956.738" fill="#ffffff" fill-rule="evenodd"/>
<path transform="matrix(.001968504,0,0,.001968504,0,0)" d="M31511.594 68947.27V72164.63H30434.407V68947.27ZM31511.594 73234.72V74304.808H30434.407V73234.72ZM30969.424 66272.04 30698.338 66279.199 30427.252 66300.558 30156.166 66336.22 29892.237 66379.05 29635.407 66443.27 29378.579 66514.61 29128.905 66600.2 28886.333 66692.95 28650.915 66799.95 28422.65 66921.21 28194.336 67049.628 27980.33 67185.199 27766.323 67334.97 27566.575 67491.95 27373.926 67663.13 27188.485 67841.52 27010.094 68026.97 26838.91 68219.62 26681.93 68426.47 26532.157 68633.37 26396.588 68847.378 26268.174 69075.69 26146.915 69303.95 26039.91 69539.378 25940.01 69789.05 25861.573 70031.62 25790.237 70288.449 25726.004 70545.27 25683.182 70809.2 25647.514 71080.29 25626.155 71351.378 25619 71629.62 25626.155 71900.7 25647.514 72171.79 25683.182 72442.878 25726.004 72706.808 25790.237 72963.63 25861.573 73220.46 25940.01 73470.13 26039.91 73712.71 26146.915 73948.128 26268.174 74176.39 26396.588 74404.7 26532.157 74618.71 26681.93 74832.72 26838.91 75032.47 27010.094 75225.12 27188.485 75410.558 27373.926 75588.949 27566.575 75760.13 27766.323 75917.11 27980.33 76066.88 28194.336 76202.45 28422.65 76330.87 28650.915 76452.128 28886.333 76559.13 29128.905 76659.03 29378.579 76737.47 29635.407 76808.808 29892.237 76873.04 30156.166 76915.86 30427.252 76951.52 30698.338 76972.88 30969.424 76980.04 31247.663 76972.88 31518.749 76951.52 31789.834 76915.86 32053.764 76873.04 32310.594 76808.808 32567.422 76737.47 32809.994 76659.03 33059.669 76559.13 33295.087 76452.128 33523.349 76330.87 33751.666 76202.45 33965.67 76066.88 34172.576 75917.11 34379.427 75760.13 34572.076 75588.949 34757.517 75410.558 34935.908 75225.12 35107.09 75032.47 35264.07 74832.72 35413.845 74618.71 35549.41 74404.7 35677.826 74176.39 35799.087 73948.128 35906.09 73712.71 35998.837 73470.13 36084.43 73220.46 36155.767 72963.63 36219.998 72706.808 36262.82 72442.878 36298.486 72171.79 36319.849 71900.7 36327 71629.62 36319.849 71351.378 36298.486 71080.29 36262.82 70809.2 36219.998 70545.27 36155.767 70288.449 36084.43 70031.62 35998.837 69789.05 35906.09 69539.378 35799.087 69303.95 35677.826 69075.69 35549.41 68847.378 35413.845 68633.37 35264.07 68426.47 35107.09 68219.62 34935.908 68026.97 34757.517 67841.52 34572.076 67663.13 34379.427 67491.95 34172.576 67334.97 33965.67 67185.199 33751.666 67049.628 33523.349 66921.21 33295.087 66799.95 33059.669 66692.95 32809.994 66600.2 32567.422 66514.61 32310.594 66443.27 32053.764 66379.05 31789.834 66336.22 31518.749 66300.558 31247.663 66279.199 30969.424 66272.04Z" fill="#ffffff" fill-rule="evenodd"/>
</g>
</g>
</svg>
