<svg xmlns="http://www.w3.org/2000/svg" xmlns:xlink="http://www.w3.org/1999/xlink" version="1.1" width="720pt" height="405pt" viewBox="0 0 720 405">
<defs>
<clipPath id="clip_68">
<path transform="matrix(.001968504,0,0,.001968504,0,0)" d="M0 0H365760V205740H0V0Z"/>
</clipPath>
</defs>
<g>
<g clip-path="url(#clip_68)">
<path transform="matrix(.001968504,0,0,.001968504,0,0)" d="M0 0H365760V205740H0Z" fill="#ffffff" fill-rule="evenodd"/>
<path transform="matrix(.001968504,0,0,.001968504,0,0)" d="M0 13165H2772V43285H0Z" fill="#9aa0a6" fill-rule="evenodd"/>
<path transform="matrix(.001968504,0,0,.001968504,0,0)" d="M20707 20973.52H217951V43137.52H20707Z" fill-opacity="0" fill-rule="evenodd"/>
<text fill="#5f6368" xml:space="preserve" transform="matrix(.75 0 0 .75 40.76181 41.286458)" font-size="32" font-family="OpenSans"><tspan y="39.72" x="0 19.232 37.184003 45.248 63.008005 71.07201 88.83201 101.88801 119.64801 139.264 147.552 166.784 184.736 204.35199 215.74399 223.80799 243.42398">Pelajaran Penting</tspan></text>
<path transform="matrix(.001968504,0,0,.001968504,0,0)" d="M21584 89519H159428V198470.69H21584Z" fill-opacity="0" fill-rule="evenodd"/>
<text fill="#5f6368" xml:space="preserve" transform="matrix(.75 0 0 .75 42.48819 176.2185)" font-size="18.666666" font-family="OpenSans" font-weight="bold"><tspan y="26.919999" x="0 13.6640009 24.490668 42.298669 53.909337 64.736 75.41333 80.50933">Dampak: </tspan></text>
<text fill="#5f6368" xml:space="preserve" transform="matrix(.75 0 0 .75 42.48819 176.2185)" font-size="16" font-family="OpenSans"><tspan y="57.96" x="0 8.768001 17.648 25.648 34.528 38.672 48.448 57.424005 63.952005 73.76 82.64 89.168 98.048 107.824 111.967998 121.743999 130.72 138.336 147.216 151.248 161.056 165.2 172.816 181.696 189.696 198.576 202.72 212.496 221.376 231.15201 240.03202 245.72801 249.87201 264.672 273.648 288.448 297.424 307.23204 317.04005 326.84806 330.88008">Saya berharap desain saya dapat memenuhi </tspan></text>
<text fill="#5f6368" xml:space="preserve" transform="matrix(.75 0 0 .75 42.48819 176.2185)" font-size="16" font-family="OpenSans"><tspan y="86.76" x="0 8.400001 17.376002 27.152 36.96 42.656 52.463998 62.271997 71.15199 80.95999 85.10399 94.87999 103.85599 113.66399 122.33598 131.00798 140.81598 150.62398">kebutuhan pengguna</tspan></text>
<text fill="#1967d2" xml:space="preserve" transform="matrix(.75 0 0 .75 42.48819 176.2185)" font-size="16" font-family="OpenSans" font-weight="bold"><tspan y="86.76" x="159.65625">.</tspan></text>
<text fill="#7f7f7f" xml:space="preserve" transform="matrix(.75 0 0 .75 42.48819 176.2185)" font-size="16" font-family="OpenSans"><tspan y="115.560009" x="0 8.768001 17.648 23.344002 33.152 37.296 45.696004 55.504007 61.200006 65.232 75.008 83.888 93.696 97.84 107.647998 122.448 132.224 141.104 150.912 155.056 164.832 173.712 177.744 181.776 190.176 194.31999 204.096 212.976 219.504 223.536 227.68 235.29599 244.176 248.208 257.08799 266.896 271.04 278.656 287.536 293.23204 303.04005">Satu kutipan umpan balik dari salah satu </tspan></text>
<text fill="#7f7f7f" xml:space="preserve" transform="matrix(.75 0 0 .75 42.48819 176.2185)" font-size="16" font-family="OpenSans"><tspan y="144.36" x="0 9.776 18.752 26.368 35.344 41.872 47.568 56.448 60.592004 72.976009 81.856 94.240009 103.12 112.928 120.592 129.472 136 144.88 149.072 153.216 158.784 167.552 176.528 184.192 193.072 199.6 208.48001 212.62401 221.024 230 237.616 246.592 250.624 260.432 266.96003 276.76805 286.57606 295.45606 305.26408 309.40809 317.02409 325.90409 333.90409 342.7841">peserta wawancara: &#x201c;Secara keseluruhan saya </tspan></text>
<text fill="#7f7f7f" xml:space="preserve" transform="matrix(.75 0 0 .75 42.48819 176.2185)" font-size="16" font-family="OpenSans"><tspan y="173.16" x="0 7.616 17.424 25.824002 34.704004 38.832 42.976 51.856004 60.256006 69.136 78.944 83.088 88.784 97.759998 103.45599 112.33599 122.11199 126.14399 130.288 139.168 148.944 157.824 161.968 171.744 180.72 190.496 199.472 206 214.88 224.656 233.53601 237.68001 245.296 254.17601 260.704 269.584 279.39204 283.53605 293.34407 303.15208 308.84809 318.6561 327.0561">suka, akan tetapi ada beberapa saran untuk </tspan></text>
<text fill="#7f7f7f" xml:space="preserve" transform="matrix(.75 0 0 .75 42.48819 176.2185)" font-size="16" font-family="OpenSans"><tspan y="201.96" x="0 9.776 18.752 28.560002 38.336004 47.312005 53.008005 61.888006 65.920009 69.952 78.832 88.64 92.784 102.19199 107.88799 117.69599 124.22399 128.41599 132.55998 142.67198 152.44799 156.47998 160.51198 168.91197 177.79198 185.40798 189.43997 193.58397 197.61597 207.42397 211.45597 215.59996 223.21596 232.09597 241.90396 250.57596 259.45597 265.15199 269.296 284.09599 293.072 307.87199 317.64799 326.52799 336.336 342.032 351.84004">pendetailan &#xfb01;tur. Aplikasi ini sangat membantu </tspan></text>
<text fill="#7f7f7f" xml:space="preserve" transform="matrix(.75 0 0 .75 42.48819 176.2185)" font-size="16" font-family="OpenSans"><tspan y="230.76001" x="0 9.776 18.752 22.784 31.664002 41.472 50.144 58.816 67.696 77.504 81.647998 91.423999 100.30399 104.33599 113.21599 128.01599 132.15999 146.95999 155.93599 170.736 179.71199 187.32799 196.208 206.01599 210.15999 218.55998 228.36798 237.34398 241.48798 249.10398 258.08 265.744 274.624 281.152 290.032">pelanggan dalam memesan kue secara </tspan></text>
<text fill="#7f7f7f" xml:space="preserve" transform="matrix(.75 0 0 .75 42.48819 176.2185)" font-size="16" font-family="OpenSans"><tspan y="259.56" x="0 14.800001 24.608002 34.384004 43.264005 53.072008 58.640008">mudah&#x201d;.</tspan></text>
<path transform="matrix(.001968504,0,0,.001968504,0,0)" d="M21584 71626V71626C21584 65956.24 26180.245 61360 31850 61360 34572.71 61360 37183.91 62441.595 39109.16 64366.84 41034.408 66292.09 42116 68903.29 42116 71626 42116 77295.76 37519.755 81892 31850 81892 26180.245 81892 21584 77295.76 21584 71626Z" fill="#5f6368" fill-rule="evenodd"/>
<path transform="matrix(.001968504,0,0,.001968504,0,0)" d="M179832 89519H317676V154150.88H179832Z" fill-opacity="0" fill-rule="evenodd"/>
<text fill="#5f6368" xml:space="preserve" transform="matrix(.75 0 0 .75 354 176.2185)" font-size="18.666666" font-family="OpenSans" font-weight="bold"><tspan y="26.919999" x="0 12.338667 23.949334 34.776 39.61067 49.597337 60.424005 72.277339 82.61867 87.45333 96.52533 107.352 117.33866 128.16533 133 144.61067 155.36267 160.552 171.37866 176.568 187.39466 195.43999 200.62932">Apa yang saya pelajari:</tspan></text>
<text fill="#5f6368" xml:space="preserve" transform="matrix(.75 0 0 .75 354 176.2185)" font-size="16" font-family="OpenSans"><tspan y="57.96" x="0 8.768001 17.648 25.648 34.528 38.672 48.448 57.424005 61.456007 70.336009 74.368007 83.248 89.776 93.92 103.696 112.576 122.383998 134.76799 143.648 147.79199 151.82399 161.59999 170.57599 174.71999 184.49599 193.47199 199.99999 205.69599 214.57599 229.37599 238.256 242.4 252.208 262.016 267.712 277.52003 285.92 290.06404 298.94404 308.72004 312.75205 316.78407 325.18406 334.06407 341.68006 345.71208">Saya belajar bahwa ide pertama untuk aplikasi </tspan></text>
<text fill="#5f6368" xml:space="preserve" transform="matrix(.75 0 0 .75 354 176.2185)" font-size="16" font-family="OpenSans"><tspan y="86.76" x="0 4.032 13.84 17.872 22.015999 31.824 40.704 50.512 58.512 67.392 71.423999 80.30399 90.11199 94.25599 103.13599 115.51999 124.39999 128.43199 132.57599 142.35199 151.232 157.76 161.79199 165.93599 175.71199 182.23999 191.85599 199.47199 208.44799 216.06398 220.25598 224.39998 233.16799 238.86399 248.67198 258.44798 262.47999">ini hanyalah awal dari proses. Studi </tspan></text>
<text fill="#5f6368" xml:space="preserve" transform="matrix(.75 0 0 .75 354 176.2185)" font-size="16" font-family="OpenSans" font-style="italic"><tspan y="86.76" x="266.97657 276.19258 283.08857 292.12858 301.36058 305.39259 309.4246 313.4566 318.7206">usability</tspan></text>
<text fill="#5f6368" xml:space="preserve" transform="matrix(.75 0 0 .75 354 176.2185)" font-size="16" font-family="OpenSans"><tspan y="86.76" x="326.14064"> </tspan></text>
<text fill="#5f6368" xml:space="preserve" transform="matrix(.75 0 0 .75 354 176.2185)" font-size="16" font-family="OpenSans"><tspan y="115.560009" x="0 9.776 18.656 28.464 32.608 42.416 57.216005 66.992008 75.872 85.68 89.824 99.6 108.479999 112.51199 116.54399 124.94399 129.088 136.704 145.68 149.71199 158.592 170.976 179.856 185.552 189.696 204.496 213.472 228.272 238.048 247.024 256.832 265.504 274.384 280.91203 290.72004 300.52806 304.56007">dan umpan balik sejawat mempengaruhi </tspan></text>
<text fill="#5f6368" xml:space="preserve" transform="matrix(.75 0 0 .75 354 176.2185)" font-size="16" font-family="OpenSans"><tspan y="144.36" x="0 7.616 16.592001 22.288002 26.320002 35.2 44.976 49.120004 53.152006 58.848005 67.824008 74.352008 83.232 90.848 94.88 99.023998 108.799999 117.77599 125.39199 134.27199 138.30399 148.11199 152.25598 162.06398 171.87198 177.56798 187.37598 195.77597 199.91997 208.79998 218.57598 222.60797 226.63997 235.03997 243.91997 251.53597 255.56797">setiap iterasi desain untuk aplikasi.</tspan></text>
<path transform="matrix(.001968504,0,0,.001968504,0,0)" d="M179832 71626V71626C179832 65956.24 184428.25 61360 190098 61360 192820.72 61360 195431.9 62441.595 197357.16 64366.84 199282.4 66292.09 200364 68903.29 200364 71626 200364 77295.76 195767.75 81892 190098 81892 184428.25 81892 179832 77295.76 179832 71626Z" fill="#5f6368" fill-rule="evenodd"/>
<path transform="matrix(.001968504,0,0,.001968504,0,0)" d="M35461.69 67458.199H33299.587C33070.42 66859.23 32502.497 66410 31834.936 66410 31157.409 66410 30599.448 66859.23 30370.284 67458.199H28208.18C27640.254 67458.199 27162 67937.37 27162 68496.41V75793.84C27162 76362.87 27640.254 76832.058 28208.18 76832.058H35491.583C36049.544 76832.058 36527.798 76362.87 36527.798 75793.84V68496.41C36497.908 67937.37 36019.654 67458.199 35461.69 67458.199ZM31805.043 67458.199C32084.026 67458.199 32343.079 67677.82 32343.079 67987.28 32343.079 68276.79 32113.916 68526.36 31805.043 68526.36 31496.172 68526.36 31267.008 68296.75 31267.008 67987.28 31296.9 67677.82 31526.063 67458.199 31805.043 67458.199ZM30768.829 74755.63 28686.434 72669.23 29413.778 71930.49 30768.829 73288.16 34196.314 69854.07 34923.658 70582.81 30768.829 74755.63Z" fill="#ffffff" fill-rule="evenodd"/>
<path transform="matrix(.001968504,0,0,.001968504,0,0)" d="M193035.35 68149.808 193273.72 68153.67 193512.08 68165.21 193750.46 68184.488 193988.82 68211.48 194104.17 68230.75 194223.33 68250.019 194338.67 68269.29 194454.03 68296.24 194565.53 68323.238 194680.88 68350.19 194792.38 68381.04 194903.88 68415.72V74569.89L194792.38 74535.21 194680.88 74504.4 194565.53 74473.589 194454.03 74446.589 194338.67 74423.46 194223.33 74400.37 194104.17 74381.1 193988.82 74365.65 193750.46 74334.839 193512.08 74315.56 193273.72 74304.02 193035.35 74300.16 192858.47 74304.02 192677.78 74315.56 192489.38 74334.839 192293.32 74361.83 192097.2 74396.51 191897.3 74435.05 191697.38 74481.269 191497.46 74531.35 191297.55 74589.16 191105.3 74650.83 190916.89 74716.32 190732.35 74785.72 190559.36 74858.93 190394 74939.83 190240.25 75020.77 190098 75101.71V68951.36L190240.25 68866.6 190394 68785.667 190559.36 68708.589 190732.35 68631.51 190916.89 68562.15 191105.3 68496.66 191297.55 68434.99 191497.46 68377.18 191697.38 68327.09 191897.3 68280.83 192097.2 68242.29 192293.32 68207.62 192489.38 68184.488 192677.78 68165.21 192858.47 68153.67 193035.35 68149.808ZM187160.61 67078.52 186964.55 67082.38 186768.49 67090.06 186572.38 67101.65 186372.47 67120.92 186176.4 67144.01 185980.3 67174.87 185784.24 67213.41 185595.83 67259.628 185407.44 67309.76 185219.03 67367.52 185042.2 67433.058 184953.78 67467.738 184865.32 67506.27 184780.75 67544.81 184696.19 67587.21 184611.58 67629.57 184530.88 67675.839 184453.97 67725.92 184377.07 67776 184300.17 67826.13 184227.13 67880.08V75718.3 75745.25L184230.97 75768.38 184238.64 75791.519 184250.2 75818.47 184261.72 75841.59 184277.1 75860.87 184307.88 75903.269 184350.14 75937.949 184373.22 75949.49 184396.3 75964.9 184419.38 75972.628 184442.4 75980.308 184469.35 75984.167 184492.42 75988.03 184511.64 75984.167 184530.88 75980.308 184561.61 75972.628 184592.36 75964.9 184607.74 75961.03H184626.96L184765.39 75895.55 184911.49 75833.878 185061.42 75776.06 185219.03 75722.12 185376.69 75668.17 185542.02 75621.95 185707.33 75575.69 185872.66 75533.28 186041.83 75498.61 186211 75463.93 186376.32 75436.98 186541.64 75413.84 186703.11 75394.58 186860.77 75383.03 187014.52 75375.308 187160.61 75371.449 187356.72 75375.308 187556.64 75383.03 187752.7 75394.58 187952.66 75413.84 188148.72 75436.98 188344.78 75471.66 188537.03 75506.33 188729.28 75552.558 188917.64 75602.68 189102.19 75660.49 189282.92 75725.98 189371.35 75760.66 189459.77 75799.199 189544.33 75837.738 189628.94 75880.13 189709.69 75926.36 189790.39 75968.76 189871.16 76018.84 189948.05 76068.97 190024.9 76119.058 190098 76173 190240.25 76088.24 190394 76007.3 190559.36 75930.22 190732.35 75857.01 190916.89 75787.65 191105.3 75718.3 191297.55 75656.628 191497.46 75602.68 191697.38 75548.738 191897.3 75506.33 192097.2 75463.93 192293.32 75433.12 192489.38 75406.128 192677.78 75386.85 192858.47 75375.308 193035.35 75371.449H193200.67L193365.99 75379.17 193531.32 75386.85 193696.63 75402.308 193861.96 75421.53 194027.27 75444.667 194188.74 75471.66 194350.24 75502.47 194511.7 75537.15 194669.32 75579.55 194826.97 75625.769 194980.74 75675.9 195134.53 75733.7 195280.63 75795.339 195426.72 75860.87 195569 75934.089 195603.61 75949.49 195634.35 75957.22 195665.1 75961.03H195703.55L195726.63 75957.22 195753.55 75953.35 195776.6 75945.628 195799.67 75937.949 195822.75 75926.36 195845.83 75910.95 195888.08 75876.27 195918.88 75833.878 195934.25 75814.6 195945.77 75791.519 195957.33 75764.519 195964.99 75741.38 195968.85 75718.3V75691.308 67880.08L195849.64 67795.27 195722.77 67714.378 195595.89 67641.16 195465.17 67571.76 195330.64 67510.13 195192.2 67452.33 195049.97 67398.378 194903.88 67344.43 194788.53 67309.76 194677.03 67278.9 194561.67 67251.949 194446.33 67224.95 194331.02 67201.82 194215.66 67178.738 193981.16 67140.199 193742.74 67113.199 193504.38 67093.93 193269.86 67082.38 193035.35 67078.52 192839.24 67082.38 192639.33 67090.06 192443.27 67101.65 192243.3 67120.92 192047.24 67144.01 191851.17 67174.87 191658.92 67213.41 191466.67 67259.628 191278.32 67309.76 191093.77 67367.52 190913.03 67433.058 190824.63 67467.738 190736.2 67506.27 190651.64 67544.81 190567.03 67587.21 190486.32 67629.57 190405.57 67675.839 190324.82 67725.92 190247.9 67776 190171.05 67826.13 190098 67880.08 190024.9 67826.13 189948.05 67776 189871.16 67725.92 189790.39 67675.839 189709.69 67629.57 189628.94 67587.21 189544.33 67544.81 189459.77 67506.27 189371.35 67467.738 189282.92 67433.058 189102.19 67367.52 188917.64 67309.76 188729.28 67259.628 188537.03 67213.41 188344.78 67174.87 188148.72 67144.01 187952.66 67120.92 187752.7 67101.65 187556.64 67090.06 187356.72 67082.38 187160.61 67078.52Z" fill="#ffffff" fill-rule="evenodd"/>
<path transform="matrix(.001968504,0,0,.001968504,0,0)" d="M192866.17 69487.01 192697 69494.738 192531.69 69502.417 192370.22 69514 192208.7 69529.41 192051.1 69548.68 191897.3 69571.81 191743.53 69598.76 191593.58 69629.62 191447.49 69660.43 191305.2 69698.97 191162.97 69737.51 191024.53 69779.87 190890 69826.13 190759.28 69876.22 190632.4 69930.167V70816.52L190747.72 70754.85 190866.92 70697.04 190993.8 70643.09 191128.38 70589.15 191262.96 70542.88 191405.19 70500.52 191547.42 70461.988 191697.38 70423.449 191851.17 70392.59 192008.8 70365.64 192174.11 70342.51 192339.42 70323.238 192508.61 70307.83 192677.78 70296.29 192854.61 70288.56H193208.33L193381.36 70296.29 193554.39 70307.83 193723.52 70323.238 193888.83 70342.51 194054.2 70365.64 194211.82 70396.45 194369.47 70427.31V69614.167L194207.96 69587.22 194046.49 69560.22 193881.17 69537.13 193715.85 69517.86 193546.67 69506.27 193377.5 69494.738 193204.52 69487.01Z" fill="#ffffff" fill-rule="evenodd"/>
<path transform="matrix(.001968504,0,0,.001968504,0,0)" d="M192866.17 70909.01 192697 70916.69 192531.69 70924.417 192370.22 70939.82 192208.7 70955.23 192051.1 70974.5 191897.3 70997.63 191743.53 71024.589 191593.58 71055.44 191447.49 71086.26 191305.2 71124.8 191162.97 71163.339 191024.53 71205.738 190890 71251.95 190759.28 71302.04 190632.4 71352.167V72242.34L190747.72 72176.81 190866.92 72119 190993.8 72065.058 191128.38 72014.97 191262.96 71964.89 191405.19 71922.488 191547.42 71883.949 191697.38 71849.27 191851.17 71814.59 192008.8 71787.6 192174.11 71764.51 192339.42 71745.24 192508.61 71729.79 192677.78 71718.24 192854.61 71714.38 193035.35 71710.52 193208.33 71714.38 193381.36 71722.11 193554.39 71729.79 193723.52 71745.24 193888.83 71768.33 194054.2 71791.46 194211.82 71818.45 194369.47 71849.27V71036.17L194207.96 71009.17 194046.49 70982.23 193881.17 70962.95 193715.85 70943.69 193546.67 70928.28 193377.5 70916.69 193204.52 70912.83 193035.35 70909.01Z" fill="#ffffff" fill-rule="evenodd"/>
<path transform="matrix(.001968504,0,0,.001968504,0,0)" d="M192866.17 72338.699 192697 72346.378 192531.69 72354.1 192370.22 72365.64 192208.7 72381.058 192051.1 72400.32 191897.3 72423.45 191743.53 72450.449 191593.58 72481.269 191447.49 72512.08 191305.2 72550.62 191162.97 72589.16 191024.53 72631.558 190890 72677.77 190759.28 72727.91 190632.4 72781.85V73668.167L190747.72 73606.49 190866.92 73548.69 190993.8 73494.74 191128.38 73440.8 191262.96 73394.57 191405.19 73352.17 191547.42 73313.63 191697.38 73275.09 191851.17 73244.28 192008.8 73217.28 192174.11 73194.199 192339.42 73174.92 192508.61 73159.48 192677.78 73147.93 192854.61 73140.2H193035.35L193208.33 73144.07 193381.36 73147.93 193554.39 73159.48 193723.52 73174.92 193888.83 73194.199 194054.2 73217.28 194211.82 73248.14 194369.47 73278.95V72465.85L194207.96 72435 194046.49 72408.05 193881.17 72388.77 193715.85 72369.51 193546.67 72354.1 193377.5 72346.378 193204.52 72338.699Z" fill="#ffffff" fill-rule="evenodd"/>
</g>
</g>
</svg>
