<svg xmlns="http://www.w3.org/2000/svg" xmlns:xlink="http://www.w3.org/1999/xlink" version="1.1" width="720pt" height="405pt" viewBox="0 0 720 405">
<defs>
<clipPath id="clip_66">
<path transform="matrix(.001968504,0,0,.001968504,0,0)" d="M0 0H365760V205740H0V0Z"/>
</clipPath>
</defs>
<g>
<g clip-path="url(#clip_66)">
<path transform="matrix(.001968504,0,0,.001968504,0,0)" d="M0 0H365760V205740H0Z" fill="#ffffff" fill-rule="evenodd"/>
<path transform="matrix(.001968504,0,0,.001968504,0,0)" d="M0 13165H2772V43285H0Z" fill="#34a853" fill-rule="evenodd"/>
<path transform="matrix(.001968504,0,0,.001968504,0,0)" d="M20707 20974H300739V43138H20707Z" fill-opacity="0" fill-rule="evenodd"/>
<text fill="#5f6368" xml:space="preserve" transform="matrix(.75 0 0 .75 40.76181 41.287405)" font-size="32" font-family="OpenSans"><tspan y="39.72" x="0 19.232 37.184003 50.24 61.632005 69.69601 99.296009 118.84801 136.608 156.224 173.568 191.32799 210.94399 219.23198 236.99198 253.79198 269.024 286.97599 302.20799 310.27198 329.82398 337.88798 345.95198 354.01597 365.40797 383.16798">Pertimbangan aksesibilitas</tspan></text>
<path transform="matrix(.001968504,0,0,.001968504,0,0)" d="M20707 58893H118159V185865H20707Z" fill="#f8f9fa" fill-rule="evenodd"/>
<path transform="matrix(.001968504,0,0,.001968504,0,0)" d="M28453 76712H110413V101086.68H28453Z" fill-opacity="0" fill-rule="evenodd"/>
<text fill="#5f6368" xml:space="preserve" transform="matrix(.75 0 0 .75 56.009843 151.00788)" font-size="16" font-family="OpenSans"><tspan y="24.36" x="12.594208 26.978209 35.95421 45.762208 54.434209 63.10621 72.91421 82.722209 91.6022 100.002208 108.8822 118.6902 122.8342 126.866199 135.26619 144.88219 154.69019 158.83419 168.64218 178.45018 184.14618 193.95418 202.35417">Menggunakan ikon untuk </tspan></text>
<text fill="#5f6368" xml:space="preserve" transform="matrix(.75 0 0 .75 56.009843 151.00788)" font-size="16" font-family="OpenSans"><tspan y="46.44" x="16.973114 31.773116 40.749116 55.549119 65.32512 74.30112 80.82912 95.62912 105.43712 115.21312 124.09312 133.90113 138.04512 147.85312 156.73313 164.71712 168.74912 177.42111 186.30112 193.91712">mempermudah navigasi</tspan></text>
<path transform="matrix(.001968504,0,0,.001968504,0,0)" d="M127011 58893H224463V185865H127011Z" fill="#f8f9fa" fill-rule="evenodd"/>
<path transform="matrix(.001968504,0,0,.001968504,0,0)" d="M134757 76712H216717V135065.24H134757Z" fill-opacity="0" fill-rule="evenodd"/>
<text fill="#5f6368" xml:space="preserve" transform="matrix(.75 0 0 .75 265.26969 151.00788)" font-size="16" font-family="OpenSans"><tspan y="24.36" x="23.582489 37.96649 46.942495 56.750497 65.4225 74.0945 83.9025 93.710498 102.59049 110.99049 119.87049 129.6785 133.8225 142.49449 151.3745 166.1745 175.9505 184.8305 191.3585">Menggunakan gambar </tspan></text>
<text fill="#5f6368" xml:space="preserve" transform="matrix(.75 0 0 .75 265.26969 151.00788)" font-size="16" font-family="OpenSans"><tspan y="46.44" x="45.05124 53.45124 63.25924 72.23524 76.379238 86.155239 95.03523 104.84323 108.98723 118.76323 125.29123 134.90723 144.68323 153.65923 160.18723 165.88323 169.91522">kue dan properti </tspan></text>
<text fill="#5f6368" xml:space="preserve" transform="matrix(.75 0 0 .75 265.26969 151.00788)" font-size="16" font-family="OpenSans"><tspan y="68.52" x="18.680146 28.456147 37.432149 47.24015 57.01615 66.82415 75.22415 85.03215 94.84015 103.512149 107.65614 117.432147 126.40814 134.02414 139.72014 148.60015 152.74414 162.55214 172.36014 178.05614 187.86414 196.26413">pendukung pesta untuk </tspan></text>
<text fill="#5f6368" xml:space="preserve" transform="matrix(.75 0 0 .75 265.26969 151.00788)" font-size="16" font-family="OpenSans"><tspan y="90.6" x="21.898896 36.6989 45.6749 60.4749 70.2509 79.2269 85.7549 100.5549 110.3629 120.1389 129.0189 138.8269 142.9709 150.5869 159.5629 174.3629 184.1709 193.0509">mempermudah semua </tspan></text>
<text fill="#5f6368" xml:space="preserve" transform="matrix(.75 0 0 .75 265.26969 151.00788)" font-size="16" font-family="OpenSans"><tspan y="112.68" x="45.031709 54.80771 63.78371 73.59171 82.26372 90.935718 100.74371 110.55171 119.43171 123.57571 133.3517 142.2317 146.2637 155.1437 169.94371">pengguna dalam </tspan></text>
<text fill="#5f6368" xml:space="preserve" transform="matrix(.75 0 0 .75 265.26969 151.00788)" font-size="16" font-family="OpenSans"><tspan y="134.76" x="38.38327 53.183275 62.159276 76.959278 85.83927 95.64727 104.52727 119.32727 123.35927 127.503269 137.27927 146.25527 153.87126 162.75127 166.78327">memahami desain</tspan></text>
<path transform="matrix(.001968504,0,0,.001968504,0,0)" d="M233315 58893H330767V185865H233315Z" fill="#f8f9fa" fill-rule="evenodd"/>
<path transform="matrix(.001968504,0,0,.001968504,0,0)" d="M241061 76712H323021V126570.6H241061Z" fill-opacity="0" fill-rule="evenodd"/>
<text fill="#5f6368" xml:space="preserve" transform="matrix(.75 0 0 .75 474.52955 151.00788)" font-size="16" font-family="OpenSans"><tspan y="24.36" x="13.867645 28.251646 37.227647 47.035646 55.707647 64.37965 74.187648 83.99564 92.87564 101.27564 110.15564 119.96364 124.107639 132.50763 142.12363 156.92363 166.69963 170.73163 180.53963 189.41963 197.03563 201.06763">Menggunakan kombinasi </tspan></text>
<text fill="#5f6368" xml:space="preserve" transform="matrix(.75 0 0 .75 474.52955 151.00788)" font-size="16" font-family="OpenSans"><tspan y="46.44" x="54.22702 66.61102 75.49102 82.01902 91.82702 100.707019 104.85101 114.627017 123.60301 133.41101 142.08301 150.96302 160.77101">warna dengan </tspan></text>
<text fill="#5f6368" xml:space="preserve" transform="matrix(.75 0 0 .75 474.52955 151.00788)" font-size="16" font-family="OpenSans"><tspan y="68.52" x="31.176239 45.976243 54.952245 69.75224 79.528247 88.50424 95.03224 100.72824 104.76024 119.56024 129.33625 138.21625 148.02425 156.69625 165.09624 173.97624 183.78424">mempertimbangkan </tspan></text>
<text fill="#5f6368" xml:space="preserve" transform="matrix(.75 0 0 .75 474.52955 151.00788)" font-size="16" font-family="OpenSans"><tspan y="90.6" x="21.812958 30.21296 39.82896 49.636964 55.332963 61.860963 70.74096 78.35696 82.50095 91.38095 100.05295 108.932949 115.460948 119.60494 125.30094 134.27695 139.97295 148.85295 158.62895 162.77295 172.54895 176.58095 184.19695 193.07695">kontras agar tetap bisa </tspan></text>
<text fill="#5f6368" xml:space="preserve" transform="matrix(.75 0 0 .75 474.52955 151.00788)" font-size="16" font-family="OpenSans"><tspan y="112.68" x="20.766083 30.542084 34.574087 44.350088 53.230089 60.89409 69.774089 73.91808 83.694087 92.67008 102.47808 111.150089 120.03008 129.83809 133.98209 143.79009 151.79009 160.67009 175.4701 184.3501">dibaca dengan nyaman</tspan></text>
<path transform="matrix(.001968504,0,0,.001968504,0,0)" d="M59167 59624.84V59624.84C59167 53955.087 63763.248 49358.84 69433 49358.84 72155.71 49358.84 74766.91 50440.435 76692.16 52365.685 78617.41 54290.93 79699 56902.13 79699 59624.84 79699 65294.595 75102.76 69890.84 69433 69890.84 63763.248 69890.84 59167 65294.595 59167 59624.84Z" fill="#34a853" fill-rule="evenodd"/>
<text fill="#ffffff" xml:space="preserve" transform="matrix(.75 0 0 .75 122.38946 103.08205)" font-size="29.333334" font-family="ArialMT"><tspan y="29.61291" x="10.897451">1</tspan></text>
<path transform="matrix(.001968504,0,0,.001968504,0,0)" d="M165471 59624.84V59624.84C165471 53955.087 170067.25 49358.84 175737 49358.84 178459.72 49358.84 181070.9 50440.435 182996.16 52365.685 184921.4 54290.93 186003 56902.13 186003 59624.84 186003 65294.595 181406.75 69890.84 175737 69890.84 170067.25 69890.84 165471 65294.595 165471 59624.84Z" fill="#34a853" fill-rule="evenodd"/>
<text fill="#ffffff" xml:space="preserve" transform="matrix(.75 0 0 .75 331.6493 103.08205)" font-size="29.333334" font-family="ArialMT"><tspan y="29.61291" x="10.897451">2</tspan></text>
<path transform="matrix(.001968504,0,0,.001968504,0,0)" d="M271775 59624.84V59624.84C271775 53955.087 276371.26 49358.84 282041 49358.84 284763.73 49358.84 287374.9 50440.435 289300.17 52365.685 291225.4 54290.93 292307 56902.13 292307 59624.84 292307 65294.595 287710.76 69890.84 282041 69890.84 276371.26 69890.84 271775 65294.595 271775 59624.84Z" fill="#34a853" fill-rule="evenodd"/>
<text fill="#ffffff" xml:space="preserve" transform="matrix(.75 0 0 .75 540.9091 103.08205)" font-size="29.333334" font-family="ArialMT"><tspan y="29.61291" x="10.897451">3</tspan></text>
</g>
</g>
</svg>
