<svg xmlns="http://www.w3.org/2000/svg" xmlns:xlink="http://www.w3.org/1999/xlink" version="1.1" width="720pt" height="405pt" viewBox="0 0 720 405">
<defs>
<clipPath id="clip_40">
<path transform="matrix(.001968504,0,0,.001968504,0,0)" d="M0 0H365760V205740H0V0Z"/>
</clipPath>
</defs>
<g>
<g clip-path="url(#clip_40)">
<path transform="matrix(.001968504,0,0,.001968504,0,0)" d="M0 0H365760V205740H0Z" fill="#34a853" fill-rule="evenodd"/>
<path transform="matrix(.001968504,0,0,.001968504,0,0)" d="M148851 81936H308451V123804H148851Z" fill-opacity="0" fill-rule="evenodd"/>
<text fill="#ffffff" xml:space="preserve" transform="matrix(.75 0 0 .75 293.01377 161.29134)" font-size="18.666666" font-family="ArialMT"><tspan y="26.919999" x="21.731553">&#x25cf;</tspan></text>
<text fill="#ffffff" xml:space="preserve" transform="matrix(.75 0 0 .75 293.01377 161.29134)" font-size="18.666666" font-family="OpenSans"><tspan y="26.919999" x="57 73.781337 84.141338 93.94134 104.41334">Maket</tspan></text>
<text fill="#ffffff" xml:space="preserve" transform="matrix(.75 0 0 .75 293.01377 161.29134)" font-size="18.666666" font-family="ArialMT"><tspan y="60.519998" x="21.731553">&#x25cf;</tspan></text>
<text fill="#ffffff" xml:space="preserve" transform="matrix(.75 0 0 .75 293.01377 161.29134)" font-size="18.666666" font-family="OpenSans"><tspan y="60.519998" x="57 68.218669 75.83466 87.05333 93.69866 104.91733 111.56266 116.26666 127.672 138.144">Prototipe </tspan></text>
<text fill="#ffffff" xml:space="preserve" transform="matrix(.75 0 0 .75 293.01377 161.29134)" font-size="18.666666" font-family="OpenSans" font-style="italic"><tspan y="60.519998" x="143.0392 153.7912 158.4952 168.1832 178.9352 184.7592 195.26854 206.0392 215.3352 220.0392 224.7432 230.88452 239.47119">high-&#xfb01;delity.</tspan></text>
<text fill="#ffffff" xml:space="preserve" transform="matrix(.75 0 0 .75 293.01377 161.29134)" font-size="18.666666" font-family="ArialMT"><tspan y="94.119998" x="21.731553">&#x25cf;</tspan></text>
<text fill="#ffffff" xml:space="preserve" transform="matrix(.75 0 0 .75 293.01377 161.29134)" font-size="18.666666" font-family="OpenSans"><tspan y="94.119998" x="57 68.79733 78.597339 87.482669 97.954669 106.84 111.544 122.94933 127.653339 132.35733 137.06133 143.70667 154.06667">Aksesibilitas</tspan></text>
<path transform="matrix(.001968504,0,0,.001968504,0,0)" d="M-18755 83292H129421V107666.68H-18755Z" fill-opacity="0" fill-rule="evenodd"/>
<text fill="#ffffff" xml:space="preserve" transform="matrix(.75 0 0 .75 -36.919294 163.96063)" font-size="32" font-family="OpenSans"><tspan y="39.72" x="106.00714 134.77515 152.72714 172.34314 188.34314 206.29514 235.89514 255.44715 275.06315 288.11915 307.73515 325.49516 342.29515 360.05516 379.67115">Menyempurnakan </tspan></text>
<text fill="#ffffff" xml:space="preserve" transform="matrix(.75 0 0 .75 -36.919294 163.96063)" font-size="32" font-family="OpenSans"><tspan y="83.88" x="281.63215 301.18415 319.13615 334.36814 352.12815 360.19215">desain</tspan></text>
<path transform="matrix(.001968504,0,0,.001968504,0,0)" d="M138404 41286 139868 164454" fill-opacity="0" fill-rule="evenodd"/>
<path transform="matrix(.001968504,0,0,.001968504,0,0)" stroke-width="762" stroke-linecap="butt" stroke-linejoin="round" fill="none" stroke="#ffffff" d="M138404 41286 139868 164454"/>
</g>
</g>
</svg>
