<svg xmlns="http://www.w3.org/2000/svg" xmlns:xlink="http://www.w3.org/1999/xlink" version="1.1" width="720pt" height="405pt" viewBox="0 0 720 405">
<defs>
<clipPath id="clip_69">
<path transform="matrix(.001968504,0,0,.001968504,0,0)" d="M0 0H365760V205740H0V0Z"/>
</clipPath>
</defs>
<g>
<g clip-path="url(#clip_69)">
<path transform="matrix(.001968504,0,0,.001968504,0,0)" d="M0 0H365760V205740H0Z" fill="#ffffff" fill-rule="evenodd"/>
<path transform="matrix(.001968504,0,0,.001968504,0,0)" d="M0 13165H2772V43285H0Z" fill="#9aa0a6" fill-rule="evenodd"/>
<path transform="matrix(.001968504,0,0,.001968504,0,0)" d="M20707 20973.52H217951V43137.52H20707Z" fill-opacity="0" fill-rule="evenodd"/>
<text fill="#5f6368" xml:space="preserve" transform="matrix(.75 0 0 .75 40.76181 41.286458)" font-size="32" font-family="OpenSans"><tspan y="39.72" x="0 16.672 34.432 54.048 71.392 88.192 105.952 125.56801 133.856 153.408 171.36 184.416 192.48 209.28 228.896 240.288 259.904 275.904">Langkah berikutnya</tspan></text>
<path transform="matrix(.001968504,0,0,.001968504,0,0)" d="M84704 57794.48H182156V184766.49H84704Z" fill="#f8f9fa" fill-rule="evenodd"/>
<path transform="matrix(.001968504,0,0,.001968504,0,0)" d="M92450 75613.48H174410V133966.72H92450Z" fill-opacity="0" fill-rule="evenodd"/>
<text fill="#5f6368" xml:space="preserve" transform="matrix(.75 0 0 .75 181.98819 148.84543)" font-size="16" font-family="OpenSans"><tspan y="24.36" x="13.7153019 23.507302 32.483304 47.283304 57.059305 65.9393 69.9713 74.003299 78.14729 92.947299 101.923297 105.95529 114.83529 123.23529 133.04329 141.44329 150.32329 160.13129 164.27529 171.89128 177.58728 187.39528 197.17128 201.20328">Kembali melakukan studi </tspan></text>
<text fill="#5f6368" xml:space="preserve" transform="matrix(.75 0 0 .75 181.98819 148.84543)" font-size="16" font-family="OpenSans" font-style="italic"><tspan y="46.44" x="54.125459 63.341459 70.23746 79.27746 88.50946 92.54146 96.573459 100.60545 105.86945">usability</tspan></text>
<text fill="#5f6368" xml:space="preserve" transform="matrix(.75 0 0 .75 181.98819 148.84543)" font-size="16" font-family="OpenSans"><tspan y="46.44" x="113.28952 117.43352 127.241519 137.04952 142.74552 152.55352 160.9535"> untuk </tspan></text>
<text fill="#5f6368" xml:space="preserve" transform="matrix(.75 0 0 .75 181.98819 148.84543)" font-size="16" font-family="OpenSans"><tspan y="68.52" x="31.184052 45.984056 54.960058 69.760059 77.74406 86.624057 90.65605 94.68805 104.46405 113.34405 120.960048 124.99204 129.13605 138.01605 147.79206 156.67206 165.07205 173.95206 183.76006">memvalidasi apakah </tspan></text>
<text fill="#5f6368" xml:space="preserve" transform="matrix(.75 0 0 .75 181.98819 148.84543)" font-size="16" font-family="OpenSans"><tspan y="90.6" x="18.379364 28.155365 37.771368 41.803369 51.611368 56.747369 66.52337 76.139369 80.171367 89.97936 94.12336 108.92336 117.80336 125.41936 134.29936 138.33136 147.21137 157.01937 161.16336 169.16336 178.04337 187.85137 196.52336">poin-poin masalah yang </tspan></text>
<text fill="#5f6368" xml:space="preserve" transform="matrix(.75 0 0 .75 181.98819 148.84543)" font-size="16" font-family="OpenSans"><tspan y="112.68" x="20.199677 29.975678 34.00768 42.88768 46.91968 55.799684 70.599689 74.63168 78.77568 88.55168 97.52768 107.33568 116.007678 124.67967 134.48767 144.29567 153.17568 157.31967 163.01567 171.99167 176.02367 184.90367 194.71167">dialami pengguna telah </tspan></text>
<text fill="#5f6368" xml:space="preserve" transform="matrix(.75 0 0 .75 181.98819 148.84543)" font-size="16" font-family="OpenSans"><tspan y="134.76" x="18.730927 28.506928 32.53893 38.23493 47.11493 56.922929 65.594928 74.47492 84.28292 88.31492 92.458919 100.07491 109.05091 116.71491 125.59491 132.12291 141.00292 145.14691 154.12291 159.49892 168.47492 176.87491 182.5709 186.6029 191.97891">ditangani secara efektif.</tspan></text>
<path transform="matrix(.001968504,0,0,.001968504,0,0)" d="M191008 57794.48H288460V184766.49H191008Z" fill="#f8f9fa" fill-rule="evenodd"/>
<path transform="matrix(.001968504,0,0,.001968504,0,0)" d="M198754 75613.48H280714V142461.32H198754Z" fill-opacity="0" fill-rule="evenodd"/>
<text fill="#5f6368" xml:space="preserve" transform="matrix(.75 0 0 .75 391.24806 148.84543)" font-size="16" font-family="OpenSans"><tspan y="24.36" x="17.35202 31.736021 40.71202 44.744024 53.624025 62.024026 71.83202 80.232028 89.11202 98.92002 103.06402 107.096019 116.072017 125.848018 129.88002 139.68802 143.83202 153.60802 162.48802 172.29602 180.29602 189.17603 197.57602">Melakukan lebih banyak </tspan></text>
<text fill="#5f6368" xml:space="preserve" transform="matrix(.75 0 0 .75 391.24806 148.84543)" font-size="16" font-family="OpenSans"><tspan y="46.44" x="31.19577 40.97177 49.947774 59.755777 68.73177 72.76377 76.79577 82.49177 86.523769 95.40376 105.21176 109.35576 119.13176 128.10776 137.91576 146.58776 155.25975 165.06775 174.87575 183.75576">penelitian pengguna </tspan></text>
<text fill="#5f6368" xml:space="preserve" transform="matrix(.75 0 0 .75 391.24806 148.84543)" font-size="16" font-family="OpenSans"><tspan y="68.52" x="36.191865 45.999864 55.80786 61.50386 71.31186 79.71186 83.85586 98.65586 107.63186 117.43986 126.415859 136.22386 141.91986 151.72786 160.12786 169.00786 178.81586">untuk menentukan </tspan></text>
<text fill="#5f6368" xml:space="preserve" transform="matrix(.75 0 0 .75 391.24806 148.84543)" font-size="16" font-family="OpenSans"><tspan y="90.6" x="23.328583 31.728585 40.704587 50.480588 60.28859 65.98459 75.79259 85.600589 94.48058 104.28858 108.43258 118.20858 127.08858 136.89658 141.04058 150.84857 159.72858 163.76058 168.89658 178.70458 187.58458 191.61658">kebutuhan dan hal-hal </tspan></text>
<text fill="#5f6368" xml:space="preserve" transform="matrix(.75 0 0 .75 391.24806 148.84543)" font-size="16" font-family="OpenSans"><tspan y="112.68" x="41.43405 51.210054 60.090055 66.61806 76.426059 80.57005 84.60205 93.48205 97.514049 107.322048 117.13004 125.13004 134.01004 138.15404 146.15404 155.03404 164.84204 173.51404">baru lainnya yang </tspan></text>
<text fill="#5f6368" xml:space="preserve" transform="matrix(.75 0 0 .75 391.24806 148.84543)" font-size="16" font-family="OpenSans"><tspan y="134.76" x="62.523897 72.2999 76.331897 86.107898 95.91589 101.61189 111.41989 121.22789 129.62789 138.50789 148.31589">dibutuhkan.</tspan></text>
<path transform="matrix(.001968504,0,0,.001968504,0,0)" d="M123164 56672.8V56672.8C123164 51003.044 127760.24 46406.8 133430 46406.8 136152.72 46406.8 138763.9 47488.396 140689.16 49413.64 142614.4 51338.89 143696 53950.087 143696 56672.8 143696 62342.556 139099.75 66938.8 133430 66938.8 127760.24 66938.8 123164 62342.556 123164 56672.8Z" fill="#5f6368" fill-rule="evenodd"/>
<text fill="#ffffff" xml:space="preserve" transform="matrix(.75 0 0 .75 248.3678 97.27095)" font-size="29.333334" font-family="ArialMT"><tspan y="29.61291" x="10.897451">1</tspan></text>
<path transform="matrix(.001968504,0,0,.001968504,0,0)" d="M229468 56672.8V56672.8C229468 51003.044 234064.25 46406.8 239734 46406.8 242456.72 46406.8 245067.9 47488.396 246993.16 49413.64 248918.4 51338.89 250000 53950.087 250000 56672.8 250000 62342.556 245403.75 66938.8 239734 66938.8 234064.25 66938.8 229468 62342.556 229468 56672.8Z" fill="#5f6368" fill-rule="evenodd"/>
<text fill="#ffffff" xml:space="preserve" transform="matrix(.75 0 0 .75 457.62763 97.27095)" font-size="29.333334" font-family="ArialMT"><tspan y="29.61291" x="10.897451">2</tspan></text>
</g>
</g>
</svg>
