<svg xmlns="http://www.w3.org/2000/svg" xmlns:xlink="http://www.w3.org/1999/xlink" version="1.1" width="720pt" height="405pt" viewBox="0 0 720 405">
<defs>
<clipPath id="clip_41">
<path transform="matrix(.001968504,0,0,.001968504,0,0)" d="M0 0H365760V205740H0V0Z"/>
</clipPath>
</defs>
<g>
<g clip-path="url(#clip_41)">
<path transform="matrix(.001968504,0,0,.001968504,0,0)" d="M0 0H365760V205740H0Z" fill="#ffffff" fill-rule="evenodd"/>
<path transform="matrix(.001968504,0,0,.001968504,0,0)" d="M0 13165H2772V43285H0Z" fill="#34a853" fill-rule="evenodd"/>
<path transform="matrix(.001968504,0,0,.001968504,0,0)" d="M20707 20974H300739V43138H20707Z" fill-opacity="0" fill-rule="evenodd"/>
<text fill="#5f6368" xml:space="preserve" transform="matrix(.75 0 0 .75 40.76181 41.287405)" font-size="32" font-family="OpenSans"><tspan y="39.72" x="0 28.768002 46.528 63.328004 81.28001">Maket</tspan></text>
<path transform="matrix(.001968504,0,0,.001968504,0,0)" d="M32061 66579H333705V108447H32061Z" fill-opacity="0" fill-rule="evenodd"/>
<text fill="#5f6368" xml:space="preserve" transform="matrix(.75 0 0 .75 63.112207 131.06102)" font-size="18.666666" font-family="OpenSans"><tspan y="26.919999" x="0 10.229334 20.589333 29.922665 40.282667 45.117334 62.384004 72.856 80.472 90.944 100.25867 104.96267 113.848 118.552 123.386669 134.79199 145.152 155.26934 159.97333 170.33333 181.776 186.61067 191.31467 202.75734 209.02935 220.24802 225.08269 236.30136 243.91736 255.3227 265.79469 273.41069 278.24534 289.65068 300.12269 311.56535 321.68269 332.04267 343.48533 348.31999 365.58665 376.05867 387.5013 397.8613 415.12797 426.5333 436.89329 448.33595 458.13594 468.4959 479.93858 484.77323 491.04524 502.2639 509.87989 527.14657 531.9812 543.4239 554.8666 561.5119 572.9546 582.7546 587.58926 604.8559 615.3279 626.77059 636.8879 641.59188 650.4772 655.18118 660.0158 670.3758 675.0798 685.43978 702.7064 713.0664 719.71176 724.5464 735.9891 747.43179 754.0771 765.5198 775.31979">Saya merevisi bagian info order dengan menambahkan form untuk mengisi alamat untuk </tspan></text>
<text fill="#5f6368" xml:space="preserve" transform="matrix(.75 0 0 .75 63.112207 131.06102)" font-size="18.666666" font-family="OpenSans"><tspan y="60.519998" x="0 17.266669 27.738669 45.005338 55.365339 64.25067 75.69334 85.49334 95.29334 105.65334 117.09601 121.93067 132.29067 136.99466 147.35466 164.62133 174.98133 181.62667 186.46134 197.86667 208.33867 219.78134 229.89868 234.60268 242.21868 246.92267 264.18934 274.54933 285.99198 290.82664 301.1866 311.30397 321.66395 329.27995 334.1146 345.51994 355.99195 367.4346 377.55195 387.66929 399.11195 410.5546 420.91459 425.74925 437.15458 447.51457 458.9199 469.27989 475.9252 480.75987 492.1652 502.6372 514.0799 524.1972 534.5572 545.9999 550.83456 568.1012 579.5439 590.9492 601.3092 612.7519 617.58657 634.8532 645.3252 656.7679 667.23989 684.50656 695.9492 705.7492 716.1092 727.5519 738.99459 748.3279 758.68789">memasukkan alamat pengiriman agar pengguna dapat dengan mudah menemukannya.</tspan></text>
</g>
</g>
</svg>
