<svg xmlns="http://www.w3.org/2000/svg" xmlns:xlink="http://www.w3.org/1999/xlink" version="1.1" width="720pt" height="405pt" viewBox="0 0 720 405">
<defs>
<clipPath id="clip_47">
<path transform="matrix(.001968504,0,0,.001968504,0,0)" d="M0 0H365760V205740H0V0Z"/>
</clipPath>
</defs>
<g>
<g clip-path="url(#clip_47)">
<path transform="matrix(.001968504,0,0,.001968504,0,0)" d="M0 0H365760V205740H0Z" fill="#ffffff" fill-rule="evenodd"/>
<path transform="matrix(.001968504,0,0,.001968504,0,0)" d="M0 13165H2772V43285H0Z" fill="#34a853" fill-rule="evenodd"/>
<path transform="matrix(.001968504,0,0,.001968504,0,0)" d="M20707 20974H300739V43138H20707Z" fill-opacity="0" fill-rule="evenodd"/>
<text fill="#5f6368" xml:space="preserve" transform="matrix(.75 0 0 .75 40.76181 41.287405)" font-size="32" font-family="OpenSans"><tspan y="39.72" x="0 28.768002 46.528 63.328004 81.28001">Maket</tspan></text>
<path transform="matrix(.001968504,0,0,.001968504,0,0)" d="M32061 66579H333705V108447H32061Z" fill-opacity="0" fill-rule="evenodd"/>
<text fill="#5f6368" xml:space="preserve" transform="matrix(.75 0 0 .75 63.112207 131.06102)" font-size="18.666666" font-family="OpenSans"><tspan y="26.919999" x="0 10.229334 20.589333 29.922665 40.282667 45.117334 62.384004 72.856 80.472 90.944 100.25867 104.96267 113.848 118.552 123.386669 134.79199 145.152 155.26934 159.97333 170.33333 181.776 186.61067 191.31467 202.75734 209.02935 220.24802 225.08269 236.30136 243.91736 255.3227 265.79469 273.41069 278.24534 289.65068 300.12269 311.56535 321.68269 332.04267 343.48533 348.31999 365.58665 376.05867 387.5013 397.8613 415.12797 426.5333 436.89329 448.33595 458.13594 468.4959 479.93858 484.77323 496.21589 506.57588 514.1919 524.3092 534.6692 539.50387 550.9092 561.26919 572.71188 577.5465 588.0185 596.9038 603.54916 608.2531 625.5198 635.87979 644.7651 649.46908 654.3037 668.7517 679.1117 688.9117 695.557 706.9997 711.83438 723.2397 733.5997 745.005 755.365">Saya merevisi bagian info order dengan menambahkan harga dan estimasi waktu pada </tspan></text>
<text fill="#5f6368" xml:space="preserve" transform="matrix(.75 0 0 .75 63.112207 131.06102)" font-size="18.666666" font-family="OpenSans"><tspan y="60.519998" x="0 8.885333 19.357335 26.002667 30.706667 41.066667 52.472 57.306669 62.010667 72.37067 81.256 91.616 96.45066 107.855998 118.327999 129.77066 139.888 144.592 152.208 156.91199 174.17865 184.53865 195.98133 200.816 211.176 221.29334 231.65334 239.26934 244.104 255.50934 265.98133 277.42399 287.54133 297.65867 309.10133 320.54399 330.90397 335.73863 347.14396 357.50395 368.90928 379.26927 385.91459 390.74925 408.0159 418.4879 429.93058 440.0479 450.5199 457.16523 467.5252 478.96788 490.41053 495.11454 499.9492 511.39186 521.75186 529.36788 539.48519 549.84518 554.6798 559.3838 569.7438 578.6291 588.9891 593.8237 605.22909 615.70108 627.14376 637.26107 641.965 649.58108 654.28506 671.5517 681.9117 693.3544 698.189 709.59439 719.95437 731.39706">setiap jasa pengiriman agar pengguna dapat mengetahui harga jasa pengiriman dan </tspan></text>
<text fill="#5f6368" xml:space="preserve" transform="matrix(.75 0 0 .75 63.112207 131.06102)" font-size="18.666666" font-family="OpenSans"><tspan y="94.119998" x="0 10.472 19.357335 26.002667 30.706667 47.973337 58.333337 67.218669 71.92267 76.75733 91.20533 101.56533 111.36533 118.010669 129.45334 134.28801 145.69335 156.16535 167.60802 177.72536 182.42935 190.04535 194.74935 212.016 222.376 233.81868 238.65335 247.53868 258.01069 269.41603 279.888 284.592 296.03468 313.30134 318.136 324.7813 335.1413 346.58396 356.94395 368.34928 373.18394 384.58927 395.06129 412.32795 423.73329 434.09327 443.4266 453.7866 461.4026 471.76258">estimasi waktu pengiriman sebelum tahap pembayaran</tspan></text>
</g>
</g>
</svg>
